<svg id="Layer_1" data-name="Layer 1" xmlns="http://www.w3.org/2000/svg" viewBox="0 0 58.68 148.4"><defs><style>.cls-1,.cls-2{fill:#131413;}.cls-2{stroke:#1d1d1b;stroke-width:0.25px;}.cls-12,.cls-2{stroke-miterlimit:10;}.cls-3{fill:#c6a370;}.cls-4{fill:#31322f;}.cls-5{fill:#3e3f38;}.cls-6{fill:#e9a104;}.cls-7{fill:#6e6e6e;stroke:#8c8c8c;}.cls-13,.cls-7{stroke-linecap:round;stroke-linejoin:round;}.cls-12,.cls-13,.cls-7{stroke-width:0.28px;}.cls-8{fill:#fff;}.cls-9{fill:#cfb17e;}.cls-10{fill:#e5e4d9;}.cls-11{fill:#efe649;}.cls-12{fill:#3d3d3d;stroke:#3d3d3d;}.cls-13{fill:#bababa;stroke:#6e6e6e;}.cls-14{fill:#f2ede5;}.cls-15{fill:#be9349;}.cls-16{fill:#dcc4a0;}.cls-17{fill:#936419;}</style></defs><path id="PCB" class="cls-1" d="M58.68,6V5.48a1.21,1.21,0,0,0-.07-.43,1.42,1.42,0,0,0-1.37-1H1.44a1.42,1.42,0,0,0-1.37,1A1.21,1.21,0,0,0,0,5.48V6A1.75,1.75,0,0,1,1.68,7.76,1.75,1.75,0,0,1,0,9.52V13.2A1.75,1.75,0,0,1,1.68,15,1.75,1.75,0,0,1,0,16.72V20.4a1.75,1.75,0,0,1,1.68,1.76A1.75,1.75,0,0,1,0,23.92V27.6a1.75,1.75,0,0,1,1.68,1.76A1.75,1.75,0,0,1,0,31.12V34.8a1.75,1.75,0,0,1,1.68,1.76A1.75,1.75,0,0,1,0,38.32V42a1.75,1.75,0,0,1,1.68,1.76A1.75,1.75,0,0,1,0,45.52V49.2A1.75,1.75,0,0,1,1.68,51,1.75,1.75,0,0,1,0,52.72V56.4a1.75,1.75,0,0,1,1.68,1.76A1.75,1.75,0,0,1,0,59.92V63.6a1.75,1.75,0,0,1,1.68,1.76A1.75,1.75,0,0,1,0,67.12V70.8a1.75,1.75,0,0,1,1.68,1.76A1.75,1.75,0,0,1,0,74.32V78a1.75,1.75,0,0,1,1.68,1.76A1.75,1.75,0,0,1,0,81.52V85.2A1.75,1.75,0,0,1,1.68,87,1.75,1.75,0,0,1,0,88.72V92.4a1.75,1.75,0,0,1,1.68,1.76A1.75,1.75,0,0,1,0,95.92V99.6a1.75,1.75,0,0,1,1.68,1.76A1.75,1.75,0,0,1,0,103.12v3.68a1.75,1.75,0,0,1,1.68,1.76A1.75,1.75,0,0,1,0,110.32V114a1.75,1.75,0,0,1,1.68,1.76A1.75,1.75,0,0,1,0,117.52v3.68A1.75,1.75,0,0,1,1.68,123,1.75,1.75,0,0,1,0,124.72v3.68a1.75,1.75,0,0,1,1.68,1.76A1.75,1.75,0,0,1,0,131.92v3.68a1.75,1.75,0,0,1,1.68,1.76A1.75,1.75,0,0,1,0,139.12v3.68a1.75,1.75,0,0,1,1.68,1.76A1.75,1.75,0,0,1,0,146.32V147a1.06,1.06,0,0,0,0,.31,1.43,1.43,0,0,0,1.4,1.13h55.8a1.43,1.43,0,0,0,1.4-1.13,1.06,1.06,0,0,0,0-.31v-.65a1.76,1.76,0,0,1,0-3.5v-3.7a1.76,1.76,0,0,1,0-3.5v-3.7a1.76,1.76,0,0,1,0-3.5v-3.7a1.76,1.76,0,0,1,0-3.5v-3.7a1.76,1.76,0,0,1,0-3.5v-3.7a1.76,1.76,0,0,1,0-3.5v-3.7a1.76,1.76,0,0,1,0-3.5v-3.7a1.76,1.76,0,0,1,0-3.5v-3.7a1.76,1.76,0,0,1,0-3.5v-3.7a1.76,1.76,0,0,1,0-3.5v-3.7a1.76,1.76,0,0,1,0-3.5v-3.7a1.76,1.76,0,0,1,0-3.5v-3.7a1.76,1.76,0,0,1,0-3.5v-3.7a1.76,1.76,0,0,1,0-3.5v-3.7a1.76,1.76,0,0,1,0-3.5v-3.7a1.76,1.76,0,0,1,0-3.5v-3.7a1.76,1.76,0,0,1,0-3.5v-3.7a1.76,1.76,0,0,1,0-3.5v-3.7a1.76,1.76,0,0,1,0-3.5V9.51a1.76,1.76,0,0,1,0-3.5Zm-6,9a1.77,1.77,0,1,1,1.77,1.77A1.77,1.77,0,0,1,52.7,15Zm0-7.2a1.77,1.77,0,1,1,1.77,1.77A1.77,1.77,0,0,1,52.7,7.76Zm0,43.2a1.77,1.77,0,1,1,1.77,1.77A1.77,1.77,0,0,1,52.7,51Zm0-7.2a1.77,1.77,0,1,1,1.77,1.77A1.77,1.77,0,0,1,52.7,43.76Zm0-7.2a1.77,1.77,0,1,1,1.77,1.77A1.77,1.77,0,0,1,52.7,36.56Zm0-7.2a1.77,1.77,0,1,1,1.77,1.77A1.77,1.77,0,0,1,52.7,29.36Zm0,57.6a1.77,1.77,0,1,1,1.77,1.77A1.77,1.77,0,0,1,52.7,87Zm0-7.2a1.77,1.77,0,1,1,1.77,1.77A1.77,1.77,0,0,1,52.7,79.76Zm0-7.2a1.77,1.77,0,1,1,1.77,1.77A1.77,1.77,0,0,1,52.7,72.56Zm0-7.2a1.77,1.77,0,1,1,1.77,1.77A1.77,1.77,0,0,1,52.7,65.36Zm0,57.6a1.77,1.77,0,1,1,1.77,1.77A1.77,1.77,0,0,1,52.7,123Zm0-7.2a1.77,1.77,0,1,1,1.77,1.77A1.77,1.77,0,0,1,52.7,115.76Zm0-7.2a1.77,1.77,0,1,1,1.77,1.77A1.77,1.77,0,0,1,52.7,108.56Zm0-7.2a1.77,1.77,0,1,1,1.77,1.77A1.77,1.77,0,0,1,52.7,101.36Zm0,43.2a1.77,1.77,0,1,1,1.77,1.77A1.77,1.77,0,0,1,52.7,144.56Zm0-7.2a1.77,1.77,0,1,1,1.77,1.77A1.77,1.77,0,0,1,52.7,137.36ZM6.07,15A1.77,1.77,0,1,1,4.3,13.19,1.77,1.77,0,0,1,6.07,15Zm0-7.2A1.77,1.77,0,1,1,4.3,6,1.77,1.77,0,0,1,6.07,7.76Zm0,14.4A1.77,1.77,0,1,1,4.3,20.39,1.77,1.77,0,0,1,6.07,22.16Zm0,28.8A1.77,1.77,0,1,1,4.3,49.19,1.77,1.77,0,0,1,6.07,51Zm0-7.2A1.77,1.77,0,1,1,4.3,42,1.77,1.77,0,0,1,6.07,43.76Zm0-7.2A1.77,1.77,0,1,1,4.3,34.79,1.77,1.77,0,0,1,6.07,36.56Zm0-7.2A1.77,1.77,0,1,1,4.3,27.59,1.77,1.77,0,0,1,6.07,29.36Zm0,28.8A1.77,1.77,0,1,1,4.3,56.39,1.77,1.77,0,0,1,6.07,58.16Zm0,28.8A1.77,1.77,0,1,1,4.3,85.19,1.77,1.77,0,0,1,6.07,87Zm0-7.2A1.77,1.77,0,1,1,4.3,78,1.77,1.77,0,0,1,6.07,79.76Zm0-7.2A1.77,1.77,0,1,1,4.3,70.79,1.77,1.77,0,0,1,6.07,72.56Zm0-7.2A1.77,1.77,0,1,1,4.3,63.59,1.77,1.77,0,0,1,6.07,65.36Zm0,28.8A1.77,1.77,0,1,1,4.3,92.39,1.77,1.77,0,0,1,6.07,94.16Zm0,28.8a1.77,1.77,0,1,1-1.77-1.77A1.77,1.77,0,0,1,6.07,123Zm0-7.2A1.77,1.77,0,1,1,4.3,114,1.77,1.77,0,0,1,6.07,115.76Zm0-7.2a1.77,1.77,0,1,1-1.77-1.77A1.77,1.77,0,0,1,6.07,108.56Zm0-7.2A1.77,1.77,0,1,1,4.3,99.59,1.77,1.77,0,0,1,6.07,101.36Zm0,28.8a1.77,1.77,0,1,1-1.77-1.77A1.77,1.77,0,0,1,6.07,130.16ZM4.3,146.33a1.77,1.77,0,1,1,1.77-1.77A1.77,1.77,0,0,1,4.3,146.33Zm1.77-9a1.77,1.77,0,1,1-1.77-1.77A1.77,1.77,0,0,1,6.07,137.36Zm46.63-7.2a1.77,1.77,0,1,1,1.77,1.77A1.77,1.77,0,0,1,52.7,130.16Zm0-36a1.77,1.77,0,1,1,1.77,1.77A1.77,1.77,0,0,1,52.7,94.16Zm0-36a1.77,1.77,0,1,1,1.77,1.77A1.77,1.77,0,0,1,52.7,58.16Zm0-36a1.77,1.77,0,1,1,1.77,1.77A1.77,1.77,0,0,1,52.7,22.16Z"/><path class="cls-2" d="M1.44,148.12a1.14,1.14,0,0,1-1.12-.9.75.75,0,0,1,0-.26v-.38a2,2,0,0,0,1.68-2,2,2,0,0,0-1.68-2v-3.17a2,2,0,0,0,1.68-2,2,2,0,0,0-1.68-2v-3.17a2,2,0,0,0,1.68-2,2,2,0,0,0-1.68-2V125A2,2,0,0,0,2,123a2,2,0,0,0-1.68-2v-3.17a2,2,0,0,0,1.68-2,2,2,0,0,0-1.68-2v-3.17a2,2,0,0,0,1.68-2,2,2,0,0,0-1.68-2v-3.17a2,2,0,0,0,1.68-2,2,2,0,0,0-1.68-2V96.18a2,2,0,0,0,1.68-2,2,2,0,0,0-1.68-2V89A2,2,0,0,0,2,87,2,2,0,0,0,.28,85V81.78a2,2,0,0,0,1.68-2,2,2,0,0,0-1.68-2V74.58a2,2,0,0,0,1.68-2,2,2,0,0,0-1.68-2V67.38a2,2,0,0,0,1.68-2,2,2,0,0,0-1.68-2V60.18a2,2,0,0,0,1.68-2,2,2,0,0,0-1.68-2V53A2,2,0,0,0,2,51,2,2,0,0,0,.28,49V45.78a2,2,0,0,0,1.68-2,2,2,0,0,0-1.68-2V38.58a2,2,0,0,0,1.68-2,2,2,0,0,0-1.68-2V31.38a2,2,0,0,0,1.68-2,2,2,0,0,0-1.68-2V24.18a2,2,0,0,0,1.68-2,2,2,0,0,0-1.68-2V17A2,2,0,0,0,2,15,2,2,0,0,0,.28,13V9.78A2,2,0,0,0,2,7.76a2,2,0,0,0-1.68-2V5.48a1,1,0,0,1,0-.32,1.15,1.15,0,0,1,1.11-.83h55.8a1.14,1.14,0,0,1,1.1.81.93.93,0,0,1,.06.34v.29a2,2,0,0,0,0,4V13a2,2,0,0,0,0,4v3.21a2,2,0,0,0,0,4v3.21a2,2,0,0,0,0,4v3.21a2,2,0,0,0,0,4v3.21a2,2,0,0,0,0,4V49a2,2,0,0,0,0,4v3.21a2,2,0,0,0,0,4v3.21a2,2,0,0,0,0,4v3.21a2,2,0,0,0,0,4v3.21a2,2,0,0,0,0,4V85a2,2,0,0,0,0,4v3.21a2,2,0,0,0,0,4v3.21a2,2,0,0,0,0,4v3.21a2,2,0,0,0,0,4v3.21a2,2,0,0,0,0,4V121a2,2,0,0,0,0,4v3.21a2,2,0,0,0,0,4v3.21a2,2,0,0,0,0,4v3.21a2,2,0,0,0,0,4v.4a.71.71,0,0,1,0,.23,1.15,1.15,0,0,1-1.13.93Zm53-5.61a2.06,2.06,0,1,0,2.05,2.05A2.05,2.05,0,0,0,54.47,142.51Zm-50.17,0a2.06,2.06,0,1,0,2.05,2.05A2.05,2.05,0,0,0,4.3,142.51Zm50.17-7.2a2.06,2.06,0,1,0,2.05,2.05A2.05,2.05,0,0,0,54.47,135.31Zm-50.17,0a2.06,2.06,0,1,0,2.05,2.05A2.05,2.05,0,0,0,4.3,135.31Zm50.17-7.2a2.06,2.06,0,1,0,2.05,2A2.05,2.05,0,0,0,54.47,128.11Zm-50.17,0a2.06,2.06,0,1,0,2.05,2A2.05,2.05,0,0,0,4.3,128.11Zm50.17-7.2a2.06,2.06,0,1,0,2.05,2A2.05,2.05,0,0,0,54.47,120.91Zm-50.17,0a2.06,2.06,0,1,0,2.05,2A2.05,2.05,0,0,0,4.3,120.91Zm50.17-7.2a2.06,2.06,0,1,0,2.05,2.05A2.05,2.05,0,0,0,54.47,113.71Zm-50.17,0a2.06,2.06,0,1,0,2.05,2.05A2.05,2.05,0,0,0,4.3,113.71Zm50.17-7.2a2.06,2.06,0,1,0,2.05,2A2.05,2.05,0,0,0,54.47,106.51Zm-50.17,0a2.06,2.06,0,1,0,2.05,2A2.05,2.05,0,0,0,4.3,106.51Zm50.17-7.2a2.06,2.06,0,1,0,2.05,2A2.05,2.05,0,0,0,54.47,99.31Zm-50.17,0a2.06,2.06,0,1,0,2.05,2A2.05,2.05,0,0,0,4.3,99.31Zm50.17-7.2a2.06,2.06,0,1,0,2.05,2A2.05,2.05,0,0,0,54.47,92.11Zm-50.17,0a2.06,2.06,0,1,0,2.05,2A2.05,2.05,0,0,0,4.3,92.11Zm50.17-7.2a2.06,2.06,0,1,0,2.05,2A2.05,2.05,0,0,0,54.47,84.91Zm-50.17,0a2.06,2.06,0,1,0,2.05,2A2.05,2.05,0,0,0,4.3,84.91Zm50.17-7.2a2.06,2.06,0,1,0,2.05,2.05A2.05,2.05,0,0,0,54.47,77.71Zm-50.17,0a2.06,2.06,0,1,0,2.05,2.05A2.05,2.05,0,0,0,4.3,77.71Zm50.17-7.2a2.06,2.06,0,1,0,2.05,2A2.05,2.05,0,0,0,54.47,70.51Zm-50.17,0a2.06,2.06,0,1,0,2.05,2A2.05,2.05,0,0,0,4.3,70.51Zm50.17-7.2a2.06,2.06,0,1,0,2.05,2A2.05,2.05,0,0,0,54.47,63.31Zm-50.17,0a2.06,2.06,0,1,0,2.05,2A2.05,2.05,0,0,0,4.3,63.31Zm50.17-7.2a2.06,2.06,0,1,0,2.05,2A2.05,2.05,0,0,0,54.47,56.11Zm-50.17,0a2.06,2.06,0,1,0,2.05,2A2.05,2.05,0,0,0,4.3,56.11Zm50.17-7.2A2.06,2.06,0,1,0,56.52,51,2.05,2.05,0,0,0,54.47,48.91Zm-50.17,0A2.06,2.06,0,1,0,6.35,51,2.05,2.05,0,0,0,4.3,48.91Zm50.17-7.2a2.06,2.06,0,1,0,2.05,2A2.05,2.05,0,0,0,54.47,41.71Zm-50.17,0a2.06,2.06,0,1,0,2.05,2A2.05,2.05,0,0,0,4.3,41.71Zm50.17-7.2a2.06,2.06,0,1,0,2.05,2.05A2.05,2.05,0,0,0,54.47,34.51Zm-50.17,0a2.06,2.06,0,1,0,2.05,2.05A2.05,2.05,0,0,0,4.3,34.51Zm50.17-7.2a2.06,2.06,0,1,0,2.05,2.05A2.05,2.05,0,0,0,54.47,27.31Zm-50.17,0a2.06,2.06,0,1,0,2.05,2.05A2.05,2.05,0,0,0,4.3,27.31Zm50.17-7.2a2.06,2.06,0,1,0,2.05,2.05A2.05,2.05,0,0,0,54.47,20.11Zm-50.17,0a2.06,2.06,0,1,0,2.05,2.05A2.05,2.05,0,0,0,4.3,20.11Zm50.17-7.2A2.06,2.06,0,1,0,56.52,15,2.05,2.05,0,0,0,54.47,12.91Zm-50.17,0A2.06,2.06,0,1,0,6.35,15,2.05,2.05,0,0,0,4.3,12.91Zm50.17-7.2a2.06,2.06,0,1,0,2.05,2.05A2.05,2.05,0,0,0,54.47,5.71ZM4.3,5.71A2.06,2.06,0,1,0,6.35,7.76,2.05,2.05,0,0,0,4.3,5.71Z"/><g id="Pads"><path class="cls-3" d="M6.46,5.84a2.71,2.71,0,0,0-1.92-.79H.07A1.21,1.21,0,0,0,0,5.48V6A1.75,1.75,0,0,1,1.68,7.76,1.75,1.75,0,0,1,0,9.52v1H4.54A2.72,2.72,0,0,0,6.46,5.84ZM4.3,9.53A1.77,1.77,0,1,1,6.07,7.76,1.77,1.77,0,0,1,4.3,9.53Z"/><path class="cls-3" d="M6.46,13a2.71,2.71,0,0,0-1.92-.79H0v.95A1.75,1.75,0,0,1,1.68,15,1.75,1.75,0,0,1,0,16.72v1H4.54A2.72,2.72,0,0,0,6.46,13ZM4.3,16.73A1.77,1.77,0,1,1,6.07,15,1.77,1.77,0,0,1,4.3,16.73Z"/><path class="cls-3" d="M0,19.45v.95a1.75,1.75,0,0,1,1.68,1.76A1.75,1.75,0,0,1,0,23.92v.95H7.25V19.45Zm4.3,4.48a1.77,1.77,0,1,1,1.77-1.77A1.77,1.77,0,0,1,4.3,23.93Z"/><path class="cls-3" d="M6.46,27.44a2.71,2.71,0,0,0-1.92-.79H0v1a1.75,1.75,0,0,1,1.68,1.76A1.75,1.75,0,0,1,0,31.12v.95H4.54a2.72,2.72,0,0,0,1.92-4.63ZM4.3,31.13a1.77,1.77,0,1,1,1.77-1.77A1.77,1.77,0,0,1,4.3,31.13Z"/><path class="cls-3" d="M6.46,34.64a2.71,2.71,0,0,0-1.92-.79H0v.95a1.75,1.75,0,0,1,1.68,1.76A1.75,1.75,0,0,1,0,38.32v1H4.54a2.72,2.72,0,0,0,1.92-4.63ZM4.3,38.33a1.77,1.77,0,1,1,1.77-1.77A1.77,1.77,0,0,1,4.3,38.33Z"/><path class="cls-3" d="M6.46,41.84a2.71,2.71,0,0,0-1.92-.79H0v1a1.75,1.75,0,0,1,1.68,1.76A1.75,1.75,0,0,1,0,45.52v.95H4.54a2.72,2.72,0,0,0,1.92-4.63ZM4.3,45.53a1.77,1.77,0,1,1,1.77-1.77A1.77,1.77,0,0,1,4.3,45.53Z"/><path class="cls-3" d="M6.46,49a2.71,2.71,0,0,0-1.92-.79H0v1A1.75,1.75,0,0,1,1.68,51,1.75,1.75,0,0,1,0,52.72v1H4.54A2.72,2.72,0,0,0,6.46,49ZM4.3,52.73A1.77,1.77,0,1,1,6.07,51,1.77,1.77,0,0,1,4.3,52.73Z"/><path class="cls-3" d="M0,55.45v.95a1.75,1.75,0,0,1,1.68,1.76A1.75,1.75,0,0,1,0,59.92v.95H7.25V55.45Zm4.3,4.48a1.77,1.77,0,1,1,1.77-1.77A1.77,1.77,0,0,1,4.3,59.93Z"/><path class="cls-3" d="M6.46,63.44a2.71,2.71,0,0,0-1.92-.79H0v1a1.75,1.75,0,0,1,1.68,1.76A1.75,1.75,0,0,1,0,67.12v.95H4.54a2.72,2.72,0,0,0,1.92-4.63ZM4.3,67.13a1.77,1.77,0,1,1,1.77-1.77A1.77,1.77,0,0,1,4.3,67.13Z"/><path class="cls-3" d="M6.46,70.64a2.71,2.71,0,0,0-1.92-.79H0v1a1.75,1.75,0,0,1,1.68,1.76A1.75,1.75,0,0,1,0,74.32v1H4.54a2.72,2.72,0,0,0,1.92-4.63ZM4.3,74.33a1.77,1.77,0,1,1,1.77-1.77A1.77,1.77,0,0,1,4.3,74.33Z"/><path class="cls-3" d="M6.46,77.84a2.71,2.71,0,0,0-1.92-.79H0v1a1.75,1.75,0,0,1,1.68,1.76A1.75,1.75,0,0,1,0,81.52v1H4.54a2.72,2.72,0,0,0,1.92-4.63ZM4.3,81.53a1.77,1.77,0,1,1,1.77-1.77A1.77,1.77,0,0,1,4.3,81.53Z"/><path class="cls-3" d="M6.46,85a2.71,2.71,0,0,0-1.92-.79H0v1A1.75,1.75,0,0,1,1.68,87,1.75,1.75,0,0,1,0,88.72v1H4.54A2.72,2.72,0,0,0,6.46,85ZM4.3,88.73A1.77,1.77,0,1,1,6.07,87,1.77,1.77,0,0,1,4.3,88.73Z"/><path class="cls-3" d="M0,91.45v1a1.75,1.75,0,0,1,1.68,1.76A1.75,1.75,0,0,1,0,95.92v1H7.25V91.45Zm4.3,4.48a1.77,1.77,0,1,1,1.77-1.77A1.77,1.77,0,0,1,4.3,95.93Z"/><path class="cls-3" d="M6.46,99.44a2.71,2.71,0,0,0-1.92-.79H0v.95a1.75,1.75,0,0,1,1.68,1.76A1.75,1.75,0,0,1,0,103.12v.95H4.54a2.72,2.72,0,0,0,1.92-4.63ZM4.3,103.13a1.77,1.77,0,1,1,1.77-1.77A1.77,1.77,0,0,1,4.3,103.13Z"/><path class="cls-3" d="M6.46,106.64a2.71,2.71,0,0,0-1.92-.79H0v1a1.75,1.75,0,0,1,1.68,1.76A1.75,1.75,0,0,1,0,110.32v1H4.54a2.72,2.72,0,0,0,1.92-4.63ZM4.3,110.33a1.77,1.77,0,1,1,1.77-1.77A1.77,1.77,0,0,1,4.3,110.33Z"/><path class="cls-3" d="M6.46,113.84a2.71,2.71,0,0,0-1.92-.79H0v1a1.75,1.75,0,0,1,1.68,1.76A1.75,1.75,0,0,1,0,117.52v1H4.54a2.72,2.72,0,0,0,1.92-4.63ZM4.3,117.53a1.77,1.77,0,1,1,1.77-1.77A1.77,1.77,0,0,1,4.3,117.53Z"/><path class="cls-3" d="M6.46,121a2.71,2.71,0,0,0-1.92-.79H0v1A1.75,1.75,0,0,1,1.68,123,1.75,1.75,0,0,1,0,124.72v1H4.54A2.72,2.72,0,0,0,6.46,121ZM4.3,124.73A1.77,1.77,0,1,1,6.07,123,1.77,1.77,0,0,1,4.3,124.73Z"/><path class="cls-3" d="M0,127.45v1a1.75,1.75,0,0,1,1.68,1.76A1.75,1.75,0,0,1,0,131.92v1H7.25v-5.42Zm4.3,4.48a1.77,1.77,0,1,1,1.77-1.77A1.77,1.77,0,0,1,4.3,131.93Z"/><path class="cls-3" d="M6.46,135.44a2.71,2.71,0,0,0-1.92-.79H0v.95a1.75,1.75,0,0,1,1.68,1.76A1.75,1.75,0,0,1,0,139.12v.95H4.54a2.72,2.72,0,0,0,1.92-4.63ZM4.3,139.13a1.77,1.77,0,1,1,1.77-1.77A1.77,1.77,0,0,1,4.3,139.13Z"/><path class="cls-3" d="M6.46,142.64a2.71,2.71,0,0,0-1.92-.79H0v1a1.75,1.75,0,0,1,1.68,1.76A1.75,1.75,0,0,1,0,146.32V147a1.06,1.06,0,0,0,0,.31h4.5a2.72,2.72,0,0,0,1.92-4.63ZM4.3,146.33a1.77,1.77,0,1,1,1.77-1.77A1.77,1.77,0,0,1,4.3,146.33Z"/><path class="cls-3" d="M58.68,6V5.48a1.21,1.21,0,0,0-.07-.43H54.23a2.71,2.71,0,1,0,0,5.42h4.45v-1a1.76,1.76,0,0,1,0-3.5ZM54.47,9.53a1.77,1.77,0,1,1,1.77-1.77A1.77,1.77,0,0,1,54.47,9.53Z"/><path class="cls-3" d="M58.68,13.21v-1H54.23a2.71,2.71,0,1,0,0,5.42h4.45v-1a1.76,1.76,0,0,1,0-3.5Zm-4.21,3.52A1.77,1.77,0,1,1,56.24,15,1.77,1.77,0,0,1,54.47,16.73Z"/><path class="cls-3" d="M58.68,20.41v-1H51.52v5.42h7.16v-1a1.76,1.76,0,0,1,0-3.5Zm-4.21,3.52a1.77,1.77,0,1,1,1.77-1.77A1.77,1.77,0,0,1,54.47,23.93Z"/><path class="cls-3" d="M58.68,27.61v-1H54.23a2.71,2.71,0,1,0,0,5.42h4.45v-1a1.76,1.76,0,0,1,0-3.5Zm-4.21,3.52a1.77,1.77,0,1,1,1.77-1.77A1.77,1.77,0,0,1,54.47,31.13Z"/><path class="cls-3" d="M58.68,34.81v-1H54.23a2.71,2.71,0,1,0,0,5.42h4.45v-1a1.76,1.76,0,0,1,0-3.5Zm-4.21,3.52a1.77,1.77,0,1,1,1.77-1.77A1.77,1.77,0,0,1,54.47,38.33Z"/><path class="cls-3" d="M58.68,42v-1H54.23a2.71,2.71,0,1,0,0,5.42h4.45v-1a1.76,1.76,0,0,1,0-3.5Zm-4.21,3.52a1.77,1.77,0,1,1,1.77-1.77A1.77,1.77,0,0,1,54.47,45.53Z"/><path class="cls-3" d="M58.68,49.21v-1H54.23a2.71,2.71,0,1,0,0,5.42h4.45v-1a1.76,1.76,0,0,1,0-3.5Zm-4.21,3.52A1.77,1.77,0,1,1,56.24,51,1.77,1.77,0,0,1,54.47,52.73Z"/><path class="cls-3" d="M58.68,56.41v-1H51.52v5.42h7.16v-1a1.76,1.76,0,0,1,0-3.5Zm-4.21,3.52a1.77,1.77,0,1,1,1.77-1.77A1.77,1.77,0,0,1,54.47,59.93Z"/><path class="cls-3" d="M58.68,63.61v-1H54.23a2.71,2.71,0,0,0,0,5.42h4.45v-1a1.76,1.76,0,0,1,0-3.5Zm-4.21,3.52a1.77,1.77,0,1,1,1.77-1.77A1.77,1.77,0,0,1,54.47,67.13Z"/><path class="cls-3" d="M58.68,70.81v-1H54.23a2.71,2.71,0,1,0,0,5.42h4.45v-1a1.76,1.76,0,0,1,0-3.5Zm-4.21,3.52a1.77,1.77,0,1,1,1.77-1.77A1.77,1.77,0,0,1,54.47,74.33Z"/><path class="cls-3" d="M58.68,78v-1H54.23a2.71,2.71,0,1,0,0,5.42h4.45v-1a1.76,1.76,0,0,1,0-3.5Zm-4.21,3.52a1.77,1.77,0,1,1,1.77-1.77A1.77,1.77,0,0,1,54.47,81.53Z"/><path class="cls-3" d="M58.68,85.21v-1H54.23a2.71,2.71,0,1,0,0,5.42h4.45v-1a1.76,1.76,0,0,1,0-3.5Zm-4.21,3.52A1.77,1.77,0,1,1,56.24,87,1.77,1.77,0,0,1,54.47,88.73Z"/><path class="cls-3" d="M58.68,92.41v-1H51.52v5.42h7.16v-1a1.76,1.76,0,0,1,0-3.5Zm-4.21,3.52a1.77,1.77,0,1,1,1.77-1.77A1.77,1.77,0,0,1,54.47,95.93Z"/><path class="cls-3" d="M58.68,99.61v-1H54.23a2.71,2.71,0,0,0,0,5.42h4.45v-1a1.76,1.76,0,0,1,0-3.5Zm-4.21,3.52a1.77,1.77,0,1,1,1.77-1.77A1.77,1.77,0,0,1,54.47,103.13Z"/><path class="cls-3" d="M58.68,106.81v-1H54.23a2.71,2.71,0,0,0,0,5.42h4.45v-1a1.76,1.76,0,0,1,0-3.5Zm-4.21,3.52a1.77,1.77,0,1,1,1.77-1.77A1.77,1.77,0,0,1,54.47,110.33Z"/><path class="cls-3" d="M58.68,114v-1H54.23a2.71,2.71,0,0,0,0,5.42h4.45v-1a1.76,1.76,0,0,1,0-3.5Zm-4.21,3.52a1.77,1.77,0,1,1,1.77-1.77A1.77,1.77,0,0,1,54.47,117.53Z"/><path class="cls-3" d="M58.68,121.21v-1H54.23a2.71,2.71,0,1,0,0,5.42h4.45v-1a1.76,1.76,0,0,1,0-3.5Zm-4.21,3.52A1.77,1.77,0,1,1,56.24,123,1.77,1.77,0,0,1,54.47,124.73Z"/><path class="cls-3" d="M58.68,128.41v-1H51.52v5.42h7.16v-1a1.76,1.76,0,0,1,0-3.5Zm-4.21,3.52a1.77,1.77,0,1,1,1.77-1.77A1.77,1.77,0,0,1,54.47,131.93Z"/><path class="cls-3" d="M58.68,135.61v-1H54.23a2.71,2.71,0,0,0,0,5.42h4.45v-1a1.76,1.76,0,0,1,0-3.5Zm-4.21,3.52a1.77,1.77,0,1,1,1.77-1.77A1.77,1.77,0,0,1,54.47,139.13Z"/><path class="cls-3" d="M58.68,142.81v-1H54.23a2.71,2.71,0,1,0,0,5.42h4.41a1.06,1.06,0,0,0,0-.31v-.65a1.76,1.76,0,0,1,0-3.5Zm-4.21,3.52a1.77,1.77,0,1,1,1.77-1.77A1.77,1.77,0,0,1,54.47,146.33Z"/></g><g id="RP2040"><g id="Pico_2040" data-name="Pico 2040"><rect class="cls-4" x="19.1" y="66.17" width="19.97" height="19.97"/></g><g id="Silkscreen"><path class="cls-5" d="M21.4,81.59h-.28v.64h-.2V80.66h.44a.46.46,0,0,1,.35.12.48.48,0,0,1,.12.35.46.46,0,0,1-.07.26.4.4,0,0,1-.18.16l.31.66v0h-.21Zm-.28-.16h.24a.28.28,0,0,0,.2-.08.32.32,0,0,0,.07-.22q0-.3-.27-.3h-.24v.6Z"/><path class="cls-5" d="M22.51,81.61v.62h-.2V80.66h.5a.46.46,0,0,1,.34.13.55.55,0,0,1,0,.7.45.45,0,0,1-.34.12Zm0-.16h.3a.26.26,0,0,0,.2-.08.33.33,0,0,0,.07-.23.31.31,0,0,0-.07-.22.24.24,0,0,0-.2-.09h-.3Z"/><path class="cls-5" d="M24.58,82.23h-.87v-.15l.44-.59a.85.85,0,0,0,.14-.22.41.41,0,0,0,0-.19.39.39,0,0,0,0-.2.19.19,0,0,0-.16-.08.2.2,0,0,0-.18.09.37.37,0,0,0-.07.23h-.19a.51.51,0,0,1,.12-.35.44.44,0,0,1,.32-.13.38.38,0,0,1,.3.12.4.4,0,0,1,.1.3,1,1,0,0,1-.24.55l-.34.45h.64v.17Z"/><path class="cls-5" d="M25.38,81.64h-.44v-.16h.44Z"/><path class="cls-5" d="M26.58,81.07a.36.36,0,0,1,0,.21.32.32,0,0,1-.14.14.44.44,0,0,1,.17.16.51.51,0,0,1,.05.22.44.44,0,0,1-.11.33.41.41,0,0,1-.3.12.41.41,0,0,1-.31-.12.49.49,0,0,1-.11-.33.41.41,0,0,1,.22-.38.32.32,0,0,1-.14-.14.36.36,0,0,1-.05-.21.43.43,0,0,1,.1-.31.38.38,0,0,1,.29-.12.36.36,0,0,1,.28.12A.43.43,0,0,1,26.58,81.07Zm-.16.73a.38.38,0,0,0-.06-.22.21.21,0,0,0-.17-.08.18.18,0,0,0-.16.09A.4.4,0,0,0,26,82a.2.2,0,0,0,.17.08.21.21,0,0,0,.17-.08A.41.41,0,0,0,26.42,81.8Zm0-.73a.29.29,0,0,0-.06-.19.19.19,0,0,0-.14-.08.19.19,0,0,0-.15.08.36.36,0,0,0-.05.19.37.37,0,0,0,.05.2.18.18,0,0,0,.15.07.15.15,0,0,0,.14-.07A.32.32,0,0,0,26.4,81.07Z"/><path class="cls-5" d="M27.92,81.56a1,1,0,0,1-.1.52.35.35,0,0,1-.32.17.34.34,0,0,1-.31-.17,1,1,0,0,1-.11-.49v-.27a1,1,0,0,1,.11-.51.33.33,0,0,1,.31-.17.33.33,0,0,1,.31.16.91.91,0,0,1,.11.49Zm-.19-.27a1.09,1.09,0,0,0-.05-.37.19.19,0,0,0-.18-.12.18.18,0,0,0-.17.12.79.79,0,0,0-.06.35v.32a.86.86,0,0,0,.06.37.2.2,0,0,0,.17.13.17.17,0,0,0,.17-.12.84.84,0,0,0,.06-.36Z"/><path class="cls-5" d="M32.16,82.23h-.87v-.15l.44-.59a.85.85,0,0,0,.14-.22.41.41,0,0,0,0-.19.32.32,0,0,0-.06-.2.16.16,0,0,0-.15-.08.2.2,0,0,0-.18.09.32.32,0,0,0-.07.23h-.19a.51.51,0,0,1,.12-.35.44.44,0,0,1,.32-.13.39.39,0,0,1,.3.12.4.4,0,0,1,.1.3,1,1,0,0,1-.24.55l-.35.45h.65v.17Z"/><path class="cls-5" d="M33.43,81.56a1,1,0,0,1-.1.52.35.35,0,0,1-.32.17.34.34,0,0,1-.31-.17.91.91,0,0,1-.11-.49v-.27a1.09,1.09,0,0,1,.1-.51.36.36,0,0,1,.32-.17.34.34,0,0,1,.31.16.91.91,0,0,1,.11.49Zm-.19-.27a.86.86,0,0,0-.06-.37.18.18,0,0,0-.34,0,.79.79,0,0,0-.06.35v.32a.86.86,0,0,0,.06.37.19.19,0,0,0,.17.13.17.17,0,0,0,.17-.12.84.84,0,0,0,.06-.36Z"/><path class="cls-5" d="M34,82.36h-.16l.55-1.7h.16Z"/><path class="cls-5" d="M35.81,82.23h-.88v-.15l.45-.59a1.27,1.27,0,0,0,.14-.22.41.41,0,0,0,0-.19.32.32,0,0,0-.06-.2.19.19,0,0,0-.15-.08.2.2,0,0,0-.18.09.32.32,0,0,0-.07.23h-.19a.51.51,0,0,1,.12-.35.43.43,0,0,1,.32-.13.39.39,0,0,1,.4.42,1,1,0,0,1-.24.55l-.35.45h.65v.17Z"/><path class="cls-5" d="M36.81,82.23h-.19V80.9l-.33.15v-.18l.49-.21h0Z"/><path class="cls-5" d="M21.09,84.11v.62h-.2V83.16h.5a.5.5,0,0,1,.35.13.51.51,0,0,1,.12.35.48.48,0,0,1-.12.35.45.45,0,0,1-.33.12Zm0-.16h.3a.25.25,0,0,0,.2-.08.33.33,0,0,0,.07-.23.31.31,0,0,0-.07-.22.24.24,0,0,0-.2-.09h-.3Z"/><path class="cls-5" d="M23,83.16v.17h0a.4.4,0,0,0-.3.13.62.62,0,0,0-.12.37.32.32,0,0,1,.27-.13.33.33,0,0,1,.27.14.63.63,0,0,1,.1.38.6.6,0,0,1-.11.39.36.36,0,0,1-.3.14.37.37,0,0,1-.31-.17.83.83,0,0,1-.11-.45v-.07a1.48,1.48,0,0,1,.07-.52.5.5,0,0,1,.2-.28.62.62,0,0,1,.34-.1Zm-.22.71a.22.22,0,0,0-.14.06.27.27,0,0,0-.09.15v.07a.68.68,0,0,0,.06.31c.05.08.1.12.17.12a.2.2,0,0,0,.17-.09.53.53,0,0,0,.06-.26A.48.48,0,0,0,22.9,84,.19.19,0,0,0,22.73,83.87Z"/><path class="cls-5" d="M24.32,84.2h.17v.16h-.17v.37h-.19v-.37h-.59v-.11l.58-1.09h.2v1Zm-.57,0h.38v-.74Z"/><path class="cls-5" d="M25.2,83.16l.41,1.28L26,83.16h.25v1.57h-.2v-.61l0-.61-.41,1.22h-.15l-.41-1.22,0,.61v.61H25V83.16Z"/><path class="cls-5" d="M27.35,84.73h-.19V83.4l-.33.15v-.18l.49-.21h0Z"/><path class="cls-5" d="M28.17,83.94l.07-.78h.68v.19H28.4l0,.42a.37.37,0,0,1,.21-.06.3.3,0,0,1,.28.14.71.71,0,0,1,0,.76.4.4,0,0,1-.32.14.36.36,0,0,1-.28-.12.44.44,0,0,1-.13-.31h.18a.37.37,0,0,0,.08.2.21.21,0,0,0,.15.07.21.21,0,0,0,.18-.1.48.48,0,0,0,.06-.26A.39.39,0,0,0,28.7,84a.21.21,0,0,0-.18-.1.25.25,0,0,0-.15.05l-.05,0Z"/><path class="cls-5" d="M29.43,84.62a.11.11,0,0,1,0-.08.12.12,0,0,1,.18,0,.11.11,0,0,1,0,.08.14.14,0,0,1,0,.09.15.15,0,0,1-.18,0A.14.14,0,0,1,29.43,84.62Z"/><path class="cls-5" d="M31,84.06a1,1,0,0,1-.1.52.35.35,0,0,1-.32.17.34.34,0,0,1-.31-.17,1,1,0,0,1-.11-.49v-.27a1,1,0,0,1,.11-.51.33.33,0,0,1,.31-.17.35.35,0,0,1,.32.16,1,1,0,0,1,.1.49Zm-.19-.27a1.09,1.09,0,0,0-.05-.37.19.19,0,0,0-.18-.12.18.18,0,0,0-.17.12.79.79,0,0,0-.06.35v.32a.86.86,0,0,0,.06.37.2.2,0,0,0,.17.13.17.17,0,0,0,.17-.12.84.84,0,0,0,.06-.36Z"/><path class="cls-5" d="M32.34,84.06a1.17,1.17,0,0,1-.1.52.36.36,0,0,1-.32.17.34.34,0,0,1-.31-.17.91.91,0,0,1-.11-.49v-.27a1,1,0,0,1,.1-.51.35.35,0,0,1,.32-.17.34.34,0,0,1,.31.16,1,1,0,0,1,.11.49Zm-.19-.27a.86.86,0,0,0-.06-.37.18.18,0,0,0-.34,0,.79.79,0,0,0-.06.35v.32a.86.86,0,0,0,.06.37.18.18,0,0,0,.34,0,.84.84,0,0,0,.06-.36Z"/><path class="cls-5" d="M34.45,83.33H34v1.4h-.19v-1.4h-.41v-.17h1v.17Z"/><path class="cls-5" d="M35.83,83.33h-.41v1.4h-.2v-1.4h-.41v-.17h1v.17Z"/><path class="cls-5" d="M37.21,83.33H36.8v1.4h-.2v-1.4h-.41v-.17h1v.17Z"/></g><g id="Chip_print" data-name="Chip print"><path class="cls-5" d="M32.6,74l-.09-.13a1.63,1.63,0,0,0-1-1.62c.15-.05.31-.09.36-.28.27-.06.31-.18.35-.31s.31-.19.27-.4a.33.33,0,0,0,.17-.37c.15-.15.19-.27.13-.4a.31.31,0,0,0,0-.44c.12-.23,0-.48-.34-.44-.14-.21-.44-.16-.5-.16a.32.32,0,0,0-.33-.11.43.43,0,0,0-.46,0c-.19-.15-.32,0-.46,0a.41.41,0,0,0-.4.06c-.25-.06-.33.07-.46.19h-.15a1.74,1.74,0,0,0-.64.9,1.5,1.5,0,0,0-.65-.9h-.15a.44.44,0,0,0-.46-.19c-.1,0-.16-.14-.39-.06a1.67,1.67,0,0,0-.3-.08h0a.38.38,0,0,0-.18.06.42.42,0,0,0-.46,0c-.21,0-.3,0-.34.11s-.35,0-.5.16c-.36,0-.46.21-.33.44-.07.11-.15.21,0,.44-.07.13,0,.25.12.4a.34.34,0,0,0,.17.37c0,.23.21.36.27.4s.08.25.36.31c0,.19.2.23.35.28a1.65,1.65,0,0,0-1,1.62L25.6,74a1.6,1.6,0,0,0-.3,2.42,5.79,5.79,0,0,0,.23.73,1.88,1.88,0,0,0,1.13,1.43,4.53,4.53,0,0,0,1.07.6,1.79,1.79,0,0,0,1.31.59h0a1.81,1.81,0,0,0,1.32-.59,3.43,3.43,0,0,0,1.07-.6,1.78,1.78,0,0,0,1.12-1.43,3.7,3.7,0,0,0,.23-.73A1.54,1.54,0,0,0,32.6,74Zm-.44-.17c0,.38-2-1.33-1.7-1.4A1.36,1.36,0,0,1,32.16,73.87Zm-.9,1.9a1.28,1.28,0,0,1-1.4-2.11,1.2,1.2,0,0,1,1.61.46A1.17,1.17,0,0,1,31.26,75.77Zm-1.38-5.91c0,.09,0,.15.06.15a2.9,2.9,0,0,1,.34-.36c0,.07-.05.15,0,.19a1.37,1.37,0,0,1,.31-.27.13.13,0,0,0,0,.19,1.1,1.1,0,0,1,.4-.25c-.06.06-.13.12,0,.21a1.19,1.19,0,0,1,.48-.19c-.06.06-.19.12-.11.19a2.37,2.37,0,0,1,.46-.11c-.08.06-.14.13-.08.19a1.06,1.06,0,0,1,.54-.06l-.12.12a2.4,2.4,0,0,0,.48,0,1.35,1.35,0,0,0-.19.38s.13,0,.21,0c-.11.21-.27.25-.29.33a.23.23,0,0,0,.23,0c-.07.15-.21.23-.34.36a.28.28,0,0,0,.21,0,2.53,2.53,0,0,1-.38.31,1.58,1.58,0,0,0,.21,0,2.15,2.15,0,0,1-.48.3.29.29,0,0,0,.21,0,1.79,1.79,0,0,1-.5.21c0,.06.06.06.15.08-.19.11-.48.06-.57.11s.07.08.15.12c-.31,0-1.17,0-1.34-.67a6.8,6.8,0,0,1,1.92-1.27,6.16,6.16,0,0,0-2.09,1.11C29,71,29.52,70.2,29.88,69.86Zm-.71,2.36h0c.5,0,1.11.36,1.11.71s-.44.57-1.11.55-1.11-.32-1.11-.61S28.6,72.2,29.17,72.22ZM26.64,72c.08,0,.11,0,.15-.08a1.79,1.79,0,0,1-.5-.21.26.26,0,0,0,.2,0,2.73,2.73,0,0,1-.48-.3c.09,0,.19,0,.21,0a1.39,1.39,0,0,1-.37-.31.31.31,0,0,0,.21,0,2.9,2.9,0,0,1-.34-.36c.09,0,.17,0,.23,0s-.21-.14-.29-.33c.08,0,.19,0,.21,0a1.35,1.35,0,0,0-.19-.38,2.28,2.28,0,0,0,.48,0L26,69.74a.89.89,0,0,1,.54.06c.06,0,0-.11-.09-.19a2.07,2.07,0,0,1,.46.11c.07-.07,0-.13-.1-.19a1,1,0,0,1,.48.19c.08-.09,0-.15,0-.21a1.1,1.1,0,0,1,.4.25.13.13,0,0,0,0-.19.84.84,0,0,1,.31.27c.08-.06,0-.12,0-.19a1.92,1.92,0,0,1,.34.36.31.31,0,0,0,.06-.15c.33.34.81,1.15.12,1.46a6.5,6.5,0,0,0-2.09-1.1,7.19,7.19,0,0,1,1.93,1.27c-.17.65-1,.69-1.34.67a.22.22,0,0,0,.15-.13A1.54,1.54,0,0,1,26.64,72Zm1.23.5c.36.06-1.65,1.78-1.69,1.4A1.36,1.36,0,0,1,27.87,72.45Zm-2.11,3.83a1.28,1.28,0,0,1,.25-2C26.56,74.12,26.2,76.48,25.76,76.28Zm1.86,2a1.18,1.18,0,0,1-1.42-.56c-.31-.57-.27-1.13-.06-1.3s.86.07,1.25.53S27.92,78.09,27.62,78.3Zm-.54-2.46a1.28,1.28,0,1,1,1.61-.46A1.19,1.19,0,0,1,27.08,75.84Zm2.09,3.61A1.32,1.32,0,0,1,28,78.78c0-.25.73-.46,1.21-.46s1.15.15,1.15.4S29.75,79.45,29.17,79.45Zm1.21-2.57A1.16,1.16,0,0,1,29.17,78,1.15,1.15,0,0,1,28,76.88v0a1.16,1.16,0,0,1,1.21-1.11,1.18,1.18,0,0,1,1.21,1.13Zm1.69.88c-.52.71-1.21.73-1.48.54s-.06-1,.31-1.48h0c.44-.48.9-.8,1.21-.54A1.34,1.34,0,0,1,32.07,77.76Zm.46-1.51c-.44.19-.79-2.15-.25-2A1.26,1.26,0,0,1,32.53,76.25Z"/></g></g><g id="Bootsel"><rect class="cls-6" x="22.66" y="37.33" width="2.27" height="3.69" rx="0.23"/><rect class="cls-6" x="22.66" y="49.52" width="2.27" height="3.69" rx="0.23"/><rect class="cls-6" x="16.56" y="37.33" width="2.27" height="3.69" rx="0.23"/><rect class="cls-6" x="16.56" y="49.52" width="2.27" height="3.69" rx="0.23"/><polygon class="cls-7" points="25.28 39.17 23.79 39.17 17.7 39.17 16.21 39.17 16.21 51.36 17.7 51.36 23.79 51.36 25.28 51.36 25.28 39.17"/><path class="cls-8" d="M23.86,44.13a3.12,3.12,0,1,0-6.23,0V46.4a3.12,3.12,0,1,0,6.23,0Z"/></g><g id="Power"><rect class="cls-6" x="39.74" y="37.33" width="2.27" height="3.69" rx="0.23"/><rect class="cls-6" x="39.74" y="49.52" width="2.27" height="3.69" rx="0.23"/><rect class="cls-6" x="33.64" y="37.33" width="2.27" height="3.69" rx="0.23"/><rect class="cls-6" x="33.64" y="49.52" width="2.27" height="3.69" rx="0.23"/><polygon class="cls-7" points="42.36 39.17 40.87 39.17 34.78 39.17 33.29 39.17 33.29 51.36 34.78 51.36 40.87 51.36 42.36 51.36 42.36 39.17"/><path class="cls-8" d="M40.94,44.13a3.12,3.12,0,1,0-6.23,0V46.4a3.12,3.12,0,1,0,6.23,0Z"/></g><g id="LED_Fault" data-name="LED Fault"><rect class="cls-6" x="15.86" y="28.32" width="6.78" height="2.27" rx="0.23"/><rect class="cls-9" x="16.91" y="28.11" width="4.67" height="2.69" rx="0.43"/><rect class="cls-10" x="17.7" y="28.39" width="3.3" height="2.12"/></g><g id="LED_Battery" data-name="LED Battery"><rect class="cls-6" x="35.68" y="28.32" width="6.78" height="2.27" rx="0.23"/><rect class="cls-9" x="36.74" y="28.11" width="4.67" height="2.69" rx="0.43"/><rect class="cls-10" x="37.52" y="28.39" width="3.3" height="2.12"/></g><g id="LED_VBUS" data-name="LED VBUS"><rect class="cls-6" x="25.72" y="28.32" width="6.78" height="2.27" rx="0.23"/><rect class="cls-9" x="26.77" y="28.11" width="4.67" height="2.69" rx="0.43"/><rect class="cls-11" x="27.56" y="28.11" width="3.3" height="2.69"/></g><g id="USB_Type-C_Connector" data-name="USB Type-C Connector"><rect class="cls-6" x="15.1" y="17.46" width="3.86" height="5.4" rx="1.93"/><rect class="cls-6" x="19.25" y="21.32" width="1.5" height="3.3"/><rect class="cls-6" x="21.51" y="21.32" width="1.5" height="3.3"/><rect class="cls-6" x="35.4" y="21.32" width="1.5" height="3.3"/><rect class="cls-6" x="37.67" y="21.32" width="1.5" height="3.3"/><rect class="cls-6" x="23.79" y="21.17" width="0.88" height="3.45"/><rect class="cls-6" x="25.21" y="21.17" width="0.88" height="3.45"/><rect class="cls-6" x="26.63" y="21.17" width="0.88" height="3.45"/><rect class="cls-6" x="28.04" y="21.17" width="0.88" height="3.45"/><rect class="cls-6" x="29.46" y="21.17" width="0.88" height="3.45"/><rect class="cls-6" x="30.88" y="21.17" width="0.88" height="3.45"/><rect class="cls-6" x="32.3" y="21.17" width="0.88" height="3.45"/><rect class="cls-6" x="33.71" y="21.17" width="0.88" height="3.45"/><rect class="cls-6" x="39.6" y="17.46" width="3.86" height="5.4" rx="1.93"/><rect class="cls-12" x="16.56" y="20.16" width="25.44" height="1.01"/><rect class="cls-6" x="15.1" y="5.72" width="3.86" height="5.4" rx="1.93"/><rect class="cls-6" x="39.6" y="5.72" width="3.86" height="5.4" rx="1.93"/><path class="cls-13" d="M42,.14H16.56V20.67h4.87v-2.8a.85.85,0,0,1,.85-.85h3.5a.85.85,0,0,1,.84.85v2.8H32v-2.8a.85.85,0,0,1,.85-.85h3.5a.85.85,0,0,1,.84.85v2.8H42Z"/></g><g id="JST_Qw_St" data-name="JST Qw&apos;St"><path class="cls-6" d="M14.95,108.87H16.1a.47.47,0,0,1,.47.47v3.13a0,0,0,0,1,0,0h-2.1a0,0,0,0,1,0,0v-3.13A.47.47,0,0,1,14.95,108.87Z"/><path class="cls-6" d="M17.78,108.87h1.15a.47.47,0,0,1,.47.47v3.13a0,0,0,0,1,0,0h-2.1a0,0,0,0,1,0,0v-3.13A.47.47,0,0,1,17.78,108.87Z"/><path class="cls-6" d="M20.62,108.87h1.15a.47.47,0,0,1,.47.47v3.13a0,0,0,0,1,0,0h-2.1a0,0,0,0,1,0,0v-3.13A.47.47,0,0,1,20.62,108.87Z"/><path class="cls-6" d="M23.45,108.87H24.6a.47.47,0,0,1,.47.47v3.13a0,0,0,0,1,0,0H23a0,0,0,0,1,0,0v-3.13A.47.47,0,0,1,23.45,108.87Z"/><polygon class="cls-14" points="28.57 112.47 28.57 120.2 10.98 120.2 10.98 112.47 13.25 112.47 13.25 111.75 26.3 111.75 26.3 112.47 28.57 112.47"/><polygon class="cls-15" points="27.12 115.55 27.12 117.9 26.42 117.9 26.42 119.65 13.12 119.65 13.12 117.9 12.42 117.9 12.42 115.55 13.12 115.55 13.12 113.05 26.42 113.05 26.42 115.55 27.12 115.55"/><rect class="cls-16" x="14.83" y="116.48" width="1.1" height="1.1"/><rect class="cls-16" x="17.66" y="116.48" width="1.1" height="1.1"/><rect class="cls-16" x="20.49" y="116.48" width="1.1" height="1.1"/><rect class="cls-16" x="23.33" y="116.48" width="1.1" height="1.1"/></g><g id="JST_SWD" data-name="JST SWD"><path class="cls-6" d="M36.36,108.87h1.15a.47.47,0,0,1,.47.47v3.13a0,0,0,0,1,0,0h-2.1a0,0,0,0,1,0,0v-3.13A.47.47,0,0,1,36.36,108.87Z"/><path class="cls-6" d="M39.19,108.87h1.15a.47.47,0,0,1,.47.47v3.13a0,0,0,0,1,0,0h-2.1a0,0,0,0,1,0,0v-3.13A.47.47,0,0,1,39.19,108.87Z"/><path class="cls-6" d="M42,108.87h1.15a.47.47,0,0,1,.47.47v3.13a0,0,0,0,1,0,0h-2.1a0,0,0,0,1,0,0v-3.13A.47.47,0,0,1,42,108.87Z"/><polygon class="cls-14" points="47.14 112.47 47.14 120.2 32.39 120.2 32.39 112.47 34.66 112.47 34.66 111.75 44.87 111.75 44.87 112.47 47.14 112.47"/><polygon class="cls-15" points="45.7 115.55 45.7 117.9 45 117.9 45 119.65 34.53 119.65 34.53 117.9 33.83 117.9 33.83 115.55 34.53 115.55 34.53 113.05 45 113.05 45 115.55 45.7 115.55"/><rect class="cls-16" x="36.23" y="116.48" width="1.1" height="1.1"/><rect class="cls-16" x="39.07" y="116.48" width="1.1" height="1.1"/><rect class="cls-16" x="41.9" y="116.48" width="1.1" height="1.1"/></g><g id="Power_JST" data-name="Power JST"><path class="cls-6" d="M25.84,122.32h1.65a.6.6,0,0,1,.6.6v8.8a0,0,0,0,1,0,0H25.24a0,0,0,0,1,0,0v-8.8A.6.6,0,0,1,25.84,122.32Z"/><path class="cls-6" d="M31.51,122.32h1.65a.6.6,0,0,1,.6.6v8.8a0,0,0,0,1,0,0H30.91a0,0,0,0,1,0,0v-8.8A.6.6,0,0,1,31.51,122.32Z"/><polyline class="cls-14" points="41.18 147.66 17.83 147.66 17.83 125.72 20.05 125.72 20.05 130.71 38.96 130.71 38.96 125.72 41.18 125.72"/><rect class="cls-17" x="33.6" y="131.51" width="3.15" height="11.65"/><rect class="cls-17" x="22.26" y="131.51" width="3.15" height="11.65"/></g></svg>