<svg id="Layer_1" data-name="Layer 1" xmlns="http://www.w3.org/2000/svg" viewBox="0 0 51.09 64.14"><defs><style>.cls-1{fill:#e9a104;}.cls-2{fill:#8c8c8c;stroke:#6e6e6e;stroke-width:0.71px;}.cls-2,.cls-6{stroke-linecap:round;stroke-linejoin:round;}.cls-3{fill:#404040;}.cls-4{fill:#bdbdbd;}.cls-5{fill:#fff;}.cls-6{fill:#6e6e6e;stroke:#8c8c8c;stroke-width:0.28px;}</style></defs><path id="PCB" d="M51.06,8.56v-.9a1.14,1.14,0,0,0-1.14-1.14H41.74a2.83,2.83,0,0,1-2-.83L38.62,4.58a2.79,2.79,0,0,0-2-.83H14.42a2.81,2.81,0,0,0-2,.83L11.3,5.69a2.87,2.87,0,0,1-2,.83H1.17A1.14,1.14,0,0,0,0,7.66v.9a1.56,1.56,0,1,1,0,3.12v4.08a1.56,1.56,0,0,1,0,3.12V23a1.56,1.56,0,1,1,0,3.12v4.08a1.56,1.56,0,0,1,0,3.12v4.08a1.56,1.56,0,1,1,0,3.12v4.08a1.56,1.56,0,1,1,0,3.12v4.08a1.56,1.56,0,1,1,0,3.12V59a1.56,1.56,0,1,1,0,3.12V63a1.13,1.13,0,0,0,1.14,1.13h15.6v0a1.56,1.56,0,0,1,3.12,0v0H24v0a1.56,1.56,0,0,1,3.12,0v0h4.08v0a1.56,1.56,0,0,1,3.12,0v0H49.92A1.13,1.13,0,0,0,51.06,63v-.91a1.56,1.56,0,0,1,0-3.12V54.88a1.56,1.56,0,0,1,0-3.12V47.68a1.56,1.56,0,0,1,0-3.12V40.48a1.56,1.56,0,0,1,0-3.12V33.28a1.56,1.56,0,1,1,0-3.12V26.08a1.56,1.56,0,0,1,0-3.12V18.88a1.56,1.56,0,0,1,0-3.12V11.68a1.56,1.56,0,0,1,0-3.12ZM4.21,62.09a1.57,1.57,0,1,1,1.57-1.56A1.56,1.56,0,0,1,4.21,62.09Zm0-7.2a1.57,1.57,0,1,1,1.57-1.56A1.56,1.56,0,0,1,4.21,54.89Zm0-7.2a1.57,1.57,0,1,1,1.57-1.56A1.56,1.56,0,0,1,4.21,47.69Zm0-7.28a1.57,1.57,0,1,1,1.57-1.57A1.57,1.57,0,0,1,4.21,40.41Zm0-7.17a1.57,1.57,0,1,1,1.57-1.57A1.57,1.57,0,0,1,4.21,33.24Zm0-7.15a1.57,1.57,0,1,1,1.57-1.57A1.57,1.57,0,0,1,4.21,26.09Zm0-7.2a1.57,1.57,0,1,1,1.57-1.56A1.56,1.56,0,0,1,4.21,18.89Zm0-7.2a1.56,1.56,0,0,1-1.57-1.56,1.57,1.57,0,1,1,3.14,0A1.56,1.56,0,0,1,4.21,11.69ZM18.34,61.58A1.57,1.57,0,1,1,19.91,60,1.57,1.57,0,0,1,18.34,61.58Zm7.21,0A1.57,1.57,0,1,1,27.12,60,1.57,1.57,0,0,1,25.55,61.58Zm7.19,0A1.57,1.57,0,1,1,34.31,60,1.57,1.57,0,0,1,32.74,61.58ZM47,62.09a1.57,1.57,0,1,1,1.57-1.56A1.56,1.56,0,0,1,47,62.09Zm0-7.2a1.57,1.57,0,1,1,1.57-1.56A1.56,1.56,0,0,1,47,54.89Zm0-7.2a1.57,1.57,0,1,1,1.57-1.56A1.56,1.56,0,0,1,47,47.69Zm0-7.28a1.57,1.57,0,1,1,1.57-1.57A1.57,1.57,0,0,1,47,40.41Zm0-7.17a1.57,1.57,0,1,1,1.57-1.57A1.57,1.57,0,0,1,47,33.24Zm0-7.15a1.57,1.57,0,1,1,1.57-1.57A1.57,1.57,0,0,1,47,26.09Zm0-7.2a1.57,1.57,0,1,1,1.57-1.56A1.56,1.56,0,0,1,47,18.89Zm0-7.2a1.56,1.56,0,0,1-1.57-1.56,1.57,1.57,0,1,1,3.14,0A1.56,1.56,0,0,1,47,11.69Z"/><g id="USB_Type-C" data-name="USB Type-C"><rect class="cls-1" x="28.52" y="19.97" width="1.13" height="4.39" rx="0.19"/><rect class="cls-1" x="25.69" y="19.97" width="1.13" height="4.39" rx="0.19"/><rect class="cls-1" x="24.27" y="19.97" width="1.13" height="4.39" rx="0.19"/><rect class="cls-1" x="21.43" y="19.97" width="1.13" height="4.39" rx="0.19"/><rect class="cls-1" x="20.02" y="19.97" width="1.13" height="4.39" rx="0.19"/><rect class="cls-1" x="22.85" y="19.97" width="1.13" height="4.39" rx="0.19"/><rect class="cls-1" x="27.1" y="19.97" width="1.13" height="4.39" rx="0.19"/><rect class="cls-1" x="29.94" y="19.97" width="1.13" height="4.39" rx="0.19"/><rect class="cls-1" x="33.69" y="19.97" width="1.98" height="4.39" rx="0.2"/><rect class="cls-1" x="15.41" y="19.97" width="1.98" height="4.39" rx="0.2"/><rect class="cls-1" x="31.57" y="19.97" width="1.84" height="4.39" rx="0.18"/><rect class="cls-1" x="17.68" y="19.97" width="1.84" height="4.39" rx="0.18"/><rect class="cls-1" x="36.08" y="5.16" width="3.43" height="5.13" rx="1.71"/><rect class="cls-1" x="11.59" y="5.16" width="3.43" height="5.13" rx="1.71"/><rect class="cls-1" x="36.08" y="16.3" width="3.43" height="6.53" rx="1.71"/><rect class="cls-1" x="11.59" y="16.3" width="3.43" height="6.53" rx="1.71"/><rect class="cls-2" x="13.3" y="0.35" width="24.49" height="22.17"/><rect class="cls-3" x="30" y="16.55" width="3.97" height="3.93" transform="translate(50.49 -13.47) rotate(90)"/><rect class="cls-3" x="17.52" y="16.55" width="3.97" height="3.93" transform="translate(38.02 -1) rotate(90)"/></g><g id="LED"><rect class="cls-1" x="21.72" y="37.62" width="3.12" height="4.25" rx="0.31"/><rect class="cls-1" x="21.72" y="30.25" width="3.12" height="4.25" rx="0.31"/><rect class="cls-1" x="26.25" y="37.62" width="3.12" height="4.25" rx="0.31"/><rect class="cls-1" x="26.25" y="30.25" width="3.12" height="4.25" rx="0.31"/><path class="cls-4" d="M23.25,39.39a1.12,1.12,0,0,1,1.12,1.12s0,.05,0,.08h2.36s0-.05,0-.08a1.12,1.12,0,1,1,2.23,0s0,.05,0,.08h.46V31.52h-.45a1.11,1.11,0,0,1-1.11,1.09,1.12,1.12,0,0,1-1.11-1.09H24.36a1.11,1.11,0,0,1-1.11,1.09,1.12,1.12,0,0,1-1.11-1.09h-.42v9.07h.43s0-.05,0-.08A1.12,1.12,0,0,1,23.25,39.39Z"/><rect class="cls-5" x="21.72" y="33.27" width="7.65" height="5.57"/></g><g id="Button"><rect class="cls-1" x="37.1" y="28.69" width="2.27" height="3.69" rx="0.23"/><rect class="cls-1" x="37.1" y="40.88" width="2.27" height="3.69" rx="0.23"/><rect class="cls-1" x="31" y="28.69" width="2.27" height="3.69" rx="0.23"/><rect class="cls-1" x="31" y="40.88" width="2.27" height="3.69" rx="0.23"/><polygon class="cls-6" points="39.72 30.53 38.23 30.53 32.13 30.53 30.65 30.53 30.65 42.72 32.13 42.72 38.23 42.72 39.72 42.72 39.72 30.53"/><path class="cls-5" d="M38.3,35.49a3.12,3.12,0,1,0-6.24,0v2.27a3.12,3.12,0,0,0,6.24,0Z"/></g><g id="Button-2" data-name="Button"><rect class="cls-1" x="17.82" y="28.69" width="2.27" height="3.69" rx="0.23"/><rect class="cls-1" x="17.82" y="40.88" width="2.27" height="3.69" rx="0.23"/><rect class="cls-1" x="11.73" y="28.69" width="2.27" height="3.69" rx="0.23"/><rect class="cls-1" x="11.73" y="40.88" width="2.27" height="3.69" rx="0.23"/><polygon class="cls-6" points="20.44 30.53 18.95 30.53 12.86 30.53 11.37 30.53 11.37 42.72 12.86 42.72 18.95 42.72 20.44 42.72 20.44 30.53"/><path class="cls-5" d="M19,35.49a3.12,3.12,0,1,0-6.23,0v2.27a3.12,3.12,0,1,0,6.23,0Z"/></g><g id="Pins"><path class="cls-1" d="M27.09,64.14a1.59,1.59,0,0,0-1.56-1.59A1.52,1.52,0,0,0,24,64.08l-1.3.06,0-6a.87.87,0,0,1,.88-.88h4a.88.88,0,0,1,.88.88v6Zm-1.54-5.67A1.54,1.54,0,1,0,27.09,60,1.54,1.54,0,0,0,25.55,58.47Z"/><path class="cls-1" d="M27.52,57.33h-4a.85.85,0,0,0-.85.85v5.94H24v0a1.56,1.56,0,0,1,3.12,0v0h1.28V58.18A.85.85,0,0,0,27.52,57.33Zm-2,4.25A1.57,1.57,0,1,1,27.12,60,1.57,1.57,0,0,1,25.55,61.58Z"/><path class="cls-1" d="M19.89,64.14a1.59,1.59,0,0,0-1.56-1.59,1.52,1.52,0,0,0-1.53,1.53l-1.3.06,0-6a.87.87,0,0,1,.88-.88h4a.88.88,0,0,1,.88.88v6Zm-1.55-5.67A1.54,1.54,0,1,0,19.88,60,1.54,1.54,0,0,0,18.34,58.47Z"/><path class="cls-1" d="M20.32,57.33h-4a.85.85,0,0,0-.85.85v5.94h1.27v0a1.56,1.56,0,0,1,3.12,0v0h1.28V58.18A.85.85,0,0,0,20.32,57.33Zm-2,4.25A1.57,1.57,0,1,1,19.91,60,1.57,1.57,0,0,1,18.34,61.58Z"/><path class="cls-1" d="M34.29,64.14a1.59,1.59,0,0,0-1.56-1.59,1.52,1.52,0,0,0-1.53,1.53l-1.3.06,0-6a.87.87,0,0,1,.88-.88h4a.88.88,0,0,1,.88.88v6Zm-1.55-5.67A1.54,1.54,0,1,0,34.28,60,1.54,1.54,0,0,0,32.74,58.47Z"/><path class="cls-1" d="M34.72,57.33h-4a.85.85,0,0,0-.85.85v5.94h1.27v0a1.56,1.56,0,0,1,3.12,0v0h1.28V58.18A.85.85,0,0,0,34.72,57.33Zm-2,4.25A1.57,1.57,0,1,1,34.31,60,1.57,1.57,0,0,1,32.74,61.58Z"/><path class="cls-1" d="M0,20.18l0-1.3a1.59,1.59,0,0,0,1.56-1.56A1.53,1.53,0,0,0,0,15.79l0-1.3,5.93,0a.88.88,0,0,1,.88.88v4a.88.88,0,0,1-.88.87Zm4.18-4.39a1.54,1.54,0,1,0,1.54,1.54A1.54,1.54,0,0,0,4.21,15.79Z"/><path class="cls-1" d="M5.93,14.49H0v1.27a1.56,1.56,0,0,1,0,3.12v1.28h5.9a.85.85,0,0,0,.85-.85v-4A.85.85,0,0,0,5.93,14.49Zm-1.72,4.4a1.57,1.57,0,1,1,1.57-1.56A1.56,1.56,0,0,1,4.21,18.89Z"/><path class="cls-1" d="M0,41.78l0-1.3a1.59,1.59,0,0,0,1.56-1.56A1.53,1.53,0,0,0,0,37.39l0-1.3,5.93,0a.88.88,0,0,1,.88.88v4a.88.88,0,0,1-.88.87ZM4.21,37.3a1.54,1.54,0,1,0,1.54,1.54A1.54,1.54,0,0,0,4.21,37.3Z"/><path class="cls-1" d="M5.93,36.09H0v1.27a1.56,1.56,0,1,1,0,3.12v1.28h5.9a.85.85,0,0,0,.85-.85v-4A.85.85,0,0,0,5.93,36.09ZM4.21,40.41a1.57,1.57,0,1,1,1.57-1.57A1.57,1.57,0,0,1,4.21,40.41Z"/><path class="cls-1" d="M0,56.18l0-1.3a1.59,1.59,0,0,0,1.56-1.56A1.54,1.54,0,0,0,0,51.78l0-1.29,5.93,0a.88.88,0,0,1,.88.88v4a.88.88,0,0,1-.88.87Zm4.18-4.4a1.54,1.54,0,1,0,0,3.08,1.53,1.53,0,0,0,1.54-1.53A1.55,1.55,0,0,0,4.21,51.78Z"/><path class="cls-1" d="M5.93,50.49H0v1.27a1.56,1.56,0,1,1,0,3.12v1.28h5.9a.85.85,0,0,0,.85-.85v-4A.85.85,0,0,0,5.93,50.49Zm-1.72,4.4a1.57,1.57,0,1,1,1.57-1.56A1.56,1.56,0,0,1,4.21,54.89Z"/><path class="cls-1" d="M45.16,56.18a.87.87,0,0,1-.88-.87v-4a.87.87,0,0,1,.88-.88h5.9l0,1.3a1.57,1.57,0,0,0-1.56,1.56,1.53,1.53,0,0,0,1.53,1.53l0,1.33ZM47,51.78a1.55,1.55,0,0,0-1.54,1.55,1.54,1.54,0,0,0,3.08,0A1.55,1.55,0,0,0,47,51.78Z"/><path class="cls-1" d="M44.31,51.34v4a.85.85,0,0,0,.85.85h5.9V54.88a1.56,1.56,0,0,1,0-3.12V50.49h-5.9A.85.85,0,0,0,44.31,51.34Zm2.64.42a1.57,1.57,0,1,1-1.57,1.57A1.57,1.57,0,0,1,47,51.76Z"/><path class="cls-1" d="M45.16,63.39a.88.88,0,0,1-.88-.88v-4a.87.87,0,0,1,.88-.88h5.9l0,1.3a1.57,1.57,0,0,0-1.56,1.56,1.53,1.53,0,0,0,1.53,1.53l0,.94a.92.92,0,0,1-.08.38v0ZM47,59a1.55,1.55,0,0,0-1.54,1.55,1.54,1.54,0,0,0,3.08,0A1.55,1.55,0,0,0,47,59Z"/><path class="cls-1" d="M44.31,58.54v4a.85.85,0,0,0,.85.85H51a.9.9,0,0,0,.07-.37v-.91a1.56,1.56,0,0,1,0-3.12V57.69h-5.9A.85.85,0,0,0,44.31,58.54ZM47,59a1.57,1.57,0,1,1-1.57,1.57A1.57,1.57,0,0,1,47,59Z"/><path class="cls-1" d="M0,13l0-1.3a1.59,1.59,0,0,0,1.56-1.56A1.54,1.54,0,0,0,0,8.58l0-.92a.94.94,0,0,1,.07-.39H5.93a.88.88,0,0,1,.88.88v4a.88.88,0,0,1-.88.87Zm4.18-4.4a1.54,1.54,0,1,0,1.54,1.55A1.54,1.54,0,0,0,4.21,8.58Z"/><path class="cls-1" d="M5.93,7.29H.1A.9.9,0,0,0,0,7.66v.9a1.56,1.56,0,1,1,0,3.12V13h5.9a.85.85,0,0,0,.85-.85v-4A.85.85,0,0,0,5.93,7.29Zm-1.72,4.4a1.56,1.56,0,0,1-1.57-1.56,1.57,1.57,0,1,1,3.14,0A1.56,1.56,0,0,1,4.21,11.69Z"/><path class="cls-1" d="M0,49l0-1.3a1.59,1.59,0,0,0,1.56-1.56A1.53,1.53,0,0,0,0,44.59l0-1.3,5.93,0a.88.88,0,0,1,.88.88v4a.88.88,0,0,1-.88.87Zm4.18-4.39a1.54,1.54,0,1,0,1.54,1.54A1.54,1.54,0,0,0,4.21,44.59Z"/><path class="cls-1" d="M5.93,43.29H0v1.27a1.56,1.56,0,1,1,0,3.12V49h5.9a.85.85,0,0,0,.85-.85v-4A.85.85,0,0,0,5.93,43.29Zm-1.72,4.4a1.57,1.57,0,1,1,1.57-1.56A1.56,1.56,0,0,1,4.21,47.69Z"/><path class="cls-1" d="M45.16,13a.87.87,0,0,1-.88-.87v-4a.87.87,0,0,1,.88-.88H51a.77.77,0,0,1,.1.4v.9a1.57,1.57,0,0,0-1.56,1.56,1.53,1.53,0,0,0,1.53,1.53l0,1.33ZM47,8.58a1.54,1.54,0,1,0,1.54,1.55A1.54,1.54,0,0,0,47,8.58Z"/><path class="cls-1" d="M51.06,8.56v-.9A.9.9,0,0,0,51,7.29H45.16a.85.85,0,0,0-.85.85v4a.85.85,0,0,0,.85.85h5.9V11.68a1.56,1.56,0,0,1,0-3.12ZM47,11.69a1.56,1.56,0,0,1-1.57-1.56,1.57,1.57,0,1,1,3.14,0A1.56,1.56,0,0,1,47,11.69Z"/><path class="cls-1" d="M45.16,20.18a.87.87,0,0,1-.88-.87v-4a.87.87,0,0,1,.88-.88h5.9l0,1.3a1.57,1.57,0,0,0-1.56,1.56,1.53,1.53,0,0,0,1.53,1.53l0,1.33ZM47,15.79a1.54,1.54,0,1,0,1.54,1.54A1.54,1.54,0,0,0,47,15.79Z"/><path class="cls-1" d="M44.31,15.34v4a.85.85,0,0,0,.85.85h5.9V18.88a1.56,1.56,0,0,1,0-3.12V14.49h-5.9A.85.85,0,0,0,44.31,15.34Zm2.64.42a1.57,1.57,0,1,1-1.57,1.57A1.57,1.57,0,0,1,47,15.76Z"/><path class="cls-1" d="M45.16,27.39a.88.88,0,0,1-.88-.88v-4a.87.87,0,0,1,.88-.88h5.9l0,1.3a1.57,1.57,0,0,0-1.56,1.56,1.53,1.53,0,0,0,1.53,1.53l0,1.34ZM47,23a1.55,1.55,0,1,0,1.54,1.55A1.55,1.55,0,0,0,47,23Z"/><path class="cls-1" d="M44.31,22.54v4a.85.85,0,0,0,.85.85h5.9V26.08a1.56,1.56,0,0,1,0-3.12V21.69h-5.9A.85.85,0,0,0,44.31,22.54ZM47,23a1.57,1.57,0,1,1-1.57,1.57A1.57,1.57,0,0,1,47,23Z"/><path class="cls-1" d="M.1,63.39A.72.72,0,0,1,0,63v-.91a1.59,1.59,0,0,0,1.56-1.56A1.54,1.54,0,0,0,0,59l0-1.29,5.93,0a.88.88,0,0,1,.88.88v4a.89.89,0,0,1-.88.88ZM4.21,59a1.54,1.54,0,1,0,0,3.08,1.52,1.52,0,0,0,1.54-1.53A1.55,1.55,0,0,0,4.21,59Z"/><path class="cls-1" d="M5.93,57.69H0V59a1.56,1.56,0,1,1,0,3.12V63a.9.9,0,0,0,.07.37H5.93a.85.85,0,0,0,.85-.85v-4A.85.85,0,0,0,5.93,57.69Zm-1.72,4.4a1.57,1.57,0,1,1,1.57-1.56A1.56,1.56,0,0,1,4.21,62.09Z"/><path class="cls-1" d="M45.16,34.59a.88.88,0,0,1-.88-.88v-4a.87.87,0,0,1,.88-.88h5.9l0,1.3a1.57,1.57,0,0,0-1.56,1.56,1.53,1.53,0,0,0,1.53,1.53l0,1.34ZM47,30.13a1.54,1.54,0,1,0,1.54,1.54A1.54,1.54,0,0,0,47,30.13Z"/><path class="cls-1" d="M44.31,29.74v4a.85.85,0,0,0,.85.85h5.9V33.28a1.56,1.56,0,1,1,0-3.12V28.89h-5.9A.85.85,0,0,0,44.31,29.74ZM47,30.1a1.57,1.57,0,1,1-1.57,1.57A1.57,1.57,0,0,1,47,30.1Z"/><path class="cls-1" d="M45.16,41.78a.87.87,0,0,1-.88-.87v-4a.87.87,0,0,1,.88-.88h5.9l0,1.3a1.57,1.57,0,0,0-1.56,1.56,1.53,1.53,0,0,0,1.53,1.53l0,1.33ZM47,37.3a1.54,1.54,0,1,0,1.54,1.54A1.54,1.54,0,0,0,47,37.3Z"/><path class="cls-1" d="M44.31,36.94v4a.85.85,0,0,0,.85.85h5.9V40.48a1.56,1.56,0,0,1,0-3.12V36.09h-5.9A.85.85,0,0,0,44.31,36.94Zm2.64.33a1.57,1.57,0,1,1-1.57,1.57A1.57,1.57,0,0,1,47,37.27Z"/><path class="cls-1" d="M45.16,49a.87.87,0,0,1-.88-.87v-4a.87.87,0,0,1,.88-.88h5.9l0,1.3a1.57,1.57,0,0,0-1.56,1.56,1.53,1.53,0,0,0,1.53,1.53l0,1.33ZM47,44.59a1.54,1.54,0,1,0,1.54,1.54A1.54,1.54,0,0,0,47,44.59Z"/><path class="cls-1" d="M44.31,44.14v4a.85.85,0,0,0,.85.85h5.9V47.68a1.56,1.56,0,0,1,0-3.12V43.29h-5.9A.85.85,0,0,0,44.31,44.14Zm2.64.42a1.57,1.57,0,1,1-1.57,1.57A1.57,1.57,0,0,1,47,44.56Z"/><path class="cls-1" d="M0,27.39l0-1.31a1.59,1.59,0,0,0,1.56-1.56A1.54,1.54,0,0,0,0,23l0-1.29,5.93,0a.88.88,0,0,1,.88.88v4a.89.89,0,0,1-.88.88ZM4.21,23a1.55,1.55,0,1,0,1.54,1.55A1.55,1.55,0,0,0,4.21,23Z"/><path class="cls-1" d="M5.93,21.69H0V23a1.56,1.56,0,1,1,0,3.12v1.28h5.9a.85.85,0,0,0,.85-.85v-4A.85.85,0,0,0,5.93,21.69Zm-1.72,4.4a1.57,1.57,0,1,1,1.57-1.57A1.57,1.57,0,0,1,4.21,26.09Z"/><path class="cls-1" d="M0,34.59l0-1.31a1.59,1.59,0,0,0,1.56-1.56A1.54,1.54,0,0,0,0,30.18l0-1.29,5.93,0a.88.88,0,0,1,.88.88v4a.89.89,0,0,1-.88.88Zm4.18-4.46a1.54,1.54,0,1,0,1.54,1.54A1.54,1.54,0,0,0,4.21,30.13Z"/><path class="cls-1" d="M5.93,28.89H0v1.27a1.56,1.56,0,0,1,0,3.12v1.28h5.9a.85.85,0,0,0,.85-.85v-4A.85.85,0,0,0,5.93,28.89ZM4.21,33.24a1.57,1.57,0,1,1,1.57-1.57A1.57,1.57,0,0,1,4.21,33.24Z"/></g></svg>