<svg xmlns="http://www.w3.org/2000/svg" viewBox="0 0 59.53 150.24"><defs><style>.a{fill:#004e29;}.b{fill:#006837;}.c{fill:#33865f;}.d{fill:#9a916c;}.e{fill:#fcee21;}.f{fill:#30312e;}.g{fill:#363a44;}.h{fill:#dbddda;}.i{fill:#2a2d2e;}.j{fill:#ccc;}.k{fill:#fff;}.l{fill:#958863;}.m{fill:#3d3f38;}.n{fill:#ecf6fd;}.o{fill:#3c3;}</style></defs><path class="a" d="M59.53,15.54V10.76h0a1.09,1.09,0,0,1-.54-.15v5.07a1.2,1.2,0,0,1,.54-.14Z"/><path class="a" d="M59.53,22.74V18h0a1.09,1.09,0,0,1-.54-.15v5.07a1.2,1.2,0,0,1,.54-.14Z"/><path class="a" d="M59.53,29.94V25.16h0A1.09,1.09,0,0,1,59,25v5.07a1.2,1.2,0,0,1,.54-.14Z"/><path class="a" d="M59.53,37.14V32.36h0a1.09,1.09,0,0,1-.54-.15v5.07a1.2,1.2,0,0,1,.54-.14Z"/><path class="a" d="M59.53,44.34V39.56h0a1.09,1.09,0,0,1-.54-.15v5.07a1.2,1.2,0,0,1,.54-.14Z"/><path class="a" d="M59.53,51.54V46.76h0a1.09,1.09,0,0,1-.54-.15v5.07a1.2,1.2,0,0,1,.54-.14Z"/><path class="a" d="M59.53,58.74V54h0a1.09,1.09,0,0,1-.54-.15v5.07a1.2,1.2,0,0,1,.54-.14Z"/><path class="a" d="M59.53,65.94V61.16h0A1.09,1.09,0,0,1,59,61v5.07a1.2,1.2,0,0,1,.54-.14Z"/><path class="a" d="M59.53,73.14V68.36h0a1.09,1.09,0,0,1-.54-.15v5.07a1.2,1.2,0,0,1,.54-.14Z"/><path class="a" d="M59.53,80.34V75.56h0a1.09,1.09,0,0,1-.54-.15v5.07a1.09,1.09,0,0,1,.54-.14h0"/><path class="a" d="M59.53,87.54V82.76h0a1.09,1.09,0,0,1-.54-.15v5.07a1.2,1.2,0,0,1,.54-.14Z"/><path class="a" d="M59.53,94.74V90h0a1.09,1.09,0,0,1-.54-.15v5.07a1.2,1.2,0,0,1,.54-.14Z"/><path class="a" d="M59.53,101.94V97.16h0A1.09,1.09,0,0,1,59,97v5.07a1.2,1.2,0,0,1,.54-.14Z"/><path class="a" d="M59.53,109.14v-4.78h0a1.09,1.09,0,0,1-.54-.15v5.07a1.2,1.2,0,0,1,.54-.14Z"/><path class="a" d="M59.53,116.34v-4.78h0a1.09,1.09,0,0,1-.54-.15v5.07a1.09,1.09,0,0,1,.54-.14Z"/><path class="a" d="M59.53,123.54v-4.78h0a1.09,1.09,0,0,1-.54-.15v5.07a1.2,1.2,0,0,1,.54-.14h0"/><path class="a" d="M59.53,130.74V126h0a1.09,1.09,0,0,1-.54-.15v5.07a1.2,1.2,0,0,1,.54-.14Z"/><path class="a" d="M59.53,137.94v-4.78h0A1.09,1.09,0,0,1,59,133v5.07a1.2,1.2,0,0,1,.54-.14Z"/><path class="a" d="M59.53,145.14v-4.78h0a1.09,1.09,0,0,1-.54-.15v5.07a1.09,1.09,0,0,1,.54-.14Z"/><path class="a" d="M59.53,147.55h0a1.09,1.09,0,0,1-.54-.14V149a.71.71,0,0,1-.71.71H38a1.09,1.09,0,0,1,.14.54H58.39a1.14,1.14,0,0,0,1.14-1.14v-1.55Z"/><path class="a" d="M23.63,149.7a1.09,1.09,0,0,1,.14.54h4.78a1.09,1.09,0,0,1,.15-.54Z"/><path class="a" d="M30.83,149.7a1.2,1.2,0,0,1,.14.54h4.79a1.09,1.09,0,0,1,.14-.54Z"/><path class="a" d="M59.2,6l-.42.42a.69.69,0,0,1,.21.5V8.48a1.2,1.2,0,0,1,.54-.14h0V6.8A1.16,1.16,0,0,0,59.2,6"/><path class="a" d="M21.5,149.7H1.25a.71.71,0,0,1-.5-.21l-.42.42a1.17,1.17,0,0,0,.81.33H21.35a1.09,1.09,0,0,1,.15-.54"/><path class="b" d="M.54,6.92V8.48a1.21,1.21,0,0,1,.67,1.07,1.19,1.19,0,0,1-.67,1.06v5.07a1.21,1.21,0,0,1,.67,1.07,1.19,1.19,0,0,1-.67,1.06v5.07A1.21,1.21,0,0,1,1.21,24,1.22,1.22,0,0,1,.54,25v5.06a1.21,1.21,0,0,1,.67,1.07,1.19,1.19,0,0,1-.67,1.06v5.07a1.21,1.21,0,0,1,.67,1.07,1.19,1.19,0,0,1-.67,1.06v5.07a1.21,1.21,0,0,1,.67,1.07,1.19,1.19,0,0,1-.67,1.06v5.07a1.21,1.21,0,0,1,.67,1.07,1.19,1.19,0,0,1-.67,1.06v5.07A1.21,1.21,0,0,1,1.21,60,1.19,1.19,0,0,1,.54,61v5.07a1.21,1.21,0,0,1,.67,1.07,1.19,1.19,0,0,1-.67,1.06v5.07a1.21,1.21,0,0,1,.67,1.07,1.19,1.19,0,0,1-.67,1.06v5.07a1.21,1.21,0,0,1,.67,1.07,1.19,1.19,0,0,1-.67,1.06v5.07a1.21,1.21,0,0,1,.67,1.07,1.19,1.19,0,0,1-.67,1.06v5.07A1.21,1.21,0,0,1,1.21,96,1.19,1.19,0,0,1,.54,97v5.07a1.21,1.21,0,0,1,.67,1.07,1.19,1.19,0,0,1-.67,1.06v5.07a1.21,1.21,0,0,1,.67,1.07,1.19,1.19,0,0,1-.67,1.06v5.07a1.21,1.21,0,0,1,.67,1.07,1.19,1.19,0,0,1-.67,1.06v5.07a1.21,1.21,0,0,1,.67,1.07,1.19,1.19,0,0,1-.67,1.06v5.07A1.21,1.21,0,0,1,1.21,132,1.19,1.19,0,0,1,.54,133v5.07a1.21,1.21,0,0,1,.67,1.07,1.19,1.19,0,0,1-.67,1.06v5.07a1.21,1.21,0,0,1,.67,1.07,1.19,1.19,0,0,1-.67,1.06V149a.71.71,0,0,0,.71.71H21.5a1.18,1.18,0,0,1,2.13,0H28.7a1.19,1.19,0,0,1,1.06-.67,1.21,1.21,0,0,1,1.07.67H35.9A1.19,1.19,0,0,1,37,149a1.21,1.21,0,0,1,1.07.67H58.28A.71.71,0,0,0,59,149v-1.58a1.19,1.19,0,0,1-.67-1.06,1.21,1.21,0,0,1,.67-1.07v-5.07a1.19,1.19,0,0,1-.67-1.06,1.21,1.21,0,0,1,.67-1.07V133a1.19,1.19,0,0,1-.67-1.06,1.21,1.21,0,0,1,.67-1.07v-5.07a1.19,1.19,0,0,1-.67-1.06,1.21,1.21,0,0,1,.67-1.07v-5.07a1.19,1.19,0,0,1-.67-1.06,1.21,1.21,0,0,1,.67-1.07v-5.07a1.19,1.19,0,0,1-.67-1.06,1.21,1.21,0,0,1,.67-1.07v-5.07a1.19,1.19,0,0,1-.67-1.06,1.21,1.21,0,0,1,.67-1.07V97A1.19,1.19,0,0,1,58.32,96,1.21,1.21,0,0,1,59,94.88V89.81a1.19,1.19,0,0,1-.67-1.06A1.21,1.21,0,0,1,59,87.68V82.61a1.19,1.19,0,0,1-.67-1.06A1.21,1.21,0,0,1,59,80.48V75.41a1.19,1.19,0,0,1-.67-1.06A1.21,1.21,0,0,1,59,73.28V68.21a1.19,1.19,0,0,1-.67-1.06A1.21,1.21,0,0,1,59,66.08V61A1.19,1.19,0,0,1,58.32,60,1.21,1.21,0,0,1,59,58.88V53.81a1.19,1.19,0,0,1-.67-1.06A1.21,1.21,0,0,1,59,51.68V46.61a1.19,1.19,0,0,1-.67-1.06A1.21,1.21,0,0,1,59,44.48V39.41a1.19,1.19,0,0,1-.67-1.06A1.21,1.21,0,0,1,59,37.28V32.21a1.19,1.19,0,0,1-.67-1.06A1.21,1.21,0,0,1,59,30.08V25a1.19,1.19,0,0,1,0-2.14V17.81a1.19,1.19,0,0,1-.67-1.06A1.21,1.21,0,0,1,59,15.68V10.61a1.19,1.19,0,0,1-.67-1.06A1.21,1.21,0,0,1,59,8.48V6.92a.71.71,0,0,0-.71-.71h-57a.71.71,0,0,0-.71.71m4,140.62a1.2,1.2,0,0,1,0-2.39,1.2,1.2,0,1,1,0,2.39m1.2-8.39a1.2,1.2,0,1,1-1.2-1.2,1.19,1.19,0,0,1,1.2,1.2m0-7.2a1.2,1.2,0,1,1-1.2-1.2,1.19,1.19,0,0,1,1.2,1.2m0-7.2a1.2,1.2,0,1,1-1.2-1.2,1.19,1.19,0,0,1,1.2,1.2m0-7.2a1.2,1.2,0,1,1-1.2-1.2,1.19,1.19,0,0,1,1.2,1.2m0-7.2a1.2,1.2,0,1,1-1.2-1.2,1.19,1.19,0,0,1,1.2,1.2m0-7.2a1.2,1.2,0,1,1-1.2-1.2,1.19,1.19,0,0,1,1.2,1.2m0-7.2a1.2,1.2,0,1,1-1.2-1.2A1.19,1.19,0,0,1,5.76,96m0-7.2a1.2,1.2,0,1,1-1.2-1.2,1.19,1.19,0,0,1,1.2,1.2m0-7.2a1.2,1.2,0,1,1-1.2-1.2,1.19,1.19,0,0,1,1.2,1.2m0-7.2a1.2,1.2,0,1,1-1.2-1.2,1.19,1.19,0,0,1,1.2,1.2m0-7.2A1.2,1.2,0,1,1,4.56,66a1.19,1.19,0,0,1,1.2,1.2m0-7.2a1.2,1.2,0,1,1-1.2-1.2A1.19,1.19,0,0,1,5.76,60m0-7.2a1.2,1.2,0,1,1-1.2-1.2,1.19,1.19,0,0,1,1.2,1.2m0-7.2a1.2,1.2,0,1,1-1.2-1.2,1.19,1.19,0,0,1,1.2,1.2m0-7.2a1.2,1.2,0,1,1-1.2-1.2,1.19,1.19,0,0,1,1.2,1.2m0-7.2A1.2,1.2,0,1,1,4.56,30a1.19,1.19,0,0,1,1.2,1.2m0-7.2a1.2,1.2,0,1,1-1.2-1.2A1.2,1.2,0,0,1,5.76,24m0-7.2a1.2,1.2,0,1,1-1.2-1.2,1.19,1.19,0,0,1,1.2,1.2m0-7.2a1.2,1.2,0,1,1-1.2-1.2,1.19,1.19,0,0,1,1.2,1.2M13.62,147a2.52,2.52,0,1,1,2.52-2.52A2.52,2.52,0,0,1,13.62,147M13.62,14a2.52,2.52,0,1,1,2.52-2.52A2.52,2.52,0,0,1,13.62,14m8.94,133.54a1.2,1.2,0,1,1,1.2-1.2,1.19,1.19,0,0,1-1.2,1.2m7.2,0a1.2,1.2,0,1,1,1.2-1.2,1.19,1.19,0,0,1-1.2,1.2m24-1.19A1.2,1.2,0,1,1,55,147.54a1.19,1.19,0,0,1-1.19-1.19m0-7.2A1.2,1.2,0,1,1,55,140.34a1.19,1.19,0,0,1-1.19-1.19m0-7.2A1.2,1.2,0,1,1,55,133.14,1.19,1.19,0,0,1,53.77,132m0-7.2A1.2,1.2,0,1,1,55,125.94a1.19,1.19,0,0,1-1.19-1.19m0-7.2A1.2,1.2,0,1,1,55,118.74a1.19,1.19,0,0,1-1.19-1.19m0-7.2A1.2,1.2,0,1,1,55,111.54a1.19,1.19,0,0,1-1.19-1.19m0-7.2A1.2,1.2,0,1,1,55,104.34a1.19,1.19,0,0,1-1.19-1.19m0-7.2A1.2,1.2,0,1,1,55,97.14,1.19,1.19,0,0,1,53.77,96m0-7.2A1.2,1.2,0,1,1,55,89.94a1.19,1.19,0,0,1-1.19-1.19m0-7.2A1.2,1.2,0,1,1,55,82.74a1.19,1.19,0,0,1-1.19-1.19m0-7.2A1.2,1.2,0,1,1,55,75.54a1.19,1.19,0,0,1-1.19-1.19m0-7.2A1.2,1.2,0,1,1,55,68.34a1.19,1.19,0,0,1-1.19-1.19m0-7.2A1.2,1.2,0,1,1,55,61.14,1.19,1.19,0,0,1,53.77,60m0-7.2A1.2,1.2,0,1,1,55,53.94a1.19,1.19,0,0,1-1.19-1.19m0-7.2A1.2,1.2,0,1,1,55,46.74a1.19,1.19,0,0,1-1.19-1.19m0-7.2A1.2,1.2,0,1,1,55,39.54a1.19,1.19,0,0,1-1.19-1.19m0-7.2A1.2,1.2,0,1,1,55,32.34a1.19,1.19,0,0,1-1.19-1.19m0-7.2A1.2,1.2,0,1,1,55,25.15,1.19,1.19,0,0,1,53.77,24m0-7.2A1.2,1.2,0,1,1,55,17.94a1.19,1.19,0,0,1-1.19-1.19m0-7.2A1.2,1.2,0,1,1,55,10.74a1.19,1.19,0,0,1-1.19-1.19M37,147.54a1.2,1.2,0,1,1,1.2-1.2,1.19,1.19,0,0,1-1.2,1.2m8.95-.59a2.52,2.52,0,1,1,2.52-2.52A2.52,2.52,0,0,1,45.91,147M45.91,14a2.52,2.52,0,1,1,2.52-2.52A2.52,2.52,0,0,1,45.91,14"/><path class="c" d="M58.4,5.67H1.13A1.14,1.14,0,0,0,0,6.8V8.34H0a1.09,1.09,0,0,1,.54.14V6.92a.71.71,0,0,1,.71-.71h57a.71.71,0,0,1,.5.21L59.2,6a1.16,1.16,0,0,0-.8-.33"/><path class="c" d="M0,18v4.78H0a1.2,1.2,0,0,1,.54.14V17.81A1.09,1.09,0,0,1,0,18Z"/><path class="c" d="M0,25.16v4.78H0a1.2,1.2,0,0,1,.54.14V25a1.09,1.09,0,0,1-.54.15H0"/><path class="c" d="M0,32.36v4.78H0a1.2,1.2,0,0,1,.54.14V32.21a1.09,1.09,0,0,1-.54.15Z"/><path class="c" d="M0,39.56v4.78H0a1.2,1.2,0,0,1,.54.14V39.41a1.09,1.09,0,0,1-.54.15Z"/><path class="c" d="M0,46.75v4.79H0a1.09,1.09,0,0,1,.54.14V46.61a1.09,1.09,0,0,1-.54.15Z"/><path class="c" d="M0,54v4.78H0a1.2,1.2,0,0,1,.54.14V53.81A1.09,1.09,0,0,1,0,54Z"/><path class="c" d="M0,61.16v4.78H0a1.2,1.2,0,0,1,.54.14V61a1.09,1.09,0,0,1-.54.15Z"/><path class="c" d="M0,68.36v4.78H0a1.2,1.2,0,0,1,.54.14V68.21a1.09,1.09,0,0,1-.54.15Z"/><path class="c" d="M0,75.56v4.78H0a1.2,1.2,0,0,1,.54.14V75.41a1.09,1.09,0,0,1-.54.15Z"/><path class="c" d="M0,82.75v4.79H0a1.09,1.09,0,0,1,.54.14V82.61a1.09,1.09,0,0,1-.54.15Z"/><path class="c" d="M0,90v4.78H0a1.2,1.2,0,0,1,.54.14V89.81A1.09,1.09,0,0,1,0,90Z"/><path class="c" d="M0,97.16v4.78H0a1.2,1.2,0,0,1,.54.14V97a1.09,1.09,0,0,1-.54.15Z"/><path class="c" d="M0,104.36v4.78H0a1.2,1.2,0,0,1,.54.14v-5.07a1.09,1.09,0,0,1-.54.15Z"/><path class="c" d="M0,111.56v4.78H0a1.2,1.2,0,0,1,.54.14v-5.07a1.09,1.09,0,0,1-.54.15Z"/><path class="c" d="M0,118.75v4.79H0a1.09,1.09,0,0,1,.54.14v-5.07a1.09,1.09,0,0,1-.54.15Z"/><path class="c" d="M0,126v4.78H0a1.2,1.2,0,0,1,.54.14v-5.07A1.09,1.09,0,0,1,0,126Z"/><path class="c" d="M0,133.16v4.78H0a1.2,1.2,0,0,1,.54.14V133a1.09,1.09,0,0,1-.54.15Z"/><path class="c" d="M0,140.36v4.78H0a1.09,1.09,0,0,1,.54.14v-5.07a1.09,1.09,0,0,1-.54.15Z"/><path class="c" d="M0,10.75v4.79H0a1.2,1.2,0,0,1,.54.14V10.61a1.09,1.09,0,0,1-.54.14Z"/><path class="c" d="M.33,149.91l.42-.42a.71.71,0,0,1-.21-.5v-1.58a1.09,1.09,0,0,1-.54.14v1.55a1.17,1.17,0,0,0,.33.81"/><path class="d" d="M6.54,16.75a2,2,0,0,0-2-2H0v.77H0a1.21,1.21,0,0,1,1.21,1.21A1.21,1.21,0,0,1,0,18H0v.76H4.56a2,2,0,0,0,2-2m-2,1.19a1.2,1.2,0,0,1,0-2.39,1.2,1.2,0,1,1,0,2.39"/><path class="d" d="M6.54,22H0v.77H0A1.21,1.21,0,0,1,1.21,24,1.21,1.21,0,0,1,0,25.16H0v.76H6.54Zm-2,3.17a1.2,1.2,0,0,1,0-2.39,1.2,1.2,0,1,1,0,2.39"/><path class="d" d="M6.54,31.15a2,2,0,0,0-2-2H0v.77H0a1.21,1.21,0,0,1,1.21,1.21A1.21,1.21,0,0,1,0,32.36H0v.76H4.56a2,2,0,0,0,2-2m-2,1.19a1.2,1.2,0,0,1,0-2.39,1.2,1.2,0,1,1,0,2.39"/><path class="d" d="M6.54,38.35a2,2,0,0,0-2-2H0v.76H0a1.22,1.22,0,0,1,1.21,1.22A1.21,1.21,0,0,1,0,39.55H0v.77H4.56a2,2,0,0,0,2-2m-2,1.19a1.2,1.2,0,1,1,1.2-1.19,1.19,1.19,0,0,1-1.2,1.19"/><path class="d" d="M6.54,45.55a2,2,0,0,0-2-2H0v.77H0a1.21,1.21,0,0,1,1.21,1.21A1.21,1.21,0,0,1,0,46.75H0v.77H4.56a2,2,0,0,0,2-2m-2,1.19a1.2,1.2,0,1,1,1.2-1.19,1.19,1.19,0,0,1-1.2,1.19"/><path class="d" d="M6.54,52.75a2,2,0,0,0-2-2H0v.77H0a1.21,1.21,0,0,1,1.21,1.21A1.21,1.21,0,0,1,0,54H0v.77H4.56a2,2,0,0,0,2-2m-2,1.19a1.2,1.2,0,1,1,1.2-1.19,1.19,1.19,0,0,1-1.2,1.19"/><path class="d" d="M6.54,58H0v.77H0A1.21,1.21,0,0,1,1.21,60,1.21,1.21,0,0,1,0,61.15H0v.77H6.54Zm-2,3.17A1.2,1.2,0,1,1,5.76,60a1.19,1.19,0,0,1-1.2,1.19"/><path class="d" d="M6.54,67.14a2,2,0,0,0-2-2H0v.77H0a1.21,1.21,0,0,1,1.21,1.2A1.21,1.21,0,0,1,0,68.35H0v.77H4.56a2,2,0,0,0,2-2m-2,1.2a1.2,1.2,0,1,1,1.2-1.2,1.19,1.19,0,0,1-1.2,1.2"/><path class="d" d="M6.54,74.34a2,2,0,0,0-2-2H0v.77H0a1.21,1.21,0,0,1,1.21,1.2A1.21,1.21,0,0,1,0,75.55H0v.77H4.56a2,2,0,0,0,2-2m-2,1.2a1.2,1.2,0,1,1,1.2-1.2,1.19,1.19,0,0,1-1.2,1.2"/><path class="d" d="M6.54,81.55a2,2,0,0,0-2-2H0v.77H0a1.21,1.21,0,0,1,1.21,1.21A1.21,1.21,0,0,1,0,82.76H0v.76H4.56a2,2,0,0,0,2-2m-2,1.19a1.2,1.2,0,0,1,0-2.39,1.2,1.2,0,1,1,0,2.39"/><path class="d" d="M6.54,88.75a2,2,0,0,0-2-2H0v.77H0a1.21,1.21,0,0,1,1.21,1.21A1.21,1.21,0,0,1,0,90H0v.76H4.56a2,2,0,0,0,2-2m-2,1.19a1.2,1.2,0,0,1,0-2.39,1.2,1.2,0,1,1,0,2.39"/><path class="d" d="M6.54,94H0v.77H0A1.21,1.21,0,0,1,1.21,96,1.21,1.21,0,0,1,0,97.16H0v.76H6.54Zm-2,3.17a1.2,1.2,0,0,1,0-2.39,1.2,1.2,0,1,1,0,2.39"/><path class="d" d="M6.54,103.15a2,2,0,0,0-2-2H0v.77H0a1.21,1.21,0,0,1,1.21,1.21A1.21,1.21,0,0,1,0,104.35H0v.77H4.56a2,2,0,0,0,2-2m-2,1.19a1.2,1.2,0,0,1,0-2.39,1.2,1.2,0,1,1,0,2.39"/><path class="d" d="M6.54,110.35a2,2,0,0,0-2-2H0v.77H0a1.21,1.21,0,0,1,1.21,1.21A1.21,1.21,0,0,1,0,111.55H0v.77H4.56a2,2,0,0,0,2-2m-2,1.19a1.2,1.2,0,1,1,1.2-1.19,1.19,1.19,0,0,1-1.2,1.19"/><path class="d" d="M6.54,117.55a2,2,0,0,0-2-2H0v.77H0a1.21,1.21,0,0,1,1.21,1.21A1.21,1.21,0,0,1,0,118.76H0v.76H4.56a2,2,0,0,0,2-2m-2,1.19a1.2,1.2,0,0,1,0-2.39,1.2,1.2,0,1,1,0,2.39"/><path class="d" d="M6.54,124.75a2,2,0,0,0-2-2H0v.77H0a1.21,1.21,0,0,1,1.21,1.21A1.21,1.21,0,0,1,0,126H0v.76H4.56a2,2,0,0,0,2-2m-2,1.19a1.2,1.2,0,0,1,0-2.39,1.2,1.2,0,1,1,0,2.39"/><path class="d" d="M6.54,130H0v.77H0A1.21,1.21,0,0,1,1.21,132,1.21,1.21,0,0,1,0,133.16H0v.76H6.54Zm-2,3.17a1.2,1.2,0,0,1,0-2.39,1.2,1.2,0,1,1,0,2.39"/><path class="d" d="M6.54,139.15a2,2,0,0,0-2-2H0v.77H0a1.21,1.21,0,0,1,1.21,1.21A1.21,1.21,0,0,1,0,140.36H0v.76H4.56a2,2,0,0,0,2-2m-2,1.19a1.2,1.2,0,0,1,0-2.39,1.2,1.2,0,1,1,0,2.39"/><path class="d" d="M6.54,146.34a2,2,0,0,0-2-2H0v.77H0a1.21,1.21,0,0,1,1.21,1.2A1.21,1.21,0,0,1,0,147.55H0v.77H4.56a2,2,0,0,0,2-2m-2,1.2a1.2,1.2,0,1,1,1.2-1.2,1.19,1.19,0,0,1-1.2,1.2"/><path class="d" d="M55,18.72h4.56V18a1.21,1.21,0,0,1,0-2.42v-.77H55a2,2,0,1,0,0,3.95m-1.2-2A1.2,1.2,0,1,1,55,17.94a1.2,1.2,0,0,1-1.2-1.19"/><path class="d" d="M53,25.92h6.54v-.76a1.21,1.21,0,1,1,0-2.42V22H53Zm.78-2A1.2,1.2,0,1,1,55,25.14,1.2,1.2,0,0,1,53.77,24"/><path class="d" d="M55,33.12h4.56v-.77a1.21,1.21,0,1,1,0-2.41v-.77H55a2,2,0,1,0,0,3.95m-1.2-2A1.2,1.2,0,1,1,55,32.34a1.2,1.2,0,0,1-1.2-1.19"/><path class="d" d="M55,40.32h4.56v-.77a1.21,1.21,0,0,1,0-2.42v-.76H55a2,2,0,1,0,0,4m-1.2-2a1.2,1.2,0,1,1,1.2,1.2,1.19,1.19,0,0,1-1.2-1.2"/><path class="d" d="M55,47.52h4.56v-.77a1.21,1.21,0,1,1,0-2.42v-.76H55a2,2,0,1,0,0,4m-1.2-2a1.2,1.2,0,1,1,1.2,1.2,1.19,1.19,0,0,1-1.2-1.2"/><path class="d" d="M55,54.72h4.56V54a1.21,1.21,0,1,1,0-2.41v-.77H55a2,2,0,1,0,0,3.95m-1.2-2A1.2,1.2,0,1,1,55,53.94a1.2,1.2,0,0,1-1.2-1.19"/><path class="d" d="M53,61.92h6.54v-.77a1.21,1.21,0,1,1,0-2.41V58H53Zm.78-2A1.2,1.2,0,1,1,55,61.14,1.2,1.2,0,0,1,53.77,60"/><path class="d" d="M55,69.12h4.56v-.77a1.21,1.21,0,1,1,0-2.41v-.77H55a2,2,0,1,0,0,4m-1.2-2a1.2,1.2,0,1,1,1.2,1.2,1.2,1.2,0,0,1-1.2-1.2"/><path class="d" d="M55,76.32h4.56v-.77a1.21,1.21,0,1,1,0-2.41v-.77H55a2,2,0,1,0,0,3.95m-1.2-2a1.2,1.2,0,1,1,1.2,1.2,1.2,1.2,0,0,1-1.2-1.2"/><path class="d" d="M55,83.52h4.56v-.77a1.21,1.21,0,1,1,0-2.41v-.77H55a2,2,0,1,0,0,4m-1.2-2a1.2,1.2,0,1,1,1.2,1.2,1.2,1.2,0,0,1-1.2-1.2"/><path class="d" d="M55,90.72h4.56V90a1.21,1.21,0,1,1,0-2.41v-.77H55a2,2,0,1,0,0,4m-1.2-2A1.2,1.2,0,1,1,55,89.94a1.2,1.2,0,0,1-1.2-1.19"/><path class="d" d="M53,97.92h6.54v-.77a1.21,1.21,0,1,1,0-2.41V94H53Zm.78-2A1.2,1.2,0,1,1,55,97.14,1.2,1.2,0,0,1,53.77,96"/><path class="d" d="M55,105.12h4.56v-.77a1.21,1.21,0,1,1,0-2.41v-.77H55a2,2,0,1,0,0,4m-1.2-2a1.2,1.2,0,1,1,1.2,1.19,1.2,1.2,0,0,1-1.2-1.19"/><path class="d" d="M55,112.32h4.56v-.77a1.21,1.21,0,1,1,0-2.41v-.77H55a2,2,0,1,0,0,3.95m-1.2-2a1.2,1.2,0,1,1,1.2,1.19,1.2,1.2,0,0,1-1.2-1.19"/><path class="d" d="M55,119.52h4.56v-.77a1.21,1.21,0,1,1,0-2.41v-.77H55a2,2,0,1,0,0,4m-1.2-2a1.2,1.2,0,1,1,1.2,1.19,1.2,1.2,0,0,1-1.2-1.19"/><path class="d" d="M55,126.72h4.56V126a1.21,1.21,0,0,1,0-2.42v-.77H55a2,2,0,1,0,0,4m-1.2-2a1.2,1.2,0,1,1,1.2,1.19,1.2,1.2,0,0,1-1.2-1.19"/><path class="d" d="M53,133.92h6.54v-.76a1.21,1.21,0,1,1,0-2.42V130H53Zm.78-2a1.2,1.2,0,1,1,1.2,1.19,1.2,1.2,0,0,1-1.2-1.19"/><path class="d" d="M55,141.12h4.56v-.76a1.21,1.21,0,1,1,0-2.42v-.77H55a2,2,0,1,0,0,4m-1.2-2a1.2,1.2,0,1,1,1.2,1.19,1.2,1.2,0,0,1-1.2-1.19"/><path class="d" d="M55,148.32h4.56v-.77a1.21,1.21,0,1,1,0-2.41v-.77H55a2,2,0,1,0,0,3.95m-1.2-2a1.2,1.2,0,1,1,1.2,1.2,1.2,1.2,0,0,1-1.2-1.2"/><path class="d" d="M22.57,144.37a2,2,0,0,0-2,2v3.9h.77a1.21,1.21,0,1,1,2.42,0h.76v-3.9a2,2,0,0,0-2-2m1.19,2a1.2,1.2,0,1,1-1.19-1.19,1.19,1.19,0,0,1,1.19,1.19"/><path class="d" d="M27.79,144.43v5.81h.76a1.21,1.21,0,1,1,2.42,0h.77v-5.81ZM31,146.34a1.2,1.2,0,1,1-2.39,0,1.2,1.2,0,0,1,2.39,0"/><path class="d" d="M37,144.37a2,2,0,0,0-2,2v3.9h.77a1.21,1.21,0,1,1,2.41,0h.77v-3.9a2,2,0,0,0-2-2m1.19,2A1.2,1.2,0,1,1,37,145.15a1.2,1.2,0,0,1,1.19,1.19"/><path class="d" d="M55,11.52h4.56v-.77a1.21,1.21,0,0,1,0-2.42V7.57H55a2,2,0,1,0,0,3.95m-1.2-2a1.2,1.2,0,1,1,1.2,1.2,1.19,1.19,0,0,1-1.2-1.2"/><path class="d" d="M6.54,9.54a2,2,0,0,0-2-2H0v.77H0a1.21,1.21,0,0,1,1.21,1.2A1.21,1.21,0,0,1,0,10.75H0v.77H4.56a2,2,0,0,0,2-2m-2,1.2a1.2,1.2,0,1,1,1.2-1.2,1.19,1.19,0,0,1-1.2,1.2"/><path class="e" d="M13.62,149a4.52,4.52,0,1,1,4.52-4.52A4.53,4.53,0,0,1,13.62,149m0-7a2.52,2.52,0,1,0,2.52,2.52,2.52,2.52,0,0,0-2.52-2.52"/><path class="e" d="M45.91,149a4.52,4.52,0,1,1,4.52-4.52A4.53,4.53,0,0,1,45.91,149m0-7a2.52,2.52,0,1,0,2.52,2.52,2.52,2.52,0,0,0-2.52-2.52"/><path class="e" d="M13.62,16a4.52,4.52,0,1,1,4.52-4.52A4.53,4.53,0,0,1,13.62,16m0-7a2.52,2.52,0,1,0,2.52,2.52A2.52,2.52,0,0,0,13.62,9"/><path class="e" d="M45.91,16a4.52,4.52,0,1,1,4.52-4.52A4.53,4.53,0,0,1,45.91,16m0-7a2.52,2.52,0,1,0,2.52,2.52A2.52,2.52,0,0,0,45.91,9"/><rect class="f" x="19.78" y="67.97" width="19.98" height="19.97"/><path class="g" d="M39.12,17H20.41a.58.58,0,0,1-.57-.57V2.51a.57.57,0,0,1,.57-.57H39.12a.57.57,0,0,1,.57.57V16.44a.58.58,0,0,1-.57.57"/><path class="h" d="M21.26,0a.56.56,0,0,0-.54.4l-.31,1L19.84,2V16.44a.57.57,0,0,0,.57.57h3.46a.28.28,0,0,0,.28-.28V15.9a.57.57,0,0,0-.29-.5l-1.93-1.05a.57.57,0,0,1-.29-.5V13H22.9v-.95h1.94V13H26v2a.57.57,0,0,0,.57.57h.92v-1h4.59v1H33a.57.57,0,0,0,.57-.57V13h1.14v-.95h1.94V13h1.26v.83a.57.57,0,0,1-.29.5L35.67,15.4a.57.57,0,0,0-.29.5v.83a.28.28,0,0,0,.28.28h3.46a.57.57,0,0,0,.57-.57V2l-.57-.57-.31-1a.56.56,0,0,0-.54-.4Z"/><path class="h" d="M20.47,2.88a9.27,9.27,0,0,1-.73-1,3.14,3.14,0,0,1-.3-.61,5.17,5.17,0,0,1-.19-.64.35.35,0,0,1,.27-.4.34.34,0,0,1,.39.22h0a3,3,0,0,0,.52,1,10.53,10.53,0,0,0,.79.87h0a.5.5,0,1,1-.71.7.1.1,0,0,1,0-.05"/><path class="h" d="M38.31,2.23a10.53,10.53,0,0,0,.79-.87,3,3,0,0,0,.52-1h0a.34.34,0,0,1,.43-.21.34.34,0,0,1,.23.39,5.17,5.17,0,0,1-.19.64,3.14,3.14,0,0,1-.3.61,10.72,10.72,0,0,1-.72,1,.5.5,0,0,1-.81-.6l0,0Z"/><path class="h" d="M26.78,106H19.41a.57.57,0,0,1-.57-.57v-4.53a.57.57,0,0,1,.57-.57h7.37a.57.57,0,0,1,.57.57v4.53a.57.57,0,0,1-.57.57"/><rect class="i" x="16.2" y="54.3" width="5.67" height="8.5"/><rect class="i" x="34.24" y="31.85" width="7.09" height="7.09"/><rect class="i" x="44.47" y="19.59" width="4.25" height="7.09"/><path class="j" d="M16.09,32.84h7.37a.56.56,0,0,1,.57.56V43.61a.57.57,0,0,1-.57.57H16.09a.57.57,0,0,1-.56-.57V33.4a.56.56,0,0,1,.56-.56"/><path class="k" d="M19.78,33.54h0a3.55,3.55,0,0,1,3.54,3.55v2.83a3.55,3.55,0,1,1-7.09,0V37.09a3.55,3.55,0,0,1,3.55-3.55"/><path class="k" d="M15.53,33.4v1.07a.56.56,0,0,0,1,.4l1.07-1.07a.56.56,0,0,0-.4-1H16.09a.56.56,0,0,0-.56.56"/><path class="k" d="M23.46,32.84H22.4a.56.56,0,0,0-.4,1l1.06,1.07a.57.57,0,0,0,1-.4V33.4a.56.56,0,0,0-.57-.56"/><path class="k" d="M24,43.58V42.51a.57.57,0,0,0-1-.4L22,43.18a.56.56,0,0,0,.4,1h1.06a.56.56,0,0,0,.57-.56"/><path class="k" d="M16.09,44.14h1.07a.56.56,0,0,0,.4-1l-1.07-1.07a.56.56,0,0,0-1,.4v1.07a.56.56,0,0,0,.56.56"/><path class="i" d="M43.76,38.37V32.42a.57.57,0,0,1,.56-.57h4.54a.58.58,0,0,1,.57.57v5.95a.57.57,0,0,1-.57.57H44.32a.56.56,0,0,1-.56-.57"/><rect class="h" x="34.95" y="40.19" width="5.67" height="4.25"/><rect class="h" x="40.62" y="47.93" width="2.84" height="5.67"/><rect class="i" x="40.62" y="48.93" width="2.84" height="3.69"/><rect class="h" x="34.95" y="26.27" width="5.67" height="4.25"/><rect class="l" x="35.66" y="26.27" width="4.25" height="4.25"/><rect class="l" x="35.66" y="40.19" width="4.25" height="4.25"/><path class="d" d="M46.88,132a1.2,1.2,0,1,1-1.19,1.19A1.19,1.19,0,0,1,46.88,132"/><path class="d" d="M13.43,25a1.2,1.2,0,1,1-1.19,1.2A1.2,1.2,0,0,1,13.43,25"/><rect class="h" x="20.41" y="25.6" width="2.84" height="1.42"/><rect class="i" x="20.77" y="25.6" width="2.13" height="1.42"/><rect class="h" x="47.06" y="62.13" width="1.42" height="2.83"/><rect class="i" x="47.06" y="62.48" width="1.42" height="2.13"/><rect class="h" x="47.06" y="62.13" width="1.42" height="2.83"/><rect class="i" x="45.93" y="55.49" width="4.25" height="1.42"/><rect class="i" x="47.06" y="62.48" width="1.42" height="2.13"/><rect class="h" x="44.35" y="62.13" width="1.42" height="2.83"/><rect class="i" x="44.35" y="62.48" width="1.42" height="2.13"/><rect class="h" x="41.64" y="62.13" width="1.42" height="2.83"/><rect class="d" x="41.64" y="62.48" width="1.42" height="2.13"/><rect class="h" x="33.13" y="62.48" width="1.06" height="2.13"/><rect class="i" x="33.13" y="62.84" width="1.06" height="1.42"/><rect class="h" x="31.1" y="62.48" width="1.06" height="2.13"/><rect class="i" x="31.1" y="62.84" width="1.06" height="1.42"/><rect class="h" x="29.07" y="62.48" width="1.06" height="2.13"/><rect class="d" x="29.07" y="62.84" width="1.06" height="1.42"/><rect class="h" x="46.06" y="48.91" width="1.06" height="2.13"/><rect class="d" x="46.06" y="49.26" width="1.06" height="1.42"/><rect class="h" x="27.03" y="62.48" width="1.06" height="2.13"/><rect class="d" x="27.03" y="62.84" width="1.06" height="1.42"/><rect class="h" x="16.18" y="50.77" width="1.06" height="2.13"/><rect class="d" x="16.18" y="51.12" width="1.06" height="1.42"/><rect class="h" x="31.13" y="91.65" width="1.06" height="2.13"/><rect class="d" x="31.13" y="92.01" width="1.06" height="1.42"/><rect class="h" x="29.1" y="91.65" width="1.06" height="2.13"/><rect class="d" x="29.1" y="92.01" width="1.06" height="1.42"/><rect class="h" x="29.1" y="100.31" width="1.06" height="2.13"/><rect class="d" x="29.1" y="100.66" width="1.06" height="1.42"/><rect class="h" x="15.83" y="103.85" width="1.06" height="2.13"/><rect class="d" x="15.83" y="104.21" width="1.06" height="1.42"/><rect class="h" x="37.78" y="62.13" width="1.42" height="2.83"/><rect class="d" x="37.78" y="62.48" width="1.42" height="2.13"/><rect class="h" x="35.08" y="62.13" width="1.42" height="2.83"/><rect class="d" x="35.08" y="62.48" width="1.42" height="2.13"/><rect class="h" x="20.41" y="23.13" width="2.84" height="1.42"/><rect class="i" x="20.77" y="23.13" width="2.13" height="1.42"/><rect class="h" x="36.37" y="23.13" width="2.84" height="1.42"/><rect class="i" x="36.72" y="23.13" width="2.13" height="1.42"/><rect class="h" x="13.42" y="54.3" width="1.42" height="2.83"/><rect class="i" x="13.42" y="54.65" width="1.42" height="2.13"/><rect class="h" x="13.42" y="59.97" width="1.42" height="2.83"/><rect class="i" x="13.42" y="60.32" width="1.42" height="2.13"/><rect class="h" x="48.42" y="47.93" width="1.42" height="2.83"/><rect class="i" x="48.42" y="48.29" width="1.42" height="2.13"/><rect class="h" x="41.38" y="69.12" width="2.13" height="1.06"/><rect class="d" x="41.73" y="69.12" width="1.42" height="1.06"/><rect class="h" x="15.82" y="70.21" width="2.13" height="1.06"/><rect class="d" x="16.18" y="70.21" width="1.42" height="1.06"/><rect class="h" x="15.82" y="80.72" width="2.13" height="1.06"/><rect class="d" x="16.18" y="80.72" width="1.42" height="1.06"/><rect class="h" x="42.42" y="81.15" width="1.06" height="2.13" transform="translate(-45.55 54.45) rotate(-45)"/><rect class="d" x="42.42" y="81.51" width="1.06" height="1.42" transform="translate(-45.57 54.51) rotate(-45.04)"/><rect class="h" x="45.41" y="78.44" width="2.84" height="1.42"/><rect class="i" x="45.76" y="78.44" width="2.13" height="1.42"/><rect class="h" x="45.41" y="78.44" width="2.84" height="1.42"/><rect class="i" x="45.76" y="78.44" width="2.13" height="1.42"/><rect class="h" x="45.41" y="75.73" width="2.84" height="1.42"/><rect class="i" x="45.76" y="75.73" width="2.13" height="1.42"/><rect class="h" x="14.76" y="67.5" width="2.84" height="1.42"/><rect class="d" x="15.12" y="67.5" width="2.13" height="1.42"/><rect class="h" x="24.92" y="96.65" width="2.83" height="1.42"/><rect class="i" x="25.27" y="96.65" width="2.13" height="1.42"/><rect class="h" x="24.92" y="96.65" width="2.83" height="1.42"/><rect class="i" x="25.27" y="96.65" width="2.13" height="1.42"/><path class="k" d="M38.43,121.83l-.21-.31a4.07,4.07,0,0,0-2.37-4c.36-.1.77-.2.87-.67a1,1,0,0,0,.88-.77c.16-.1.78-.47.67-1a.83.83,0,0,0,.41-.93c.37-.36.47-.67.31-1a.75.75,0,0,0,.06-1.09c.31-.56.05-1.18-.83-1.08a1.38,1.38,0,0,0-1.24-.41.82.82,0,0,0-.82-.26,1,1,0,0,0-1.14-.1c-.46-.36-.77-.06-1.14,0-.56-.21-.72,0-1,.15-.61-.15-.82.16-1.13.47h-.36a4.27,4.27,0,0,0-1.6,2.22,3.65,3.65,0,0,0-1.6-2.22h-.36a1.07,1.07,0,0,0-1.14-.47c-.25-.1-.41-.36-1-.15a3.91,3.91,0,0,0-.72-.21.94.94,0,0,0-.47.16,1,1,0,0,0-1.13.1c-.52,0-.72.05-.83.26-.1,0-.87-.1-1.23.41-.88-.1-1.14.52-.83,1.08a.79.79,0,0,0,.05,1.09c-.15.31-.05.62.31,1a.87.87,0,0,0,.41.93c-.05.57.52.88.67,1,.06.31.21.62.88.77.1.47.52.57.88.67a4.12,4.12,0,0,0-2.37,4l-.21.31a4,4,0,0,0-.72,6,12.82,12.82,0,0,0,.56,1.8,4.54,4.54,0,0,0,2.79,3.51,10.79,10.79,0,0,0,2.63,1.5,4.45,4.45,0,0,0,3.25,1.44h.06A4.45,4.45,0,0,0,33,134.63a8.52,8.52,0,0,0,2.63-1.5,4.37,4.37,0,0,0,2.79-3.51,12.82,12.82,0,0,0,.56-1.8,3.8,3.8,0,0,0-.51-6m-1.09-.41c-.05.92-5-3.31-4.18-3.46,2.33-.36,4.23,1,4.18,3.46m-2.22,4.69a2.92,2.92,0,0,1-4-1.13,2.89,2.89,0,0,1,.52-4.08,2.93,2.93,0,0,1,4,1.13,2.88,2.88,0,0,1-.52,4.08m-3.4-14.6c.05.2.1.36.15.36a6.91,6.91,0,0,1,.83-.88c0,.16-.1.36.1.47a3.47,3.47,0,0,1,.78-.68c-.16.26-.06.37.05.47a2.67,2.67,0,0,1,1-.62c-.16.15-.31.31-.11.52a3.47,3.47,0,0,1,1.19-.47c-.15.16-.46.31-.26.47a6.56,6.56,0,0,1,1.14-.26c-.21.15-.36.31-.21.46a2.82,2.82,0,0,1,1.35-.15l-.32.31a6,6,0,0,0,1.19,0,3.1,3.1,0,0,0-.46.93c.05.05.31,0,.51,0-.25.51-.67.62-.72.82a.53.53,0,0,0,.57,0c-.16.36-.52.57-.83.88.06,0,.21.1.52,0a7.64,7.64,0,0,1-.93.78,3,3,0,0,0,.51.1,5.33,5.33,0,0,1-1.18.72.64.64,0,0,0,.51.11,4,4,0,0,1-1.23.51c.1.16.15.16.36.21-.47.26-1.19.15-1.4.26.06.15.16.2.37.31-.78.05-2.89-.06-3.31-1.66a16.32,16.32,0,0,1,4.75-3.14,15.34,15.34,0,0,0-5.16,2.73c-1.81-.82-.62-2.84.26-3.66M30,117.34h0c1.24,0,2.74.88,2.74,1.75s-1.09,1.4-2.74,1.35-2.73-.78-2.73-1.5,1.34-1.65,2.73-1.6m-6.24-.67c.21,0,.26,0,.36-.21a4,4,0,0,1-1.24-.51.66.66,0,0,0,.52-.11,5.17,5.17,0,0,1-1.19-.72c.21,0,.46,0,.52-.1a3.22,3.22,0,0,1-.93-.78.69.69,0,0,0,.51,0,6.2,6.2,0,0,1-.82-.88c.2,0,.41.11.56,0-.1-.2-.51-.36-.72-.82.21,0,.47.05.52,0a2.88,2.88,0,0,0-.47-.93,5.6,5.6,0,0,0,1.19,0l-.31-.31a2.29,2.29,0,0,1,1.34.15c.16-.1,0-.26-.2-.46a6.44,6.44,0,0,1,1.13.26c.16-.16-.1-.31-.26-.47a2.84,2.84,0,0,1,1.19.47c.21-.21,0-.37-.1-.52a2.85,2.85,0,0,1,1,.62c.1-.1.2-.21.05-.47a2.08,2.08,0,0,1,.77.67c.21-.15.11-.3.11-.46a4.52,4.52,0,0,1,.82.88.8.8,0,0,0,.16-.36c.82.82,2,2.84.31,3.61a16.62,16.62,0,0,0-5.16-2.74,17.29,17.29,0,0,1,4.74,3.15c-.41,1.6-2.52,1.71-3.3,1.65a.51.51,0,0,0,.36-.31,4.06,4.06,0,0,1-1.44-.2m3,1.24c.88.15-4.07,4.38-4.18,3.45,0-2.47,1.86-3.81,4.18-3.45m-5.21,9.44a3.15,3.15,0,0,1,.62-5c1.34-.31.46,5.53-.62,5m4.59,5c-.67.41-2.32.25-3.51-1.4-.77-1.39-.67-2.78-.15-3.2.82-.51,2.12.16,3.1,1.29.87,1,1.29,2.79.56,3.31m-1.34-6.09a3.17,3.17,0,1,1,4-1.14,2.94,2.94,0,0,1-4,1.14M30,135.2c-1.49.05-2.94-1.19-2.94-1.66,0-.62,1.81-1.13,3-1.13s2.84.36,2.84,1S31.41,135.2,30,135.2m3-6.35a2.89,2.89,0,0,1-3,2.73,2.84,2.84,0,0,1-3-2.73v0a2.88,2.88,0,0,1,3-2.74,2.93,2.93,0,0,1,3,2.79M37.14,131c-1.29,1.75-3,1.8-3.67,1.34-.67-.62-.15-2.58.78-3.67s2.22-2,3-1.34a3.35,3.35,0,0,1-.1,3.67m1.13-3.72c-1.08.46-2-5.32-.62-5a3.12,3.12,0,0,1,.62,5"/><path class="k" d="M24.49,142.15v-2.49h.6a.85.85,0,0,1,.67.27,1.13,1.13,0,0,1,.25.77v.42a1.1,1.1,0,0,1-.25.76.91.91,0,0,1-.71.27Zm.32-2.22v1.95h.25a.57.57,0,0,0,.48-.19,1,1,0,0,0,.16-.56v-.44a.86.86,0,0,0-.16-.58.55.55,0,0,0-.45-.18Z"/><polygon class="k" points="28.04 141 27.16 141 27.16 141.88 28.18 141.88 28.18 142.15 26.84 142.15 26.84 139.66 28.16 139.66 28.16 139.93 27.16 139.93 27.16 140.73 28.04 140.73 28.04 141"/><path class="k" d="M28.93,142.15v-2.49h.71a.6.6,0,0,1,.68.66.62.62,0,0,1-.08.31.61.61,0,0,1-.24.21.46.46,0,0,1,.27.21.65.65,0,0,1,.1.38.76.76,0,0,1-.18.53.74.74,0,0,1-.53.19Zm.31-1.43h.4a.37.37,0,0,0,.27-.11.44.44,0,0,0,.1-.29.41.41,0,0,0-.09-.3.39.39,0,0,0-.28-.09h-.4Zm0,.26v.9h.43a.35.35,0,0,0,.28-.12.47.47,0,0,0,.11-.33c0-.3-.13-.45-.38-.45Z"/><path class="k" d="M32.67,139.66v1.77a.74.74,0,0,1-.2.55.75.75,0,0,1-.57.2.76.76,0,0,1-.56-.19.81.81,0,0,1-.2-.56v-1.77h.31v1.76a.56.56,0,0,0,.11.37.44.44,0,0,0,.34.12.43.43,0,0,0,.35-.12.56.56,0,0,0,.11-.37v-1.76Z"/><path class="k" d="M35.06,141.84l-.05.07a.87.87,0,0,1-.69.27.8.8,0,0,1-.64-.27,1.12,1.12,0,0,1-.23-.75v-.49a1.21,1.21,0,0,1,.21-.78.72.72,0,0,1,.62-.26.76.76,0,0,1,.56.19.83.83,0,0,1,.22.57h-.31a.59.59,0,0,0-.13-.36.41.41,0,0,0-.33-.14.45.45,0,0,0-.4.18,1.1,1.1,0,0,0-.13.56v.51a.92.92,0,0,0,.15.57.45.45,0,0,0,.41.2.54.54,0,0,0,.38-.12l0,0v-.57h-.46v-.27h.77Z"/><path class="k" d="M13.6,46.4H11.11v-.71a.7.7,0,0,1,.17-.51.63.63,0,0,1,.49-.18.54.54,0,0,1,.31.09.61.61,0,0,1,.21.24.41.41,0,0,1,.21-.27.67.67,0,0,1,.38-.1.74.74,0,0,1,.53.18.68.68,0,0,1,.19.52Zm-1.43-.32v-.4a.31.31,0,0,0-.11-.26.39.39,0,0,0-.29-.1.43.43,0,0,0-.3.09.38.38,0,0,0-.09.28v.39Zm.27,0h.89v-.42a.34.34,0,0,0-.12-.28.44.44,0,0,0-.32-.11c-.3,0-.45.13-.45.38Z"/><path class="k" d="M12.57,42.52a1.24,1.24,0,0,1,.79.22.73.73,0,0,1,.27.61.77.77,0,0,1-.26.61,1.15,1.15,0,0,1-.76.23h-.47a1.23,1.23,0,0,1-.78-.22.72.72,0,0,1-.28-.61.77.77,0,0,1,.27-.62,1.24,1.24,0,0,1,.77-.22Zm-.43.31a1.12,1.12,0,0,0-.59.13.45.45,0,0,0-.19.4.44.44,0,0,0,.19.39,1,1,0,0,0,.58.13h.44a1.08,1.08,0,0,0,.59-.13.45.45,0,0,0,.2-.4.47.47,0,0,0-.19-.39,1.12,1.12,0,0,0-.56-.13Z"/><path class="k" d="M12.57,40.07a1.3,1.3,0,0,1,.79.21.85.85,0,0,1,0,1.23,1.21,1.21,0,0,1-.76.23h-.47a1.23,1.23,0,0,1-.78-.22.73.73,0,0,1-.28-.61.75.75,0,0,1,.27-.62,1.24,1.24,0,0,1,.77-.22Zm-.43.31a1,1,0,0,0-.59.13.44.44,0,0,0-.19.39.45.45,0,0,0,.19.4,1.11,1.11,0,0,0,.58.13h.44a1.08,1.08,0,0,0,.59-.13.45.45,0,0,0,.2-.4.47.47,0,0,0-.19-.39,1,1,0,0,0-.56-.13Z"/><polygon class="k" points="11.38 37.83 11.38 38.48 13.6 38.48 13.6 38.79 11.38 38.79 11.38 39.45 11.11 39.45 11.11 37.83 11.38 37.83"/><path class="k" d="M13,36.05a.36.36,0,0,0-.28.1,1,1,0,0,0-.2.36,1.56,1.56,0,0,1-.2.41.55.55,0,0,1-.23.2.6.6,0,0,1-.3.07.66.66,0,0,1-.49-.19.73.73,0,0,1-.19-.52.8.8,0,0,1,.09-.39.7.7,0,0,1,.28-.26.8.8,0,0,1,.38-.1v.32a.57.57,0,0,0-.36.11.41.41,0,0,0-.12.32.38.38,0,0,0,.1.29.41.41,0,0,0,.3.11.36.36,0,0,0,.26-.11,1,1,0,0,0,.19-.35,1.19,1.19,0,0,1,.3-.53.72.72,0,0,1,.47-.16.63.63,0,0,1,.48.2.76.76,0,0,1,.18.53.87.87,0,0,1-.09.4.63.63,0,0,1-.27.29.71.71,0,0,1-.39.11v-.32a.44.44,0,0,0,.49-.48.43.43,0,0,0-.11-.31.39.39,0,0,0-.29-.1"/><polygon class="k" points="12.45 33.78 12.45 34.66 13.33 34.66 13.33 33.63 13.6 33.63 13.6 34.97 11.11 34.97 11.11 33.65 11.38 33.65 11.38 34.66 12.18 34.66 12.18 33.78 12.45 33.78"/><polygon class="k" points="13.33 32.57 13.33 31.59 13.6 31.59 13.6 32.88 11.11 32.88 11.11 32.57 13.33 32.57"/><polygon class="k" points="10.96 22.86 11.93 22.86 11.93 23.13 10.64 23.13 10.64 20.64 10.96 20.64 10.96 22.86"/><polygon class="k" points="13.85 21.98 12.97 21.98 12.97 22.86 13.99 22.86 13.99 23.13 12.66 23.13 12.66 20.64 13.98 20.64 13.98 20.91 12.97 20.91 12.97 21.71 13.85 21.71 13.85 21.98"/><path class="k" d="M14.74,23.13V20.65h.6a.85.85,0,0,1,.67.27,1.13,1.13,0,0,1,.24.77v.41a1.08,1.08,0,0,1-.24.76.91.91,0,0,1-.71.27Zm.32-2.22v2h.25a.59.59,0,0,0,.48-.19,1,1,0,0,0,.16-.56v-.44a.89.89,0,0,0-.16-.58.56.56,0,0,0-.45-.19Z"/><polygon class="k" points="8.15 10.74 7.85 10.74 7.85 8.63 7.32 8.87 7.32 8.58 8.1 8.24 8.15 8.24 8.15 10.74"/><path class="k" d="M8.64,17.94H7.25v-.23L8,16.78a2,2,0,0,0,.22-.36.73.73,0,0,0,.07-.3.53.53,0,0,0-.1-.32.29.29,0,0,0-.24-.12.34.34,0,0,0-.29.13.59.59,0,0,0-.11.38h-.3a.79.79,0,0,1,.19-.56.64.64,0,0,1,.51-.21.63.63,0,0,1,.47.18.69.69,0,0,1,.17.49,1.54,1.54,0,0,1-.39.87l-.55.72h1Z"/><path class="k" d="M49.22,16.54h.19a.36.36,0,0,0,.29-.11.45.45,0,0,0,.1-.31c0-.3-.11-.44-.34-.44a.29.29,0,0,0-.25.12.45.45,0,0,0-.1.31h-.3a.71.71,0,0,1,.18-.5.69.69,0,0,1,.94,0,.77.77,0,0,1,.17.52.63.63,0,0,1-.09.33.6.6,0,0,1-.23.22.55.55,0,0,1,.35.58.72.72,0,0,1-.19.53.63.63,0,0,1-.48.2.66.66,0,0,1-.48-.19.7.7,0,0,1-.18-.5h.3a.45.45,0,0,0,.1.31.31.31,0,0,0,.26.12.34.34,0,0,0,.27-.12.53.53,0,0,0,.1-.34c0-.31-.14-.46-.43-.46h-.18Z"/><path class="k" d="M51.9,16.88a.53.53,0,0,1-.42.23.5.5,0,0,1-.43-.23,1,1,0,0,1-.16-.6,1,1,0,0,1,.17-.62.57.57,0,0,1,.48-.24.56.56,0,0,1,.49.27,1.38,1.38,0,0,1,.18.76v.09a2.45,2.45,0,0,1-.07.67,1,1,0,0,1-.18.41.67.67,0,0,1-.31.24,1.07,1.07,0,0,1-.47.08v-.26h0a.64.64,0,0,0,.49-.2,1,1,0,0,0,.18-.6m-.37,0a.3.3,0,0,0,.21-.09.61.61,0,0,0,.17-.24v-.14a1.06,1.06,0,0,0-.11-.5.31.31,0,0,0-.26-.2.3.3,0,0,0-.26.16.77.77,0,0,0-.1.42.78.78,0,0,0,.1.43.28.28,0,0,0,.25.16"/><path class="k" d="M28.15,20.65v1.76a.79.79,0,0,1-.21.56.77.77,0,0,1-.56.2.69.69,0,0,1-.76-.76V20.65h.31V22.4a.54.54,0,0,0,.11.38.43.43,0,0,0,.34.12.46.46,0,0,0,.35-.12.59.59,0,0,0,.1-.38V20.65Z"/><path class="k" d="M30.07,22.5a.38.38,0,0,0-.11-.28A.83.83,0,0,0,29.6,22a1.84,1.84,0,0,1-.4-.2.79.79,0,0,1-.21-.24.6.6,0,0,1-.07-.3.66.66,0,0,1,.2-.49.69.69,0,0,1,.52-.19.76.76,0,0,1,.39.1.62.62,0,0,1,.26.27.82.82,0,0,1,.09.38h-.31A.52.52,0,0,0,30,21a.41.41,0,0,0-.32-.13.37.37,0,0,0-.3.11.39.39,0,0,0-.1.29.33.33,0,0,0,.11.27,1,1,0,0,0,.35.19,1.15,1.15,0,0,1,.52.3.63.63,0,0,1,.16.46.66.66,0,0,1-.19.49.78.78,0,0,1-.54.18.79.79,0,0,1-.4-.1.73.73,0,0,1-.29-.26.77.77,0,0,1-.1-.4h.31a.45.45,0,0,0,.13.36.46.46,0,0,0,.35.13.42.42,0,0,0,.31-.11.38.38,0,0,0,.11-.29"/><path class="k" d="M31.14,23.13V20.65h.71a.69.69,0,0,1,.51.16.65.65,0,0,1,.18.5.56.56,0,0,1-.09.31.68.68,0,0,1-.24.2.48.48,0,0,1,.27.21.71.71,0,0,1,.1.39.73.73,0,0,1-.18.52.68.68,0,0,1-.52.19Zm.32-1.42h.4a.35.35,0,0,0,.26-.11.51.51,0,0,0,0-.59.38.38,0,0,0-.28-.1h-.39Zm0,.26v.9h.42a.34.34,0,0,0,.28-.12.49.49,0,0,0,.11-.33c0-.3-.13-.45-.38-.45Z"/><path class="k" d="M11.88,136.45v.63h1.44v.44H9.76v-1a1.07,1.07,0,0,1,.27-.79,1.11,1.11,0,0,1,.8-.27,1.21,1.21,0,0,1,.58.14,1,1,0,0,1,.37.42l1.51-.69h0v.48Zm-.38.63v-.55a.55.55,0,0,0-.19-.44.64.64,0,0,0-.48-.17c-.46,0-.68.2-.68.62v.54Z"/><path class="k" d="M13.32,132.82a.85.85,0,0,1-.29.06.7.7,0,0,1,.34.58.72.72,0,0,1-.77.77A.82.82,0,0,1,12,134a1.09,1.09,0,0,1-.24-.75v-.32h-.28a.45.45,0,0,0-.34.11.44.44,0,0,0-.1.32.48.48,0,0,0,.11.32.41.41,0,0,0,.3.12v.43a.69.69,0,0,1-.39-.12.89.89,0,0,1-.29-.32,1,1,0,0,1-.1-.45.84.84,0,0,1,.2-.62.77.77,0,0,1,.59-.21h1.33a1.68,1.68,0,0,0,.53-.09h0Zm-.35.58a.68.68,0,0,0-.08-.31.73.73,0,0,0-.22-.21H12v.25a.89.89,0,0,0,.13.49.55.55,0,0,0,.7.08.38.38,0,0,0,.1-.3"/><path class="k" d="M12.64,129.75a.34.34,0,0,0-.24.11,1.76,1.76,0,0,0-.23.4,2.64,2.64,0,0,1-.25.49.68.68,0,0,1-.23.22.74.74,0,0,1-.31.07.68.68,0,0,1-.54-.24,1,1,0,0,1,0-1.22.75.75,0,0,1,.58-.23v.43a.45.45,0,0,0-.31.12.46.46,0,0,0,0,.6.33.33,0,0,0,.26.11.29.29,0,0,0,.21-.08,1.24,1.24,0,0,0,.22-.38,1.93,1.93,0,0,1,.36-.66.65.65,0,0,1,.46-.17.69.69,0,0,1,.55.24.9.9,0,0,1,.21.63.93.93,0,0,1-.24.67.79.79,0,0,1-.6.26v-.44a.46.46,0,0,0,.34-.13.58.58,0,0,0,0-.69.33.33,0,0,0-.26-.11"/><path class="k" d="M12.12,126.1a1.61,1.61,0,0,1,.94.23.75.75,0,0,1,.31.63.72.72,0,0,1-.3.62h1.26V128H10.68v-.39l.29,0a.68.68,0,0,1-.34-.62.75.75,0,0,1,.3-.65,1.58,1.58,0,0,1,.91-.22Zm-.24.43a1.16,1.16,0,0,0-.66.14.48.48,0,0,0-.21.44.51.51,0,0,0,.31.47h1.37a.51.51,0,0,0,.31-.48.48.48,0,0,0-.21-.43,1.23,1.23,0,0,0-.65-.14Z"/><path class="k" d="M12.12,122.88a1.56,1.56,0,0,1,.93.22.74.74,0,0,1,.32.64.66.66,0,0,1-.37.63l.32,0v.39H9.57v-.43H11a.66.66,0,0,1-.34-.61.74.74,0,0,1,.3-.65,1.6,1.6,0,0,1,.93-.22Zm-.24.43a1.23,1.23,0,0,0-.67.13.48.48,0,0,0-.2.42.54.54,0,0,0,.36.5h1.26a.54.54,0,0,0,.35-.5.46.46,0,0,0-.2-.42,1.2,1.2,0,0,0-.64-.13Z"/><path class="k" d="M13.37,120.63a1,1,0,0,1-.3.76,1.32,1.32,0,0,1-.86.27h-.32a1.53,1.53,0,0,1-.93-.26.86.86,0,0,1-.33-.72.83.83,0,0,1,.29-.69,1.53,1.53,0,0,1,.92-.24h.29v1.48h.06a1,1,0,0,0,.61-.16.57.57,0,0,0,.2-.46.74.74,0,0,0-.08-.34.69.69,0,0,0-.22-.27l.27-.23a1,1,0,0,1,.4.86m-2.37.05a.46.46,0,0,0,.18.4,1.3,1.3,0,0,0,.57.15v-1H11.7a1,1,0,0,0-.54.13.41.41,0,0,0-.16.36"/><path class="k" d="M11.08,117.39a1.23,1.23,0,0,0,0,.2.47.47,0,0,0,.37.46h1.89v.44H10.68v-.42h.26a.54.54,0,0,1-.31-.49.4.4,0,0,1,0-.17Z"/><path class="k" d="M11.08,115.12a1.23,1.23,0,0,0,0,.2.47.47,0,0,0,.37.46h1.89v.43H10.68v-.42h.26a.54.54,0,0,1-.31-.49.4.4,0,0,1,0-.17Z"/><path class="k" d="M12.6,113.22l-1.92-.48v-.46l3,.86a1.22,1.22,0,0,1,.52.28.54.54,0,0,1,.17.41,1.12,1.12,0,0,1,0,.22H14V114a.44.44,0,0,0-.09-.29.6.6,0,0,0-.31-.17l-.29-.09-2.62.78v-.47Z"/><path class="k" d="M11.93,108.71h1.39v.44H9.76V108a1,1,0,0,1,.3-.78,1.09,1.09,0,0,1,.79-.28,1.1,1.1,0,0,1,.79.27,1.07,1.07,0,0,1,.29.76Zm-.39,0V108a.59.59,0,0,0-.18-.46.78.78,0,0,0-.51-.15.76.76,0,0,0-.51.16.55.55,0,0,0-.19.45v.69Z"/><path class="k" d="M10,105.19a.29.29,0,0,1,.19.06.25.25,0,0,1,.07.19.21.21,0,0,1-.07.18.29.29,0,0,1-.19.06.28.28,0,0,1-.18-.06.24.24,0,0,1,0-.36.24.24,0,0,1,.18-.07m3.35.47H10.67v-.43h2.65Z"/><path class="k" d="M11.93,101.4h1.39v.44H9.76v-1.13a1,1,0,0,1,.3-.78,1.09,1.09,0,0,1,.79-.28,1.1,1.1,0,0,1,.79.27,1.07,1.07,0,0,1,.29.76Zm-.39,0v-.69a.59.59,0,0,0-.18-.46.78.78,0,0,0-.51-.15.76.76,0,0,0-.51.16.55.55,0,0,0-.19.45v.69Z"/><path class="k" d="M10,97.88a.29.29,0,0,1,.19.06.24.24,0,0,1,.07.19.21.21,0,0,1-.07.18.29.29,0,0,1-.19.06.28.28,0,0,1-.18-.06.22.22,0,0,1-.08-.18.26.26,0,0,1,.08-.19.28.28,0,0,1,.18-.06m3.35.47H10.67v-.43h2.65Z"/><path class="k" d="M13,95.57a.44.44,0,0,0-.14-.34.49.49,0,0,0-.38-.14v-.41a.92.92,0,0,1,.64.27.89.89,0,0,1,.25.62.94.94,0,0,1-.31.75,1.42,1.42,0,0,1-.92.26h-.29a1.39,1.39,0,0,1-.91-.26.91.91,0,0,1-.31-.75.83.83,0,0,1,.25-.64,1,1,0,0,1,.7-.25v.41a.64.64,0,0,0-.44.14.43.43,0,0,0-.14.34.49.49,0,0,0,.19.43,1.07,1.07,0,0,0,.62.14h.33A1.17,1.17,0,0,0,12.8,96a.52.52,0,0,0,.2-.44"/><path class="k" d="M11.87,93.52a1.38,1.38,0,0,1-.91-.28.92.92,0,0,1-.33-.74,1,1,0,0,1,.32-.74,1.38,1.38,0,0,1,.9-.28h.27a1.39,1.39,0,0,1,.91.27,1,1,0,0,1,.34.75.9.9,0,0,1-.33.73,1.35,1.35,0,0,1-.88.29Zm.25-.43a1.16,1.16,0,0,0,.64-.16A.5.5,0,0,0,13,92.5c0-.39-.28-.58-.83-.59h-.3a1.1,1.1,0,0,0-.64.16.52.52,0,0,0,0,.86,1.19,1.19,0,0,0,.64.16Z"/><path class="k" d="M11.83,88.29A2.74,2.74,0,0,1,10.54,88a2.48,2.48,0,0,1-.93-.89,2.39,2.39,0,0,1-.34-1.22,2.36,2.36,0,0,1,.34-1.22,2.48,2.48,0,0,1,.93-.89,2.73,2.73,0,0,1,1.29-.31,2.78,2.78,0,0,1,1.26.3,2.48,2.48,0,0,1,.94.88,2.25,2.25,0,0,1,.36,1.24A2.35,2.35,0,0,1,14,87.1a2.41,2.41,0,0,1-.95.87,2.62,2.62,0,0,1-1.26.32m0-.4a2.26,2.26,0,0,0,1.09-.27,2,2,0,0,0,.79-.74,2.06,2.06,0,0,0,.28-1,2,2,0,0,0-1.07-1.76,2.26,2.26,0,0,0-1.09-.27,2.21,2.21,0,0,0-1.07.27,2,2,0,0,0-.78.74,1.92,1.92,0,0,0-.29,1,2,2,0,0,0,1.06,1.76,2.28,2.28,0,0,0,1.08.27m.46-3.12a1,1,0,0,1,.79.3,1.13,1.13,0,0,1,.28.83,1.09,1.09,0,0,1-.36.86,1.4,1.4,0,0,1-1,.33h-.38a1.37,1.37,0,0,1-1-.33,1.1,1.1,0,0,1-.36-.86,1.17,1.17,0,0,1,.28-.84,1,1,0,0,1,.79-.29v.5a.63.63,0,0,0-.49.16.68.68,0,0,0-.14.47.59.59,0,0,0,.23.51,1.08,1.08,0,0,0,.66.18H12a1.07,1.07,0,0,0,.65-.18.62.62,0,0,0,.23-.51.71.71,0,0,0-.14-.47.63.63,0,0,0-.49-.16Z"/><path class="k" d="M13.32,79.77v2H13l-1.34-1a2.81,2.81,0,0,0-.51-.32,1,1,0,0,0-.42-.09.74.74,0,0,0-.46.13.42.42,0,0,0-.18.35.52.52,0,0,0,.19.42.87.87,0,0,0,.54.14v.44a1.13,1.13,0,0,1-.79-.27.9.9,0,0,1-.31-.73.89.89,0,0,1,.26-.67,1,1,0,0,1,.7-.24,2.16,2.16,0,0,1,1.24.55l1,.79V79.77Z"/><path class="k" d="M11.8,76.64a2.41,2.41,0,0,1,1.18.23.79.79,0,0,1,.39.72.77.77,0,0,1-.38.71,2.18,2.18,0,0,1-1.12.25h-.61a2.32,2.32,0,0,1-1.16-.23.86.86,0,0,1,0-1.43,2.1,2.1,0,0,1,1.1-.25Zm-.62.44a2.17,2.17,0,0,0-.83.12.42.42,0,0,0-.27.4.4.4,0,0,0,.27.39,2,2,0,0,0,.79.13h.73a2.07,2.07,0,0,0,.85-.13.44.44,0,0,0,.28-.4.4.4,0,0,0-.27-.38,1.89,1.89,0,0,0-.81-.13Z"/><path class="k" d="M13.32,73.34v2H13l-1.34-1a3.52,3.52,0,0,0-.51-.32,1,1,0,0,0-.42-.09.81.81,0,0,0-.46.13.42.42,0,0,0-.18.35.52.52,0,0,0,.19.42.87.87,0,0,0,.54.15v.43a1.13,1.13,0,0,1-.79-.27,1,1,0,0,1,0-1.4,1,1,0,0,1,.7-.24,2.16,2.16,0,0,1,1.24.55l1,.79V73.34Z"/><path class="k" d="M11.8,70.21a2.3,2.3,0,0,1,1.18.23.77.77,0,0,1,.39.72.8.8,0,0,1-.38.71,2.3,2.3,0,0,1-1.12.24h-.61a2.32,2.32,0,0,1-1.16-.23.77.77,0,0,1-.39-.72.79.79,0,0,1,.37-.71,2.11,2.11,0,0,1,1.1-.24Zm-.62.43a2.17,2.17,0,0,0-.83.12.43.43,0,0,0-.27.4.4.4,0,0,0,.27.39,2,2,0,0,0,.79.13h.73a2.07,2.07,0,0,0,.85-.13.42.42,0,0,0,.28-.39.4.4,0,0,0-.27-.39,2.06,2.06,0,0,0-.81-.13Z"/><path class="m" d="M22.07,83.39H21.8V84h-.2V82.46H22a.42.42,0,0,1,.47.47.49.49,0,0,1-.07.25.37.37,0,0,1-.18.17l.3.66h-.21Zm-.27-.17H22a.21.21,0,0,0,.19-.08.29.29,0,0,0,.08-.21c0-.2-.09-.3-.28-.3H21.8Z"/><path class="m" d="M23.19,83.41V84H23V82.46h.5a.44.44,0,0,1,.34.13.5.5,0,0,1,.12.35.52.52,0,0,1-.11.35.47.47,0,0,1-.34.12Zm0-.17h.3a.27.27,0,0,0,.2-.07.39.39,0,0,0,.07-.23.42.42,0,0,0-.07-.23.28.28,0,0,0-.2-.08h-.3Z"/><path class="m" d="M25.26,84h-.88v-.14l.45-.59a.85.85,0,0,0,.14-.22.41.41,0,0,0,0-.19.32.32,0,0,0-.06-.2.19.19,0,0,0-.15-.08.26.26,0,0,0-.19.08.43.43,0,0,0-.06.24h-.19a.51.51,0,0,1,.12-.35.39.39,0,0,1,.32-.13.4.4,0,0,1,.29.11.41.41,0,0,1,.11.31,1,1,0,0,1-.24.55l-.35.45h.65Z"/><rect class="m" x="25.62" y="83.28" width="0.44" height="0.16"/><path class="m" d="M27.26,82.87a.46.46,0,0,1-.05.21.38.38,0,0,1-.14.14.41.41,0,0,1,.22.38.49.49,0,0,1-.11.33.41.41,0,0,1-.31.12.41.41,0,0,1-.3-.12.45.45,0,0,1-.12-.33.46.46,0,0,1,.06-.23.46.46,0,0,1,.16-.15.38.38,0,0,1-.19-.35.43.43,0,0,1,.11-.31.36.36,0,0,1,.28-.12.38.38,0,0,1,.28.11.48.48,0,0,1,.11.32m-.16.73a.38.38,0,0,0-.06-.22.21.21,0,0,0-.17-.08.23.23,0,0,0-.17.08.38.38,0,0,0-.06.22.33.33,0,0,0,.06.21.21.21,0,0,0,.17.07.19.19,0,0,0,.17-.07.33.33,0,0,0,.06-.21m0-.73a.36.36,0,0,0-.05-.19.19.19,0,0,0-.15-.08.16.16,0,0,0-.14.08.29.29,0,0,0-.06.19.32.32,0,0,0,.06.2.19.19,0,0,0,.14.07.21.21,0,0,0,.15-.07.39.39,0,0,0,.05-.2"/><path class="m" d="M28.6,83.36a1.17,1.17,0,0,1-.1.52.36.36,0,0,1-.32.17.34.34,0,0,1-.31-.17.91.91,0,0,1-.11-.49v-.27a1,1,0,0,1,.1-.51.35.35,0,0,1,.32-.17.34.34,0,0,1,.31.16,1,1,0,0,1,.11.48Zm-.19-.27a.86.86,0,0,0-.06-.37.18.18,0,0,0-.34,0,.79.79,0,0,0-.06.35v.32a.89.89,0,0,0,.06.37.18.18,0,0,0,.34,0,.84.84,0,0,0,.06-.36Z"/><path class="m" d="M32.84,84H32v-.14l.45-.59a1.27,1.27,0,0,0,.14-.22.41.41,0,0,0,0-.19.32.32,0,0,0-.06-.2.19.19,0,0,0-.15-.08.26.26,0,0,0-.19.08.43.43,0,0,0-.06.24h-.19a.51.51,0,0,1,.12-.35.39.39,0,0,1,.32-.13.4.4,0,0,1,.29.11.45.45,0,0,1,.11.31,1,1,0,0,1-.24.55l-.35.45h.65Z"/><path class="m" d="M34.11,83.36a1,1,0,0,1-.11.52.37.37,0,0,1-.62,0,.91.91,0,0,1-.11-.49v-.27a1,1,0,0,1,.1-.51.35.35,0,0,1,.32-.17.34.34,0,0,1,.31.16,1,1,0,0,1,.11.48Zm-.19-.27a.86.86,0,0,0-.06-.37.18.18,0,0,0-.17-.12.19.19,0,0,0-.18.12,1,1,0,0,0,0,.35v.32a1.13,1.13,0,0,0,0,.37.19.19,0,0,0,.18.12.17.17,0,0,0,.17-.11,1.32,1.32,0,0,0,.06-.36Z"/><polygon class="m" points="34.64 84.16 34.48 84.16 35.03 82.46 35.19 82.46 34.64 84.16"/><path class="m" d="M36.49,84h-.88v-.14l.45-.59a2.43,2.43,0,0,0,.14-.22.58.58,0,0,0,0-.19.32.32,0,0,0-.06-.2A.19.19,0,0,0,36,82.6a.24.24,0,0,0-.19.08.43.43,0,0,0-.06.24h-.19a.56.56,0,0,1,.11-.35.42.42,0,0,1,.33-.13.4.4,0,0,1,.29.11.45.45,0,0,1,.11.31,1,1,0,0,1-.24.55l-.35.45h.65Z"/><polygon class="m" points="37.48 84.02 37.29 84.02 37.29 82.7 36.96 82.85 36.96 82.67 37.45 82.45 37.48 82.45 37.48 84.02"/><path class="m" d="M21.77,85.91v.61h-.2V85h.5a.42.42,0,0,1,.34.13.46.46,0,0,1,.13.35.48.48,0,0,1-.12.35.45.45,0,0,1-.34.12Zm0-.17h.3a.26.26,0,0,0,.2-.07.33.33,0,0,0,.07-.23.35.35,0,0,0-.07-.23.26.26,0,0,0-.2-.08h-.3Z"/><path class="m" d="M23.63,85v.17h0a.35.35,0,0,0-.3.13.6.6,0,0,0-.12.37.32.32,0,0,1,.26-.13.34.34,0,0,1,.28.14.63.63,0,0,1,.1.38.61.61,0,0,1-.11.38.37.37,0,0,1-.61,0,.75.75,0,0,1-.12-.45v-.08a1.74,1.74,0,0,1,.07-.51.56.56,0,0,1,.21-.28.53.53,0,0,1,.34-.1Zm-.22.7a.2.2,0,0,0-.14.06.31.31,0,0,0-.1.15V86a.68.68,0,0,0,.07.31c.05.08.1.12.17.12a.17.17,0,0,0,.16-.1.48.48,0,0,0,.06-.26.46.46,0,0,0-.06-.25.18.18,0,0,0-.16-.11"/><path class="m" d="M25,86h.18v.16H25v.36H24.8v-.36h-.59V86L24.79,85H25Zm-.57,0h.38v-.74Z"/><polygon class="m" points="25.88 84.96 26.29 86.24 26.69 84.96 26.95 84.96 26.95 86.52 26.75 86.52 26.75 85.92 26.77 85.31 26.36 86.52 26.21 86.52 25.8 85.31 25.82 85.92 25.82 86.52 25.62 86.52 25.62 84.96 25.88 84.96"/><polygon class="m" points="28.03 86.52 27.84 86.52 27.84 85.2 27.51 85.35 27.51 85.17 28 84.95 28.03 84.95 28.03 86.52"/><path class="m" d="M28.85,85.74l.06-.78h.68v.18h-.52l0,.43a.37.37,0,0,1,.2-.07.33.33,0,0,1,.29.15.61.61,0,0,1,.11.38.56.56,0,0,1-.12.38.41.41,0,0,1-.6,0,.52.52,0,0,1-.12-.32H29a.4.4,0,0,0,.07.21.23.23,0,0,0,.16.06.2.2,0,0,0,.17-.09.42.42,0,0,0,.07-.26.46.46,0,0,0-.07-.25.21.21,0,0,0-.18-.1.23.23,0,0,0-.15,0l-.05,0Z"/><path class="m" d="M30.1,86.42a.16.16,0,0,1,0-.09.12.12,0,0,1,.09,0,.13.13,0,0,1,.1,0,.16.16,0,0,1,0,.09.11.11,0,0,1,0,.08.13.13,0,0,1-.1,0,.13.13,0,0,1-.09,0,.11.11,0,0,1,0-.08"/><path class="m" d="M31.71,85.86a1.17,1.17,0,0,1-.1.52.36.36,0,0,1-.32.17.34.34,0,0,1-.31-.17.91.91,0,0,1-.11-.49v-.27a1.09,1.09,0,0,1,.1-.51.36.36,0,0,1,.32-.17.34.34,0,0,1,.31.16.9.9,0,0,1,.11.48Zm-.19-.27a.86.86,0,0,0-.06-.37.18.18,0,0,0-.34,0,.79.79,0,0,0-.06.35v.32a.89.89,0,0,0,.06.37.18.18,0,0,0,.17.12.16.16,0,0,0,.17-.11.84.84,0,0,0,.06-.36Z"/><path class="m" d="M33,85.86a1,1,0,0,1-.1.52.33.33,0,0,1-.31.17.36.36,0,0,1-.32-.17,1,1,0,0,1-.1-.49v-.27a1,1,0,0,1,.1-.51.38.38,0,0,1,.63,0,1,1,0,0,1,.1.48Zm-.19-.27a.88.88,0,0,0,0-.37.19.19,0,0,0-.18-.12.19.19,0,0,0-.17.12,1,1,0,0,0-.05.35v.32a.91.91,0,0,0,.05.37.19.19,0,0,0,.18.12.18.18,0,0,0,.17-.11,1.06,1.06,0,0,0,0-.36Z"/><polygon class="m" points="35.12 85.13 34.71 85.13 34.71 86.53 34.52 86.53 34.52 85.13 34.1 85.13 34.1 84.96 35.12 84.96 35.12 85.13"/><polygon class="m" points="36.51 85.13 36.09 85.13 36.09 86.53 35.9 86.53 35.9 85.13 35.49 85.13 35.49 84.96 36.5 84.96 36.5 85.13 36.51 85.13"/><polygon class="m" points="37.89 85.13 37.48 85.13 37.48 86.53 37.28 86.53 37.28 85.13 36.87 85.13 36.87 84.96 37.89 84.96 37.89 85.13"/><path class="m" d="M33.27,75.84l-.08-.13a1.65,1.65,0,0,0-1-1.63c.14,0,.31-.08.35-.27a.41.41,0,0,0,.36-.31c.06,0,.31-.19.27-.4a.35.35,0,0,0,.17-.38q.21-.21.12-.39c.17-.21.11-.32,0-.44.13-.23,0-.48-.33-.44a.56.56,0,0,0-.5-.17.36.36,0,0,0-.34-.1.39.39,0,0,0-.46,0c-.19-.15-.31,0-.46,0s-.29,0-.39.06-.34.06-.46.19h-.15a1.77,1.77,0,0,0-.65.9,1.48,1.48,0,0,0-.64-.9H29c-.13-.13-.19-.23-.46-.19-.11,0-.17-.15-.4-.06s-.19-.09-.29-.09a.45.45,0,0,0-.19.07.39.39,0,0,0-.46,0c-.21,0-.29,0-.33.1s-.36,0-.5.17c-.36,0-.46.21-.34.44a.33.33,0,0,0,0,.44c-.06.12,0,.25.13.39a.35.35,0,0,0,.17.38c0,.23.2.36.27.4s.08.25.35.31c0,.19.21.23.36.27a1.66,1.66,0,0,0-1,1.63l-.09.13A1.6,1.6,0,0,0,26,78.26a5.26,5.26,0,0,0,.23.73,1.84,1.84,0,0,0,1.13,1.42A4.28,4.28,0,0,0,28.4,81a1.8,1.8,0,0,0,1.32.58h0A1.8,1.8,0,0,0,31.06,81a3.48,3.48,0,0,0,1.06-.61A1.75,1.75,0,0,0,33.25,79a5.26,5.26,0,0,0,.23-.73,1.53,1.53,0,0,0-.21-2.42m-.44-.17c0,.38-2-1.34-1.69-1.4a1.35,1.35,0,0,1,1.69,1.4m-.9,1.9a1.28,1.28,0,0,1-1.4-2.11,1.19,1.19,0,0,1,1.61.46,1.15,1.15,0,0,1-.21,1.65m-1.37-5.91c0,.08,0,.15.06.15a2.28,2.28,0,0,1,.33-.36c0,.06,0,.15,0,.19a1.21,1.21,0,0,1,.32-.27.11.11,0,0,0,0,.18,1.31,1.31,0,0,1,.4-.25c-.07.07-.13.13-.05.21a1.71,1.71,0,0,1,.48-.19c-.06.07-.18.13-.1.19a3.11,3.11,0,0,1,.46-.1c-.08.06-.15.12-.08.19a1,1,0,0,1,.54-.07l-.13.13a2.46,2.46,0,0,0,.48,0,1.22,1.22,0,0,0-.18.38s.12,0,.2,0c-.1.2-.27.25-.29.33a.24.24,0,0,0,.23,0c-.06.15-.21.23-.33.36s.08,0,.21,0a3.17,3.17,0,0,1-.38.31,1.3,1.3,0,0,0,.21,0,2,2,0,0,1-.48.29.25.25,0,0,0,.21,0,1.74,1.74,0,0,1-.5.2c0,.07.06.07.14.09-.18.1-.48.06-.56.1s.06.09.15.13c-.32,0-1.17,0-1.34-.67A6.62,6.62,0,0,1,32.54,72a6.53,6.53,0,0,0-2.09,1.11c-.73-.33-.25-1.15.11-1.48M29.85,74h0c.5,0,1.1.35,1.1.71s-.44.56-1.1.54-1.11-.31-1.11-.6.54-.67,1.11-.65m-2.53-.27c.08,0,.1,0,.14-.09a1.74,1.74,0,0,1-.5-.2.25.25,0,0,0,.21,0,2,2,0,0,1-.48-.29c.08,0,.19,0,.21,0a1.43,1.43,0,0,1-.38-.31.29.29,0,0,0,.21,0c-.1-.13-.25-.21-.33-.36a.3.3,0,0,0,.23,0c0-.08-.21-.15-.29-.33.08,0,.18,0,.2,0a1.22,1.22,0,0,0-.18-.38,2.34,2.34,0,0,0,.48,0l-.13-.13a.88.88,0,0,1,.54.07c.07,0,0-.11-.08-.19a3.11,3.11,0,0,1,.46.1c.06-.06,0-.12-.1-.19a1.42,1.42,0,0,1,.48.19c.08-.08,0-.14,0-.21a1.2,1.2,0,0,1,.39.26s.09-.09,0-.19a.79.79,0,0,1,.32.27c.08-.06,0-.13,0-.19a1.86,1.86,0,0,1,.33.36.72.72,0,0,0,.07-.15c.33.33.81,1.15.12,1.46A6.72,6.72,0,0,0,27.17,72a7.06,7.06,0,0,1,1.92,1.28c-.16.65-1,.69-1.33.67a.2.2,0,0,0,.14-.13,1.75,1.75,0,0,1-.58-.08m1.23.5c.35.06-1.65,1.78-1.69,1.4a1.35,1.35,0,0,1,1.69-1.4m-2.11,3.82a1.27,1.27,0,0,1,.25-2c.54-.13.19,2.23-.25,2m1.86,2a1.2,1.2,0,0,1-1.42-.56c-.32-.57-.27-1.13-.06-1.3s.85.06,1.25.52.52,1.13.23,1.34m-.54-2.47A1.18,1.18,0,0,1,27.55,76a1.1,1.1,0,1,1,1.81,1.19,1.17,1.17,0,0,1-1.6.46m2.09,3.62a1.34,1.34,0,0,1-1.2-.67c0-.25.74-.46,1.22-.46s1.15.15,1.15.4-.59.73-1.17.73m1.21-2.57a1.18,1.18,0,0,1-1.21,1.11,1.16,1.16,0,0,1-1.22-1.11v0a1.17,1.17,0,0,1,1.22-1.11,1.19,1.19,0,0,1,1.21,1.13m1.69.88c-.52.71-1.21.73-1.48.54s-.07-1,.31-1.48.9-.8,1.21-.55a1.36,1.36,0,0,1,0,1.49m.46-1.51c-.44.19-.8-2.15-.25-2a1.26,1.26,0,0,1,.25,2"/><rect class="n" x="11.47" y="17.01" width="4.25" height="2.84"/><path class="o" d="M13,17.79a.71.71,0,1,1-.71.71.7.7,0,0,1,.71-.71"/></svg>