<svg xmlns="http://www.w3.org/2000/svg" viewBox="0 0 59.529 150.239"><path d="M59.529,15.537V10.755h0a1.18,1.18,0,0,1-.54-.143V15.68a1.177,1.177,0,0,1,.54-.143Z" style="fill:#004e29"/><path d="M59.529,22.738V17.956h0a1.18,1.18,0,0,1-.54-.143v5.068a1.165,1.165,0,0,1,.54-.143Z" style="fill:#004e29"/><path d="M59.529,29.938v-4.78h0a1.18,1.18,0,0,1-.54-.143v5.066a1.177,1.177,0,0,1,.54-.143Z" style="fill:#004e29"/><path d="M59.529,37.137v-4.78h0a1.18,1.18,0,0,1-.54-.143V37.28a1.177,1.177,0,0,1,.54-.143Z" style="fill:#004e29"/><path d="M59.529,44.336v-4.78h0a1.18,1.18,0,0,1-.54-.143v5.066a1.177,1.177,0,0,1,.54-.143Z" style="fill:#004e29"/><path d="M59.529,51.536v-4.78h0a1.181,1.181,0,0,1-.54-.144v5.067a1.177,1.177,0,0,1,.54-.143Z" style="fill:#004e29"/><path d="M59.529,58.736V53.955h0a1.18,1.18,0,0,1-.54-.143v5.067a1.177,1.177,0,0,1,.54-.143Z" style="fill:#004e29"/><path d="M59.529,65.936V61.155h0a1.18,1.18,0,0,1-.54-.143v5.067a1.177,1.177,0,0,1,.54-.143Z" style="fill:#004e29"/><path d="M59.529,73.137V68.356h0a1.18,1.18,0,0,1-.54-.143V73.28a1.177,1.177,0,0,1,.54-.143Z" style="fill:#004e29"/><path d="M59.529,80.337V75.556h0a1.18,1.18,0,0,1-.54-.143v5.066a1.177,1.177,0,0,1,.54-.143h0" style="fill:#004e29"/><path d="M59.529,87.536v-4.78h0a1.181,1.181,0,0,1-.54-.144v5.067a1.177,1.177,0,0,1,.54-.143Z" style="fill:#004e29"/><path d="M59.529,94.736V89.955h0a1.18,1.18,0,0,1-.54-.143v5.067a1.177,1.177,0,0,1,.54-.143Z" style="fill:#004e29"/><path d="M59.529,101.936V97.155h0a1.18,1.18,0,0,1-.54-.143v5.067a1.177,1.177,0,0,1,.54-.143Z" style="fill:#004e29"/><path d="M59.529,109.137v-4.781h0a1.18,1.18,0,0,1-.54-.143v5.067a1.177,1.177,0,0,1,.54-.143Z" style="fill:#004e29"/><path d="M59.529,116.337v-4.781h0a1.18,1.18,0,0,1-.54-.143v5.066a1.176,1.176,0,0,1,.54-.142Z" style="fill:#004e29"/><path d="M59.529,123.537v-4.781h0a1.169,1.169,0,0,1-.54-.144v5.067a1.176,1.176,0,0,1,.54-.142h0" style="fill:#004e29"/><path d="M59.529,130.736v-4.781h0a1.18,1.18,0,0,1-.54-.143v5.067a1.177,1.177,0,0,1,.54-.143Z" style="fill:#004e29"/><path d="M59.529,137.936v-4.781h0a1.18,1.18,0,0,1-.54-.143v5.067a1.177,1.177,0,0,1,.54-.143Z" style="fill:#004e29"/><path d="M59.529,145.136v-4.78h0a1.18,1.18,0,0,1-.54-.143v5.065a1.176,1.176,0,0,1,.54-.142Z" style="fill:#004e29"/><path d="M59.529,147.555h0a1.18,1.18,0,0,1-.54-.143v1.577a.709.709,0,0,1-.709.709H38.032a1.174,1.174,0,0,1,.143.54H58.394a1.134,1.134,0,0,0,1.134-1.135v-1.549Z" style="fill:#004e29"/><path d="M23.631,149.7a1.178,1.178,0,0,1,.143.541h4.78a1.183,1.183,0,0,1,.142-.541Z" style="fill:#004e29"/><path d="M30.831,149.7a1.178,1.178,0,0,1,.143.541h4.782a1.183,1.183,0,0,1,.142-.541Z" style="fill:#004e29"/><path d="M59.2,6l-.416.417a.707.707,0,0,1,.208.5V8.48a1.177,1.177,0,0,1,.54-.143h0V6.805A1.126,1.126,0,0,0,59.2,6" style="fill:#004e29"/><path d="M21.5,149.7H1.251a.708.708,0,0,1-.5-.208l-.417.417a1.134,1.134,0,0,0,.8.332H21.355a1.178,1.178,0,0,1,.143-.541" style="fill:#004e29"/><path d="M.542,6.921V8.479a1.2,1.2,0,0,1,.67,1.067,1.2,1.2,0,0,1-.67,1.066v5.069a1.183,1.183,0,0,1,0,2.132v5.068a1.2,1.2,0,0,1,.67,1.066,1.2,1.2,0,0,1-.67,1.068V30.08a1.2,1.2,0,0,1,.67,1.067,1.2,1.2,0,0,1-.67,1.067v5.065a1.2,1.2,0,0,1,.67,1.068,1.2,1.2,0,0,1-.67,1.066v5.066a1.2,1.2,0,0,1,.67,1.068,1.2,1.2,0,0,1-.67,1.066V51.68a1.2,1.2,0,0,1,.67,1.066,1.2,1.2,0,0,1-.67,1.067V58.88a1.2,1.2,0,0,1,.67,1.066,1.206,1.206,0,0,1-.67,1.068V66.08a1.2,1.2,0,0,1,.67,1.066,1.2,1.2,0,0,1-.67,1.067v5.066a1.2,1.2,0,0,1,.67,1.068,1.2,1.2,0,0,1-.67,1.066v5.066a1.2,1.2,0,0,1,.67,1.068,1.2,1.2,0,0,1-.67,1.066V87.68a1.2,1.2,0,0,1,.67,1.066,1.2,1.2,0,0,1-.67,1.067V94.88a1.2,1.2,0,0,1,.67,1.066,1.206,1.206,0,0,1-.67,1.068v5.066a1.2,1.2,0,0,1,.67,1.066,1.2,1.2,0,0,1-.67,1.067v5.066a1.2,1.2,0,0,1,.67,1.068,1.2,1.2,0,0,1-.67,1.066v5.066a1.2,1.2,0,0,1,.67,1.068,1.2,1.2,0,0,1-.67,1.066v5.067a1.2,1.2,0,0,1,.67,1.066,1.2,1.2,0,0,1-.67,1.067v5.067a1.2,1.2,0,0,1,.67,1.066,1.2,1.2,0,0,1-.67,1.068v5.066a1.2,1.2,0,0,1,.67,1.066,1.2,1.2,0,0,1-.67,1.067v5.065a1.2,1.2,0,0,1,.67,1.068,1.2,1.2,0,0,1-.67,1.066v1.577a.708.708,0,0,0,.709.708H21.5a1.185,1.185,0,0,1,2.134,0H28.7a1.185,1.185,0,0,1,2.134,0H35.9a1.185,1.185,0,0,1,2.134,0H58.279a.708.708,0,0,0,.708-.708v-1.577a1.185,1.185,0,0,1,0-2.134v-5.064a1.185,1.185,0,0,1,0-2.134v-5.066a1.185,1.185,0,0,1,0-2.134v-5.067a1.185,1.185,0,0,1,0-2.133v-5.067a1.185,1.185,0,0,1,0-2.134v-5.065a1.185,1.185,0,0,1,0-2.134v-5.066a1.185,1.185,0,0,1,0-2.134V97.014a1.185,1.185,0,0,1,0-2.134V89.813a1.185,1.185,0,0,1,0-2.133V82.613a1.185,1.185,0,0,1,0-2.134V75.414a1.185,1.185,0,0,1,0-2.134V68.214a1.185,1.185,0,0,1,0-2.134V61.014a1.185,1.185,0,0,1,0-2.134V53.813a1.185,1.185,0,0,1,0-2.133V46.613a1.185,1.185,0,0,1,0-2.133V39.414a1.185,1.185,0,0,1,0-2.134V32.214a1.185,1.185,0,0,1,0-2.134V25.015a1.185,1.185,0,0,1,0-2.134V17.813a1.184,1.184,0,0,1,0-2.132V10.612a1.185,1.185,0,0,1,0-2.133V6.921a.708.708,0,0,0-.708-.709H1.251a.708.708,0,0,0-.709.709M4.565,147.542a1.2,1.2,0,1,1,1.2-1.2,1.2,1.2,0,0,1-1.2,1.2m1.2-8.4a1.2,1.2,0,1,1-1.2-1.2,1.2,1.2,0,0,1,1.2,1.2m0-7.2a1.2,1.2,0,1,1-1.2-1.2,1.2,1.2,0,0,1,1.2,1.2m0-7.2a1.2,1.2,0,1,1-1.2-1.2,1.2,1.2,0,0,1,1.2,1.2m0-7.2a1.2,1.2,0,1,1-1.2-1.2,1.2,1.2,0,0,1,1.2,1.2m0-7.2a1.2,1.2,0,1,1-1.2-1.2,1.2,1.2,0,0,1,1.2,1.2m0-7.2a1.2,1.2,0,1,1-1.2-1.2,1.2,1.2,0,0,1,1.2,1.2m0-7.2a1.2,1.2,0,1,1-1.2-1.2,1.2,1.2,0,0,1,1.2,1.2m0-7.2a1.2,1.2,0,1,1-1.2-1.2,1.2,1.2,0,0,1,1.2,1.2m0-7.2a1.2,1.2,0,1,1-1.2-1.2,1.2,1.2,0,0,1,1.2,1.2m0-7.2a1.2,1.2,0,1,1-1.2-1.2,1.2,1.2,0,0,1,1.2,1.2m0-7.2a1.2,1.2,0,1,1-1.2-1.2,1.2,1.2,0,0,1,1.2,1.2m0-7.2a1.2,1.2,0,1,1-1.2-1.2,1.2,1.2,0,0,1,1.2,1.2m0-7.2a1.2,1.2,0,1,1-1.2-1.2,1.2,1.2,0,0,1,1.2,1.2m0-7.2a1.2,1.2,0,1,1-1.2-1.2,1.2,1.2,0,0,1,1.2,1.2m0-7.2a1.2,1.2,0,1,1-1.2-1.2,1.2,1.2,0,0,1,1.2,1.2m0-7.2a1.2,1.2,0,1,1-1.2-1.2,1.2,1.2,0,0,1,1.2,1.2m0-7.2a1.2,1.2,0,1,1-1.2-1.2,1.2,1.2,0,0,1,1.2,1.2m0-7.2a1.2,1.2,0,1,1-1.2-1.2,1.2,1.2,0,0,1,1.2,1.2m0-7.2a1.2,1.2,0,1,1-1.2-1.2,1.2,1.2,0,0,1,1.2,1.2m7.86,137.4a2.52,2.52,0,1,1,2.519-2.519,2.522,2.522,0,0,1-2.519,2.519m0-132.95a2.519,2.519,0,1,1,2.519-2.52A2.522,2.522,0,0,1,13.622,14M22.565,147.54a1.2,1.2,0,1,1,1.2-1.2,1.2,1.2,0,0,1-1.2,1.2m7.2,0a1.2,1.2,0,1,1,1.2-1.2,1.2,1.2,0,0,1-1.2,1.2m24-1.195a1.2,1.2,0,1,1,1.2,1.2,1.2,1.2,0,0,1-1.2-1.2m0-7.2a1.2,1.2,0,1,1,1.2,1.2,1.2,1.2,0,0,1-1.2-1.2m0-7.2a1.2,1.2,0,1,1,1.2,1.2,1.2,1.2,0,0,1-1.2-1.2m0-7.2a1.2,1.2,0,1,1,1.2,1.2,1.2,1.2,0,0,1-1.2-1.2m0-7.2a1.2,1.2,0,1,1,1.2,1.2,1.2,1.2,0,0,1-1.2-1.2m0-7.2a1.2,1.2,0,1,1,1.2,1.2,1.2,1.2,0,0,1-1.2-1.2m0-7.2a1.2,1.2,0,1,1,1.2,1.2,1.2,1.2,0,0,1-1.2-1.2m0-7.2a1.2,1.2,0,1,1,1.2,1.2,1.2,1.2,0,0,1-1.2-1.2m0-7.2a1.2,1.2,0,1,1,1.2,1.2,1.2,1.2,0,0,1-1.2-1.2m0-7.2a1.2,1.2,0,1,1,1.2,1.2,1.2,1.2,0,0,1-1.2-1.2m0-7.2a1.2,1.2,0,1,1,1.2,1.2,1.2,1.2,0,0,1-1.2-1.2m0-7.2a1.2,1.2,0,1,1,1.2,1.2,1.2,1.2,0,0,1-1.2-1.2m0-7.2a1.2,1.2,0,1,1,1.2,1.2,1.2,1.2,0,0,1-1.2-1.2m0-7.2a1.2,1.2,0,1,1,1.2,1.2,1.2,1.2,0,0,1-1.2-1.2m0-7.2a1.2,1.2,0,1,1,1.2,1.2,1.2,1.2,0,0,1-1.2-1.2m0-7.2a1.2,1.2,0,1,1,1.2,1.2,1.2,1.2,0,0,1-1.2-1.2m0-7.2a1.2,1.2,0,1,1,1.2,1.2,1.2,1.2,0,0,1-1.2-1.2m0-7.2a1.2,1.2,0,1,1,1.2,1.2,1.2,1.2,0,0,1-1.2-1.2m0-7.2a1.2,1.2,0,1,1,1.2,1.2,1.2,1.2,0,0,1-1.2-1.2m0-7.2a1.2,1.2,0,1,1,1.2,1.2,1.2,1.2,0,0,1-1.2-1.2M36.965,147.54a1.2,1.2,0,1,1,1.2-1.2,1.2,1.2,0,0,1-1.2,1.2m8.943-.591a2.52,2.52,0,1,1,2.519-2.519,2.522,2.522,0,0,1-2.519,2.519m0-132.95a2.519,2.519,0,1,1,2.519-2.52A2.522,2.522,0,0,1,45.908,14" style="fill:#006837"/><path d="M58.4,5.671H1.134A1.134,1.134,0,0,0,0,6.805V8.336H0a1.162,1.162,0,0,1,.54.144V6.921a.709.709,0,0,1,.709-.709H58.279a.7.7,0,0,1,.5.208L59.2,6a1.131,1.131,0,0,0-.8-.332" style="fill:#33865f"/><path d="M0,17.956v4.782H0a1.158,1.158,0,0,1,.54.143V17.813a1.17,1.17,0,0,1-.54.143Z" style="fill:#33865f"/><path d="M0,25.156v4.781H0a1.17,1.17,0,0,1,.54.143V25.013a1.158,1.158,0,0,1-.54.143H0" style="fill:#33865f"/><path d="M0,32.356v4.781H0a1.169,1.169,0,0,1,.54.142V32.214a1.169,1.169,0,0,1-.54.142Z" style="fill:#33865f"/><path d="M0,39.556v4.781H0a1.17,1.17,0,0,1,.54.143V39.413a1.17,1.17,0,0,1-.54.143Z" style="fill:#33865f"/><path d="M0,46.755v4.781H0a1.17,1.17,0,0,1,.54.143V46.612a1.159,1.159,0,0,1-.54.144Z" style="fill:#33865f"/><path d="M0,53.955v4.781H0a1.17,1.17,0,0,1,.54.143V53.812a1.17,1.17,0,0,1-.54.143Z" style="fill:#33865f"/><path d="M0,61.155v4.781H0a1.17,1.17,0,0,1,.54.143V61.012a1.17,1.17,0,0,1-.54.143Z" style="fill:#33865f"/><path d="M0,68.355v4.781H0a1.17,1.17,0,0,1,.54.143V68.212a1.17,1.17,0,0,1-.54.143Z" style="fill:#33865f"/><path d="M0,75.556v4.781H0a1.17,1.17,0,0,1,.54.143V75.413a1.17,1.17,0,0,1-.54.143Z" style="fill:#33865f"/><path d="M0,82.755v4.781H0a1.17,1.17,0,0,1,.54.143V82.612a1.159,1.159,0,0,1-.54.144Z" style="fill:#33865f"/><path d="M0,89.955v4.781H0a1.17,1.17,0,0,1,.54.143V89.812a1.17,1.17,0,0,1-.54.143Z" style="fill:#33865f"/><path d="M0,97.155v4.781H0a1.17,1.17,0,0,1,.54.143V97.012a1.17,1.17,0,0,1-.54.143Z" style="fill:#33865f"/><path d="M0,104.355v4.781H0a1.17,1.17,0,0,1,.54.143v-5.067a1.17,1.17,0,0,1-.54.143Z" style="fill:#33865f"/><path d="M0,111.556v4.781H0a1.17,1.17,0,0,1,.54.143v-5.067a1.17,1.17,0,0,1-.54.143Z" style="fill:#33865f"/><path d="M0,118.755v4.781H0a1.17,1.17,0,0,1,.54.143v-5.066a1.17,1.17,0,0,1-.54.143Z" style="fill:#33865f"/><path d="M0,125.955v4.781H0a1.17,1.17,0,0,1,.54.143v-5.067a1.17,1.17,0,0,1-.54.143Z" style="fill:#33865f"/><path d="M0,133.155v4.781H0a1.17,1.17,0,0,1,.54.143v-5.067a1.17,1.17,0,0,1-.54.143Z" style="fill:#33865f"/><path d="M0,140.355v4.78H0a1.17,1.17,0,0,1,.54.143v-5.066a1.17,1.17,0,0,1-.54.143Z" style="fill:#33865f"/><path d="M0,10.755v4.782H0a1.159,1.159,0,0,1,.54.144V10.612a1.158,1.158,0,0,1-.54.143Z" style="fill:#33865f"/><path d="M.333,149.906l.416-.417a.708.708,0,0,1-.207-.5v-1.576a1.177,1.177,0,0,1-.541.142V149.1a1.134,1.134,0,0,0,.332.8" style="fill:#33865f"/><path d="M6.54,16.745A1.977,1.977,0,0,0,4.565,14.77H0v.766H0a1.21,1.21,0,0,1,1.209,1.209A1.211,1.211,0,0,1,0,17.955H0v.765H4.565A1.977,1.977,0,0,0,6.54,16.745m-1.975,1.2a1.2,1.2,0,1,1,1.2-1.2,1.2,1.2,0,0,1-1.2,1.2" style="fill:#9a916c"/><path d="M6.54,21.971H0v.766H0a1.211,1.211,0,0,1,1.209,1.21A1.21,1.21,0,0,1,0,25.156H0v.765H6.54ZM4.565,25.143a1.2,1.2,0,1,1,1.2-1.2,1.2,1.2,0,0,1-1.2,1.2" style="fill:#9a916c"/><path d="M6.54,31.146A1.978,1.978,0,0,0,4.565,29.17H0v.766H0a1.21,1.21,0,0,1,0,2.42H0v.765H4.565A1.978,1.978,0,0,0,6.54,31.146m-1.975,1.2a1.2,1.2,0,1,1,1.2-1.2,1.2,1.2,0,0,1-1.2,1.2" style="fill:#9a916c"/><path d="M6.54,38.345a1.978,1.978,0,0,0-1.975-1.976H0v.766H0a1.211,1.211,0,0,1,1.209,1.21A1.21,1.21,0,0,1,0,39.554H0v.765H4.565A1.976,1.976,0,0,0,6.54,38.345m-1.975,1.2a1.2,1.2,0,1,1,1.2-1.2,1.2,1.2,0,0,1-1.2,1.2" style="fill:#9a916c"/><path d="M6.54,45.545a1.978,1.978,0,0,0-1.975-1.976H0v.766H0a1.211,1.211,0,0,1,1.209,1.21A1.21,1.21,0,0,1,0,46.754H0v.765H4.565A1.976,1.976,0,0,0,6.54,45.545m-1.975,1.2a1.2,1.2,0,1,1,1.2-1.2,1.2,1.2,0,0,1-1.2,1.2" style="fill:#9a916c"/><path d="M6.54,52.745a1.978,1.978,0,0,0-1.975-1.976H0v.766H0a1.211,1.211,0,0,1,1.209,1.21A1.21,1.21,0,0,1,0,53.954H0v.765H4.565A1.976,1.976,0,0,0,6.54,52.745m-1.975,1.2a1.2,1.2,0,1,1,1.2-1.2,1.2,1.2,0,0,1-1.2,1.2" style="fill:#9a916c"/><path d="M6.54,57.97H0v.766H0a1.211,1.211,0,0,1,1.209,1.21A1.21,1.21,0,0,1,0,61.155H0v.765H6.54ZM4.565,61.142a1.2,1.2,0,1,1,1.2-1.2,1.2,1.2,0,0,1-1.2,1.2" style="fill:#9a916c"/><path d="M6.54,67.145A1.977,1.977,0,0,0,4.565,65.17H0v.766H0a1.21,1.21,0,0,1,1.209,1.209A1.211,1.211,0,0,1,0,68.355H0v.765H4.565A1.977,1.977,0,0,0,6.54,67.145m-1.975,1.2a1.2,1.2,0,1,1,1.2-1.2,1.2,1.2,0,0,1-1.2,1.2" style="fill:#9a916c"/><path d="M6.54,74.345A1.977,1.977,0,0,0,4.565,72.37H0v.766H0a1.21,1.21,0,0,1,1.209,1.209A1.211,1.211,0,0,1,0,75.555H0v.765H4.565A1.977,1.977,0,0,0,6.54,74.345m-1.975,1.2a1.2,1.2,0,1,1,1.2-1.2,1.2,1.2,0,0,1-1.2,1.2" style="fill:#9a916c"/><path d="M6.54,81.545A1.977,1.977,0,0,0,4.565,79.57H0v.766H0a1.21,1.21,0,0,1,1.209,1.209A1.211,1.211,0,0,1,0,82.755H0v.765H4.565A1.977,1.977,0,0,0,6.54,81.545m-1.975,1.2a1.2,1.2,0,1,1,1.2-1.2,1.2,1.2,0,0,1-1.2,1.2" style="fill:#9a916c"/><path d="M6.54,88.745A1.977,1.977,0,0,0,4.565,86.77H0v.766H0a1.21,1.21,0,0,1,1.209,1.209A1.211,1.211,0,0,1,0,89.955H0v.765H4.565A1.977,1.977,0,0,0,6.54,88.745m-1.975,1.2a1.2,1.2,0,1,1,1.2-1.2,1.2,1.2,0,0,1-1.2,1.2" style="fill:#9a916c"/><path d="M6.54,93.97H0v.766H0a1.21,1.21,0,0,1,0,2.42H0v.765H6.54ZM4.565,97.143a1.2,1.2,0,1,1,1.2-1.2,1.2,1.2,0,0,1-1.2,1.2" style="fill:#9a916c"/><path d="M6.54,103.146a1.978,1.978,0,0,0-1.975-1.976H0v.766H0a1.211,1.211,0,0,1,1.209,1.21A1.21,1.21,0,0,1,0,104.355H0v.766H4.565a1.978,1.978,0,0,0,1.975-1.975m-1.975,1.2a1.2,1.2,0,1,1,1.2-1.2,1.2,1.2,0,0,1-1.2,1.2" style="fill:#9a916c"/><path d="M6.54,110.346a1.978,1.978,0,0,0-1.975-1.976H0v.766H0a1.211,1.211,0,0,1,1.209,1.21A1.21,1.21,0,0,1,0,111.555H0v.765H4.565a1.976,1.976,0,0,0,1.975-1.974m-1.975,1.2a1.2,1.2,0,1,1,1.2-1.2,1.2,1.2,0,0,1-1.2,1.2" style="fill:#9a916c"/><path d="M6.54,117.546a1.978,1.978,0,0,0-1.975-1.976H0v.766H0a1.211,1.211,0,0,1,1.209,1.21A1.21,1.21,0,0,1,0,118.755H0v.765H4.565a1.976,1.976,0,0,0,1.975-1.974m-1.975,1.2a1.2,1.2,0,1,1,1.2-1.2,1.2,1.2,0,0,1-1.2,1.2" style="fill:#9a916c"/><path d="M6.54,124.746a1.978,1.978,0,0,0-1.975-1.976H0v.766H0a1.211,1.211,0,0,1,1.209,1.21A1.21,1.21,0,0,1,0,125.955H0v.765H4.565a1.976,1.976,0,0,0,1.975-1.974m-1.975,1.2a1.2,1.2,0,1,1,1.2-1.2,1.2,1.2,0,0,1-1.2,1.2" style="fill:#9a916c"/><path d="M6.54,129.971H0v.766H0a1.21,1.21,0,0,1,1.209,1.209A1.211,1.211,0,0,1,0,133.156H0v.765H6.54Zm-1.975,3.172a1.2,1.2,0,1,1,1.2-1.2,1.2,1.2,0,0,1-1.2,1.2" style="fill:#9a916c"/><path d="M6.54,139.146a1.977,1.977,0,0,0-1.975-1.975H0v.766H0a1.21,1.21,0,0,1,1.209,1.209A1.211,1.211,0,0,1,0,140.356H0v.765H4.565a1.977,1.977,0,0,0,1.975-1.975m-1.975,1.2a1.2,1.2,0,1,1,1.2-1.2,1.2,1.2,0,0,1-1.2,1.2" style="fill:#9a916c"/><path d="M6.54,146.345a1.977,1.977,0,0,0-1.975-1.975H0v.766H0a1.21,1.21,0,0,1,1.209,1.209A1.211,1.211,0,0,1,0,147.555H0v.765H4.565a1.977,1.977,0,0,0,1.975-1.975m-1.975,1.2a1.2,1.2,0,1,1,1.2-1.2,1.2,1.2,0,0,1-1.2,1.2" style="fill:#9a916c"/><path d="M54.965,18.721h4.564v-.766a1.21,1.21,0,1,1,0-2.419V14.77H54.965a1.976,1.976,0,0,0,0,3.951m-1.2-1.976a1.2,1.2,0,1,1,1.2,1.2,1.2,1.2,0,0,1-1.2-1.2" style="fill:#9a916c"/><path d="M52.99,25.921h6.539v-.766a1.21,1.21,0,1,1,0-2.419V21.97H52.99Zm.778-1.975a1.2,1.2,0,1,1,1.2,1.2,1.2,1.2,0,0,1-1.2-1.2" style="fill:#9a916c"/><path d="M54.965,33.12h4.564v-.765a1.21,1.21,0,1,1,0-2.419v-.767H54.965a1.976,1.976,0,0,0,0,3.951m-1.2-1.975a1.2,1.2,0,1,1,1.2,1.2,1.2,1.2,0,0,1-1.2-1.2" style="fill:#9a916c"/><path d="M54.965,40.32h4.564v-.766a1.21,1.21,0,1,1,0-2.419v-.766H54.965a1.976,1.976,0,0,0,0,3.951m-1.2-1.975a1.2,1.2,0,1,1,1.2,1.2,1.2,1.2,0,0,1-1.2-1.2" style="fill:#9a916c"/><path d="M54.965,47.52h4.564v-.766a1.21,1.21,0,1,1,0-2.419v-.766H54.965a1.976,1.976,0,0,0,0,3.951m-1.2-1.975a1.2,1.2,0,1,1,1.2,1.2,1.2,1.2,0,0,1-1.2-1.2" style="fill:#9a916c"/><path d="M54.965,54.72h4.564v-.766a1.21,1.21,0,1,1,0-2.419v-.766H54.965a1.976,1.976,0,0,0,0,3.951m-1.2-1.975a1.2,1.2,0,1,1,1.2,1.2,1.2,1.2,0,0,1-1.2-1.2" style="fill:#9a916c"/><path d="M52.99,61.92h6.539v-.766a1.21,1.21,0,1,1,0-2.419v-.766H52.99Zm.778-1.975a1.2,1.2,0,1,1,1.2,1.2,1.2,1.2,0,0,1-1.2-1.2" style="fill:#9a916c"/><path d="M54.965,69.121h4.564v-.766a1.21,1.21,0,1,1,0-2.419V65.17H54.965a1.976,1.976,0,0,0,0,3.951m-1.2-1.976a1.2,1.2,0,1,1,1.2,1.2,1.2,1.2,0,0,1-1.2-1.2" style="fill:#9a916c"/><path d="M54.965,76.321h4.564v-.766a1.21,1.21,0,1,1,0-2.419V72.37H54.965a1.976,1.976,0,0,0,0,3.951m-1.2-1.976a1.2,1.2,0,1,1,1.2,1.2,1.2,1.2,0,0,1-1.2-1.2" style="fill:#9a916c"/><path d="M54.965,83.521h4.564v-.766a1.21,1.21,0,1,1,0-2.419v-.767H54.965a1.976,1.976,0,0,0,0,3.952m-1.2-1.976a1.2,1.2,0,1,1,1.2,1.2,1.2,1.2,0,0,1-1.2-1.2" style="fill:#9a916c"/><path d="M54.965,90.721h4.564v-.767a1.21,1.21,0,1,1,0-2.419v-.766H54.965a1.976,1.976,0,0,0,0,3.952m-1.2-1.976a1.2,1.2,0,1,1,1.2,1.2,1.2,1.2,0,0,1-1.2-1.2" style="fill:#9a916c"/><path d="M52.99,97.92h6.539v-.766a1.21,1.21,0,1,1,0-2.419v-.766H52.99Zm.778-1.975a1.2,1.2,0,1,1,1.2,1.2,1.2,1.2,0,0,1-1.2-1.2" style="fill:#9a916c"/><path d="M54.965,105.12h4.564v-.766a1.21,1.21,0,1,1,0-2.419v-.766H54.965a1.976,1.976,0,0,0,0,3.951m-1.2-1.975a1.2,1.2,0,1,1,1.2,1.2,1.2,1.2,0,0,1-1.2-1.2" style="fill:#9a916c"/><path d="M54.965,112.321h4.564v-.766a1.21,1.21,0,1,1,0-2.419v-.766H54.965a1.976,1.976,0,0,0,0,3.951m-1.2-1.975a1.2,1.2,0,1,1,1.2,1.2,1.2,1.2,0,0,1-1.2-1.2" style="fill:#9a916c"/><path d="M54.965,119.521h4.564v-.766a1.21,1.21,0,1,1,0-2.419v-.766H54.965a1.976,1.976,0,0,0,0,3.951m-1.2-1.975a1.2,1.2,0,1,1,1.2,1.2,1.2,1.2,0,0,1-1.2-1.2" style="fill:#9a916c"/><path d="M54.965,126.721h4.564v-.766a1.21,1.21,0,1,1,0-2.419v-.766H54.965a1.976,1.976,0,0,0,0,3.951m-1.2-1.975a1.2,1.2,0,1,1,1.2,1.2,1.2,1.2,0,0,1-1.2-1.2" style="fill:#9a916c"/><path d="M52.99,133.921h6.539v-.766a1.21,1.21,0,1,1,0-2.419v-.766H52.99Zm.778-1.976a1.2,1.2,0,1,1,1.2,1.2,1.2,1.2,0,0,1-1.2-1.2" style="fill:#9a916c"/><path d="M54.965,141.121h4.564v-.766a1.21,1.21,0,1,1,0-2.419v-.766H54.965a1.976,1.976,0,0,0,0,3.951m-1.2-1.976a1.2,1.2,0,1,1,1.2,1.2,1.2,1.2,0,0,1-1.2-1.2" style="fill:#9a916c"/><path d="M54.965,148.321h4.564v-.766a1.21,1.21,0,1,1,0-2.419v-.767H54.965a1.976,1.976,0,0,0,0,3.952m-1.2-1.976a1.2,1.2,0,1,1,1.2,1.2,1.2,1.2,0,0,1-1.2-1.2" style="fill:#9a916c"/><path d="M22.565,144.368a1.979,1.979,0,0,0-1.976,1.975v3.9h.766a1.21,1.21,0,1,1,2.42,0h.765v-3.9a1.979,1.979,0,0,0-1.975-1.975m1.2,1.976a1.2,1.2,0,1,1-1.2-1.2,1.2,1.2,0,0,1,1.2,1.2" style="fill:#9a916c"/><path d="M27.788,144.43v5.809h.766a1.21,1.21,0,1,1,2.419,0h.765V144.43Zm3.173,1.914a1.2,1.2,0,1,1-1.2-1.2,1.2,1.2,0,0,1,1.2,1.2" style="fill:#9a916c"/><path d="M36.966,144.368a1.979,1.979,0,0,0-1.976,1.975v3.9h.766a1.21,1.21,0,1,1,2.419,0h.765v-3.9a1.977,1.977,0,0,0-1.974-1.975m1.2,1.976a1.2,1.2,0,1,1-1.2-1.2,1.2,1.2,0,0,1,1.2,1.2" style="fill:#9a916c"/><path d="M54.965,11.52h4.564v-.766a1.21,1.21,0,1,1,0-2.419V7.569H54.965a1.976,1.976,0,0,0,0,3.951m-1.2-1.976a1.2,1.2,0,1,1,1.2,1.2,1.2,1.2,0,0,1-1.2-1.2" style="fill:#9a916c"/><path d="M6.54,9.544A1.977,1.977,0,0,0,4.565,7.569H0v.766H0A1.21,1.21,0,0,1,1.211,9.544,1.211,1.211,0,0,1,0,10.754H0v.765H4.565A1.977,1.977,0,0,0,6.54,9.544m-1.975,1.2a1.2,1.2,0,1,1,1.2-1.2,1.2,1.2,0,0,1-1.2,1.2" style="fill:#9a916c"/><path d="M13.622,148.949a4.52,4.52,0,1,1,4.52-4.519,4.524,4.524,0,0,1-4.52,4.519m0-7.039a2.52,2.52,0,1,0,2.52,2.52,2.523,2.523,0,0,0-2.52-2.52" style="fill:#fcee21"/><path d="M45.908,148.949a4.52,4.52,0,1,1,4.52-4.519,4.525,4.525,0,0,1-4.52,4.519m0-7.039a2.52,2.52,0,1,0,2.52,2.52,2.523,2.523,0,0,0-2.52-2.52" style="fill:#fcee21"/><path d="M13.622,16a4.52,4.52,0,1,1,4.52-4.519A4.524,4.524,0,0,1,13.622,16m0-7.039a2.519,2.519,0,1,0,2.52,2.52,2.522,2.522,0,0,0-2.52-2.52" style="fill:#fcee21"/><path d="M45.908,16a4.52,4.52,0,1,1,4.52-4.519A4.525,4.525,0,0,1,45.908,16m0-7.039a2.519,2.519,0,1,0,2.52,2.52,2.522,2.522,0,0,0-2.52-2.52" style="fill:#fcee21"/><rect x="19.778" y="67.967" width="19.975" height="19.974" style="fill:#30312e"/><path d="M39.12,17.009H20.411a.567.567,0,0,1-.567-.567V2.506a.566.566,0,0,1,.567-.566H39.12a.566.566,0,0,1,.566.566V16.442a.567.567,0,0,1-.566.567" style="fill:#363a44"/><path d="M21.264,0a.565.565,0,0,0-.542.4l-.312,1.03L19.843,2V16.441a.567.567,0,0,0,.567.568h3.46a.284.284,0,0,0,.284-.283V15.9a.569.569,0,0,0-.295-.5l-1.926-1.052a.567.567,0,0,1-.295-.5v-.827H22.9V12.07H24.84v.953h1.144v1.971a.567.567,0,0,0,.567.568h.919V14.539h4.59v1.023h.92a.567.567,0,0,0,.566-.568V13.023H34.69V12.07h1.944v.953h1.258v.827a.567.567,0,0,1-.3.5L35.671,15.4a.568.568,0,0,0-.3.5v.829a.284.284,0,0,0,.284.283h3.459a.568.568,0,0,0,.568-.568V2l-.568-.567L38.809.4a.567.567,0,0,0-.543-.4Z" style="fill:#dbddda"/><path d="M20.465,2.883a11.555,11.555,0,0,1-.729-1.05,3.83,3.83,0,0,1-.3-.61,4.275,4.275,0,0,1-.184-.644A.34.34,0,0,1,19.908.4h0a3.073,3.073,0,0,0,.523.962,10.972,10.972,0,0,0,.79.865v0a.5.5,0,1,1-.715.7.515.515,0,0,1-.043-.05" style="fill:#dbddda"/><path d="M38.308,2.229a10.963,10.963,0,0,0,.79-.864A3.1,3.1,0,0,0,39.62.4h0a.34.34,0,0,1,.655.179,4.042,4.042,0,0,1-.184.643,3.826,3.826,0,0,1-.3.61,11.555,11.555,0,0,1-.729,1.05.5.5,0,1,1-.8-.6.472.472,0,0,1,.041-.048Z" style="fill:#dbddda"/><path d="M26.781,105.98h-7.37a.567.567,0,0,1-.567-.567v-4.535a.567.567,0,0,1,.567-.567h7.37a.567.567,0,0,1,.567.567v4.535a.567.567,0,0,1-.567.567" style="fill:#dbddda"/><rect x="16.202" y="54.3" width="5.669" height="8.504" style="fill:#2a2d2e"/><rect x="34.24" y="31.853" width="7.087" height="7.087" style="fill:#2a2d2e"/><rect x="44.467" y="19.591" width="4.252" height="7.086" style="fill:#2a2d2e"/><path d="M16.093,32.836h7.37a.567.567,0,0,1,.567.566v10.2a.567.567,0,0,1-.567.568h-7.37a.567.567,0,0,1-.567-.568V33.4a.567.567,0,0,1,.567-.566" style="fill:#ccc"/><path d="M19.778,33.544h0a3.544,3.544,0,0,1,3.544,3.544v2.835a3.544,3.544,0,0,1-7.087,0V37.088a3.544,3.544,0,0,1,3.543-3.544" style="fill:#fff"/><path d="M15.526,33.4v1.064a.567.567,0,0,0,.968.4L17.558,33.8a.566.566,0,0,0-.4-.967H16.093a.567.567,0,0,0-.567.566" style="fill:#fff"/><path d="M23.463,32.836H22.4a.567.567,0,0,0-.4.968l1.065,1.064a.566.566,0,0,0,.967-.4V33.4a.567.567,0,0,0-.566-.566" style="fill:#fff"/><path d="M24.03,43.577V42.513a.567.567,0,0,0-.968-.4L22,43.177a.566.566,0,0,0,.4.967h1.066a.567.567,0,0,0,.566-.567" style="fill:#fff"/><path d="M16.093,44.145h1.064a.567.567,0,0,0,.4-.968l-1.065-1.064a.566.566,0,0,0-.967.4v1.065a.567.567,0,0,0,.567.567" style="fill:#fff"/><path d="M43.757,38.373V32.42a.567.567,0,0,1,.567-.567H48.86a.567.567,0,0,1,.567.567v5.953a.567.567,0,0,1-.567.567H44.324a.567.567,0,0,1-.567-.567" style="fill:#2a2d2e"/><rect x="34.948" y="40.195" width="5.67" height="4.252" style="fill:#dbddda"/><rect x="40.618" y="47.935" width="2.835" height="5.67" style="fill:#dbddda"/><rect x="40.618" y="48.927" width="2.835" height="3.686" style="fill:#2a2d2e"/><rect x="34.948" y="26.269" width="5.67" height="4.252" style="fill:#dbddda"/><rect x="35.657" y="26.269" width="4.252" height="4.252" style="fill:#958863"/><rect x="35.657" y="40.195" width="4.252" height="4.252" style="fill:#958863"/><path d="M46.882,131.945a1.2,1.2,0,1,1-1.2,1.2,1.2,1.2,0,0,1,1.2-1.2" style="fill:#9a916c"/><path d="M13.434,25.013a1.2,1.2,0,1,1-1.2,1.2,1.2,1.2,0,0,1,1.2-1.2" style="fill:#9a916c"/><rect x="20.413" y="25.597" width="2.835" height="1.418" style="fill:#dbddda"/><rect x="20.767" y="25.597" width="2.126" height="1.418" style="fill:#2a2d2e"/><rect x="47.061" y="62.128" width="1.417" height="2.834" style="fill:#dbddda"/><rect x="47.061" y="62.481" width="1.417" height="2.127" style="fill:#2a2d2e"/><rect x="47.061" y="62.128" width="1.417" height="2.834" style="fill:#dbddda"/><rect x="45.934" y="55.487" width="4.252" height="1.417" style="fill:#2a2d2e"/><rect x="47.061" y="62.481" width="1.417" height="2.127" style="fill:#2a2d2e"/><rect x="44.352" y="62.128" width="1.417" height="2.834" style="fill:#dbddda"/><rect x="44.352" y="62.481" width="1.417" height="2.127" style="fill:#2a2d2e"/><rect x="41.643" y="62.128" width="1.417" height="2.834" style="fill:#dbddda"/><rect x="41.643" y="62.481" width="1.417" height="2.127" style="fill:#9a916c"/><rect x="33.13" y="62.481" width="1.063" height="2.127" style="fill:#dbddda"/><rect x="33.13" y="62.836" width="1.063" height="1.418" style="fill:#2a2d2e"/><rect x="31.099" y="62.481" width="1.062" height="2.127" style="fill:#dbddda"/><rect x="31.099" y="62.836" width="1.062" height="1.418" style="fill:#2a2d2e"/><rect x="29.067" y="62.481" width="1.063" height="2.127" style="fill:#dbddda"/><rect x="29.067" y="62.836" width="1.063" height="1.418" style="fill:#9a916c"/><rect x="46.062" y="48.906" width="1.062" height="2.126" style="fill:#dbddda"/><rect x="46.062" y="49.261" width="1.062" height="1.417" style="fill:#9a916c"/><rect x="27.035" y="62.481" width="1.062" height="2.127" style="fill:#dbddda"/><rect x="27.035" y="62.836" width="1.062" height="1.418" style="fill:#9a916c"/><rect x="16.18" y="50.77" width="1.062" height="2.126" style="fill:#dbddda"/><rect x="16.18" y="51.124" width="1.062" height="1.417" style="fill:#9a916c"/><rect x="31.13" y="91.653" width="1.063" height="2.126" style="fill:#dbddda"/><rect x="31.13" y="92.008" width="1.063" height="1.417" style="fill:#9a916c"/><rect x="29.099" y="91.653" width="1.062" height="2.126" style="fill:#dbddda"/><rect x="29.099" y="92.008" width="1.062" height="1.417" style="fill:#9a916c"/><rect x="29.099" y="100.311" width="1.062" height="2.126" style="fill:#dbddda"/><rect x="29.099" y="100.665" width="1.062" height="1.418" style="fill:#9a916c"/><rect x="15.826" y="103.854" width="1.062" height="2.126" style="fill:#dbddda"/><rect x="15.826" y="104.209" width="1.062" height="1.417" style="fill:#9a916c"/><rect x="37.785" y="62.128" width="1.417" height="2.834" style="fill:#dbddda"/><rect x="37.785" y="62.481" width="1.417" height="2.127" style="fill:#9a916c"/><rect x="35.076" y="62.128" width="1.417" height="2.834" style="fill:#dbddda"/><rect x="35.076" y="62.481" width="1.417" height="2.127" style="fill:#9a916c"/><rect x="20.413" y="23.134" width="2.835" height="1.417" style="fill:#dbddda"/><rect x="20.767" y="23.134" width="2.126" height="1.417" style="fill:#2a2d2e"/><rect x="36.366" y="23.134" width="2.835" height="1.417" style="fill:#dbddda"/><rect x="36.72" y="23.134" width="2.126" height="1.417" style="fill:#2a2d2e"/><rect x="13.425" y="54.3" width="1.417" height="2.835" style="fill:#dbddda"/><rect x="13.425" y="54.654" width="1.417" height="2.126" style="fill:#2a2d2e"/><rect x="13.425" y="59.97" width="1.417" height="2.834" style="fill:#dbddda"/><rect x="13.425" y="60.323" width="1.417" height="2.127" style="fill:#2a2d2e"/><rect x="48.42" y="47.935" width="1.417" height="2.835" style="fill:#dbddda"/><rect x="48.42" y="48.289" width="1.417" height="2.126" style="fill:#2a2d2e"/><rect x="41.379" y="69.121" width="2.126" height="1.062" style="fill:#dbddda"/><rect x="41.733" y="69.121" width="1.418" height="1.062" style="fill:#9a916c"/><rect x="15.825" y="70.214" width="2.126" height="1.062" style="fill:#dbddda"/><rect x="16.179" y="70.214" width="1.417" height="1.062" style="fill:#9a916c"/><rect x="15.825" y="80.718" width="2.126" height="1.063" style="fill:#dbddda"/><rect x="16.179" y="80.718" width="1.417" height="1.063" style="fill:#9a916c"/><rect x="42.423" y="81.151" width="1.063" height="2.126" transform="translate(-45.553 54.453) rotate(-45)" style="fill:#dbddda"/><rect x="42.424" y="81.505" width="1.063" height="1.417" transform="translate(-45.571 54.513) rotate(-45.038)" style="fill:#9a916c"/><rect x="45.408" y="78.439" width="2.835" height="1.418" style="fill:#dbddda"/><rect x="45.763" y="78.439" width="2.126" height="1.418" style="fill:#2a2d2e"/><rect x="45.408" y="78.439" width="2.835" height="1.418" style="fill:#dbddda"/><rect x="45.763" y="78.439" width="2.126" height="1.418" style="fill:#2a2d2e"/><rect x="45.408" y="75.731" width="2.835" height="1.417" style="fill:#dbddda"/><rect x="45.763" y="75.731" width="2.126" height="1.417" style="fill:#2a2d2e"/><rect x="14.762" y="67.503" width="2.835" height="1.418" style="fill:#dbddda"/><rect x="15.116" y="67.503" width="2.126" height="1.418" style="fill:#9a916c"/><rect x="24.919" y="96.647" width="2.834" height="1.417" style="fill:#dbddda"/><rect x="25.272" y="96.647" width="2.126" height="1.417" style="fill:#2a2d2e"/><rect x="24.919" y="96.647" width="2.834" height="1.417" style="fill:#dbddda"/><rect x="25.272" y="96.647" width="2.126" height="1.417" style="fill:#2a2d2e"/><path d="M38.427,121.829l-.207-.309a4.054,4.054,0,0,0-2.374-4.026c.362-.1.775-.207.878-.671a.987.987,0,0,0,.877-.774c.155-.1.775-.465.671-.98a.834.834,0,0,0,.413-.929c.361-.361.464-.671.31-.981a.747.747,0,0,0,.051-1.084c.31-.567.052-1.187-.826-1.084a1.371,1.371,0,0,0-1.238-.413.835.835,0,0,0-.826-.257,1.015,1.015,0,0,0-1.135-.1c-.465-.361-.774-.052-1.136.052-.567-.206-.722.052-.98.155-.619-.155-.825.154-1.135.465h-.361a4.308,4.308,0,0,0-1.6,2.219,3.64,3.64,0,0,0-1.6-2.219h-.362c-.309-.311-.464-.568-1.135-.465-.257-.1-.413-.361-.98-.155a3.776,3.776,0,0,0-.723-.206.983.983,0,0,0-.465.154,1.013,1.013,0,0,0-1.134.1c-.517-.052-.723.051-.826.257-.1,0-.877-.1-1.239.413-.878-.1-1.135.516-.826,1.084a.787.787,0,0,0,.052,1.084c-.154.31-.052.62.309.981a.868.868,0,0,0,.413.929c-.051.567.517.877.671.98.052.31.207.619.878.774.1.464.516.568.877.671a4.1,4.1,0,0,0-2.374,4.026l-.207.309a3.966,3.966,0,0,0-.721,5.987,12.459,12.459,0,0,0,.567,1.806,4.542,4.542,0,0,0,2.787,3.509,10.624,10.624,0,0,0,2.632,1.5,4.448,4.448,0,0,0,3.251,1.445h.052a4.454,4.454,0,0,0,3.252-1.445,8.565,8.565,0,0,0,2.631-1.5,4.355,4.355,0,0,0,2.787-3.509,12.415,12.415,0,0,0,.568-1.806,3.8,3.8,0,0,0-.517-5.987m-1.084-.413c-.051.929-5.006-3.3-4.18-3.458,2.322-.361,4.232.981,4.18,3.458m-2.218,4.7a2.93,2.93,0,0,1-3.975-1.136,2.888,2.888,0,0,1,.517-4.076,2.926,2.926,0,0,1,3.973,1.134,2.876,2.876,0,0,1-.515,4.078m-3.407-14.605c.052.206.1.361.155.361a6.539,6.539,0,0,1,.826-.878c0,.156-.1.362.1.465a3.3,3.3,0,0,1,.775-.671c-.155.258-.052.362.051.465a2.908,2.908,0,0,1,.981-.62c-.155.155-.31.31-.1.517a3.44,3.44,0,0,1,1.188-.465c-.155.155-.465.309-.258.465a7.289,7.289,0,0,1,1.135-.259c-.206.155-.361.31-.206.465a2.844,2.844,0,0,1,1.342-.155l-.31.31a5.668,5.668,0,0,0,1.187.052,3.075,3.075,0,0,0-.464.928c.051.052.309,0,.515,0-.257.516-.671.62-.722.826a.557.557,0,0,0,.567,0c-.154.361-.516.568-.825.878.052.051.206.1.515.051a7.3,7.3,0,0,1-.928.774,2.818,2.818,0,0,0,.515.1,5.588,5.588,0,0,1-1.186.723.669.669,0,0,0,.516.1,3.876,3.876,0,0,1-1.239.516c.1.155.155.155.362.206-.465.259-1.188.155-1.394.259.052.154.155.206.361.31-.774.051-2.889-.052-3.3-1.652a16.227,16.227,0,0,1,4.748-3.148,15.434,15.434,0,0,0-5.161,2.735c-1.806-.826-.62-2.839.258-3.664m-1.755,5.831h0c1.239,0,2.736.878,2.736,1.755,0,.774-1.084,1.394-2.736,1.342-1.651,0-2.735-.775-2.735-1.5,0-.619,1.342-1.652,2.735-1.6m-6.245-.671c.207-.052.259-.052.362-.206a3.931,3.931,0,0,1-1.239-.516.673.673,0,0,0,.516-.1,5.645,5.645,0,0,1-1.187-.723c.206,0,.464,0,.516-.1a3.373,3.373,0,0,1-.929-.775.7.7,0,0,0,.516-.051,6.65,6.65,0,0,1-.825-.877.722.722,0,0,0,.567,0c-.1-.206-.515-.362-.722-.826.207,0,.464.051.516,0a3.094,3.094,0,0,0-.465-.929,5.383,5.383,0,0,0,1.188-.052l-.311-.31a2.315,2.315,0,0,1,1.342.156c.155-.1,0-.258-.206-.465a7.419,7.419,0,0,1,1.136.258c.154-.155-.1-.31-.259-.464a2.914,2.914,0,0,1,1.187.464c.206-.206,0-.362-.1-.516a2.907,2.907,0,0,1,.98.619c.1-.1.207-.206.052-.464a2.035,2.035,0,0,1,.775.67c.206-.154.1-.309.1-.464a4.442,4.442,0,0,1,.825.877.784.784,0,0,0,.156-.361c.825.826,2.012,2.839.309,3.612a16.44,16.44,0,0,0-5.161-2.734,17.4,17.4,0,0,1,4.748,3.147c-.413,1.6-2.529,1.7-3.3,1.652a.548.548,0,0,0,.362-.31,4.165,4.165,0,0,1-1.446-.206m3.045,1.239c.878.155-4.077,4.387-4.179,3.457-.052-2.476,1.857-3.818,4.179-3.457m-5.212,9.444a3.148,3.148,0,0,1,.619-5.006c1.342-.31.465,5.522-.619,5.006m4.593,5.007c-.671.412-2.322.257-3.509-1.394-.774-1.393-.671-2.787-.155-3.2.825-.516,2.116.155,3.1,1.29.877.98,1.29,2.787.567,3.3m3.819,2.838c-1.5.051-2.942-1.187-2.942-1.652,0-.619,1.807-1.136,2.994-1.136,1.187-.05,2.838.362,2.838.981.052.568-1.444,1.807-2.89,1.807m2.994-6.348a2.883,2.883,0,0,1-2.994,2.735,2.85,2.85,0,0,1-2.993-2.735V128.8a2.884,2.884,0,0,1,2.993-2.735,2.926,2.926,0,0,1,2.994,2.787m4.18,2.168c-1.291,1.754-2.993,1.805-3.665,1.342-.671-.621-.154-2.581.775-3.664,1.084-1.188,2.219-1.962,2.993-1.343a3.355,3.355,0,0,1-.1,3.665m1.135-3.716c-1.084.464-1.961-5.316-.619-5.007a3.12,3.12,0,0,1,.619,5.007m-13.3-1.053a2.931,2.931,0,0,1-.688-4.077,2.887,2.887,0,0,1,3.9-1.289,2.927,2.927,0,0,1,.689,4.074,2.877,2.877,0,0,1-3.9,1.292" style="fill:#fff"/><path d="M22.073,83.392H21.8v.633h-.2V82.46h.438a.469.469,0,0,1,.349.12.56.56,0,0,1,.054.6.4.4,0,0,1-.181.163l.3.665v.013h-.212Zm-.275-.168h.238a.258.258,0,0,0,.2-.08.307.307,0,0,0,.073-.213c0-.2-.091-.3-.273-.3H21.8Z" style="fill:#3d3f38"/><path d="M23.185,83.412v.612h-.2V82.46h.5a.453.453,0,0,1,.343.131.558.558,0,0,1,.005.7.461.461,0,0,1-.335.126Zm0-.168h.3a.251.251,0,0,0,.2-.079.326.326,0,0,0,.07-.225.337.337,0,0,0-.072-.226.243.243,0,0,0-.2-.085h-.3Z" style="fill:#3d3f38"/><path d="M25.259,84.024h-.875v-.143l.446-.59a1.174,1.174,0,0,0,.14-.225.449.449,0,0,0,.04-.185.327.327,0,0,0-.059-.2A.181.181,0,0,0,24.8,82.6a.221.221,0,0,0-.185.082.383.383,0,0,0-.064.236h-.19a.5.5,0,0,1,.118-.348.406.406,0,0,1,.321-.134.381.381,0,0,1,.294.115.424.424,0,0,1,.107.3.969.969,0,0,1-.241.55l-.347.455h.647Z" style="fill:#3d3f38"/><rect x="25.616" y="83.279" width="0.443" height="0.162" style="fill:#3d3f38"/><path d="M27.261,82.869a.407.407,0,0,1-.052.208.377.377,0,0,1-.14.143.4.4,0,0,1,.163.154.5.5,0,0,1-.056.552.443.443,0,0,1-.606,0,.455.455,0,0,1-.115-.324.443.443,0,0,1,.059-.23.375.375,0,0,1,.16-.153.367.367,0,0,1-.139-.143.427.427,0,0,1-.051-.208.441.441,0,0,1,.108-.313.4.4,0,0,1,.562,0,.445.445,0,0,1,.107.315m-.16.73a.341.341,0,0,0-.063-.216.2.2,0,0,0-.167-.081.2.2,0,0,0-.166.082.352.352,0,0,0-.061.215.336.336,0,0,0,.06.21.208.208,0,0,0,.17.075.2.2,0,0,0,.168-.075.33.33,0,0,0,.059-.21m-.029-.727a.315.315,0,0,0-.056-.194.175.175,0,0,0-.288,0,.322.322,0,0,0-.053.195.317.317,0,0,0,.054.194.175.175,0,0,0,.145.073.17.17,0,0,0,.144-.074.316.316,0,0,0,.054-.193" style="fill:#3d3f38"/><path d="M28.6,83.357a1.05,1.05,0,0,1-.1.518.38.38,0,0,1-.63.007.968.968,0,0,1-.107-.494v-.269a1.028,1.028,0,0,1,.1-.512.384.384,0,0,1,.629-.007.935.935,0,0,1,.107.484Zm-.19-.271a.9.9,0,0,0-.055-.366.181.181,0,0,0-.174-.117.179.179,0,0,0-.172.115.866.866,0,0,0-.058.348v.323a.925.925,0,0,0,.058.371.183.183,0,0,0,.173.124.179.179,0,0,0,.171-.117.91.91,0,0,0,.057-.358Z" style="fill:#3d3f38"/><path d="M32.838,84.024h-.875v-.143l.446-.59a1.174,1.174,0,0,0,.14-.225.449.449,0,0,0,.04-.185.327.327,0,0,0-.059-.2.181.181,0,0,0-.152-.077.221.221,0,0,0-.185.082.383.383,0,0,0-.064.236h-.19a.5.5,0,0,1,.118-.348.406.406,0,0,1,.321-.134.381.381,0,0,1,.294.115.424.424,0,0,1,.107.3.969.969,0,0,1-.241.55l-.347.455h.647Z" style="fill:#3d3f38"/><path d="M34.1,83.357a1.048,1.048,0,0,1-.1.518.379.379,0,0,1-.629.007.958.958,0,0,1-.107-.494v-.269a1.029,1.029,0,0,1,.1-.512A.385.385,0,0,1,34,82.6a.945.945,0,0,1,.107.484Zm-.19-.271a.922.922,0,0,0-.055-.366.182.182,0,0,0-.175-.117.18.18,0,0,0-.172.115.886.886,0,0,0-.057.348v.323a.928.928,0,0,0,.057.371.184.184,0,0,0,.174.124.178.178,0,0,0,.17-.117.907.907,0,0,0,.058-.358Z" style="fill:#3d3f38"/><polygon points="34.644 84.159 34.483 84.159 35.033 82.461 35.192 82.461 34.644 84.159" style="fill:#3d3f38"/><path d="M36.486,84.024h-.875v-.143l.446-.59a1.174,1.174,0,0,0,.14-.225.449.449,0,0,0,.04-.185.327.327,0,0,0-.059-.2.182.182,0,0,0-.152-.077.222.222,0,0,0-.185.082.383.383,0,0,0-.064.236h-.19a.5.5,0,0,1,.118-.348.406.406,0,0,1,.321-.134.38.38,0,0,1,.294.115.424.424,0,0,1,.107.3.969.969,0,0,1-.241.55l-.347.455h.647Z" style="fill:#3d3f38"/><polygon points="37.483 84.024 37.293 84.024 37.293 82.7 36.963 82.847 36.963 82.667 37.453 82.453 37.483 82.453 37.483 84.024" style="fill:#3d3f38"/><path d="M21.768,85.912v.612h-.2V84.96h.5a.453.453,0,0,1,.343.131.558.558,0,0,1,0,.7.46.46,0,0,1-.335.126Zm0-.168h.3a.254.254,0,0,0,.2-.079.4.4,0,0,0,0-.451.243.243,0,0,0-.2-.085h-.3Z" style="fill:#3d3f38"/><path d="M23.63,84.96v.168H23.6a.386.386,0,0,0-.3.129.614.614,0,0,0-.123.373.325.325,0,0,1,.266-.131.321.321,0,0,1,.275.143.629.629,0,0,1,.1.373.615.615,0,0,1-.111.388.366.366,0,0,1-.3.143.355.355,0,0,1-.306-.169.77.77,0,0,1-.116-.447v-.077a1.523,1.523,0,0,1,.07-.513.554.554,0,0,1,.206-.284.6.6,0,0,1,.338-.1h.032Zm-.218.7a.213.213,0,0,0-.144.059.327.327,0,0,0-.093.15v.079a.639.639,0,0,0,.066.31.2.2,0,0,0,.165.12.187.187,0,0,0,.167-.1.589.589,0,0,0,0-.518.183.183,0,0,0-.161-.1" style="fill:#3d3f38"/><path d="M24.993,86h.174v.162h-.174v.363H24.8v-.363h-.591v-.116l.581-1.084h.2Zm-.57,0h.38v-.743Z" style="fill:#3d3f38"/><polygon points="25.877 84.96 26.285 86.236 26.693 84.96 26.945 84.96 26.945 86.524 26.749 86.524 26.749 85.916 26.769 85.306 26.357 86.524 26.208 86.524 25.801 85.31 25.818 85.916 25.818 86.524 25.622 86.524 25.622 84.96 25.877 84.96" style="fill:#3d3f38"/><polygon points="28.028 86.524 27.837 86.524 27.837 85.2 27.507 85.347 27.507 85.167 27.998 84.953 28.028 84.953 28.028 86.524" style="fill:#3d3f38"/><path d="M28.845,85.74l.067-.78h.68v.184h-.519l-.038.426a.358.358,0,0,1,.209-.067.339.339,0,0,1,.287.142.624.624,0,0,1,.1.381.591.591,0,0,1-.113.382.418.418,0,0,1-.6.023.5.5,0,0,1-.127-.318h.179a.365.365,0,0,0,.076.2.2.2,0,0,0,.159.069.2.2,0,0,0,.173-.1.481.481,0,0,0,.062-.26.429.429,0,0,0-.067-.25.211.211,0,0,0-.181-.1.224.224,0,0,0-.152.05l-.05.05Z" style="fill:#3d3f38"/><path d="M30.1,86.42a.13.13,0,0,1,.031-.086.121.121,0,0,1,.092-.034.123.123,0,0,1,.093.034.125.125,0,0,1,.032.086.116.116,0,0,1-.032.083.123.123,0,0,1-.093.033.111.111,0,0,1-.123-.116" style="fill:#3d3f38"/><path d="M31.708,85.857a1.061,1.061,0,0,1-.1.518.38.38,0,0,1-.63.007.968.968,0,0,1-.107-.494v-.269a1.028,1.028,0,0,1,.1-.512A.384.384,0,0,1,31.6,85.1a.935.935,0,0,1,.107.484Zm-.19-.271a.9.9,0,0,0-.055-.366.181.181,0,0,0-.174-.117.179.179,0,0,0-.172.115.866.866,0,0,0-.058.348v.323a.925.925,0,0,0,.058.371.183.183,0,0,0,.173.124.179.179,0,0,0,.171-.117.91.91,0,0,0,.057-.358Z" style="fill:#3d3f38"/><path d="M33.014,85.857a1.05,1.05,0,0,1-.1.518.38.38,0,0,1-.63.007.968.968,0,0,1-.107-.494v-.269a1.028,1.028,0,0,1,.1-.512.385.385,0,0,1,.63-.007.946.946,0,0,1,.106.484Zm-.189-.271a.9.9,0,0,0-.056-.366.187.187,0,0,0-.346,0,.868.868,0,0,0-.057.348v.323a.928.928,0,0,0,.057.371.183.183,0,0,0,.173.124.178.178,0,0,0,.171-.117.907.907,0,0,0,.058-.358Z" style="fill:#3d3f38"/><polygon points="35.123 85.129 34.712 85.129 34.712 86.525 34.515 86.525 34.515 85.129 34.104 85.129 34.104 84.96 35.123 84.96 35.123 85.129" style="fill:#3d3f38"/><polygon points="36.505 85.129 36.093 85.129 36.093 86.525 35.897 86.525 35.897 85.129 35.486 85.129 35.486 84.96 36.504 84.96 36.504 85.129 36.505 85.129" style="fill:#3d3f38"/><polygon points="37.887 85.129 37.476 85.129 37.476 86.525 37.279 86.525 37.279 85.129 36.868 85.129 36.868 84.96 37.887 84.96 37.887 85.129" style="fill:#3d3f38"/><path d="M33.271,75.838l-.084-.125a1.641,1.641,0,0,0-.96-1.63c.146-.042.313-.083.355-.271a.4.4,0,0,0,.355-.314c.063-.042.313-.187.272-.4a.337.337,0,0,0,.167-.376c.145-.146.187-.272.125-.4a.3.3,0,0,0,.02-.438c.126-.231.022-.481-.334-.439a.553.553,0,0,0-.5-.168.34.34,0,0,0-.335-.1.41.41,0,0,0-.459-.042c-.189-.146-.314-.021-.46.021-.23-.084-.293.021-.4.063-.25-.063-.334.062-.459.187H30.43a1.749,1.749,0,0,0-.648.9,1.477,1.477,0,0,0-.647-.9h-.147a.427.427,0,0,0-.46-.187c-.1-.042-.167-.147-.4-.063a1.559,1.559,0,0,0-.293-.084.4.4,0,0,0-.188.063.411.411,0,0,0-.46.042c-.209-.021-.293.021-.334.1-.042,0-.355-.042-.5.168-.355-.042-.459.209-.334.439a.318.318,0,0,0,.021.438c-.063.125-.021.251.125.4a.35.35,0,0,0,.168.376c-.022.23.209.355.271.4.021.125.083.251.356.314.041.187.209.229.354.271a1.662,1.662,0,0,0-.961,1.63l-.083.125a1.606,1.606,0,0,0-.293,2.424,5.13,5.13,0,0,0,.23.73,1.84,1.84,0,0,0,1.129,1.421,4.289,4.289,0,0,0,1.065.607,1.806,1.806,0,0,0,1.317.585h.02a1.806,1.806,0,0,0,1.317-.585,3.478,3.478,0,0,0,1.065-.607,1.763,1.763,0,0,0,1.128-1.421,4.89,4.89,0,0,0,.229-.73,1.536,1.536,0,0,0-.208-2.424m-.439-.167c-.02.376-2.026-1.337-1.692-1.4a1.353,1.353,0,0,1,1.692,1.4m-.9,1.9a1.186,1.186,0,0,1-1.609-.46,1.17,1.17,0,0,1,.209-1.651,1.185,1.185,0,0,1,1.609.46,1.164,1.164,0,0,1-.209,1.651m-1.379-5.914c.021.084.042.147.063.147a2.815,2.815,0,0,1,.334-.356c0,.064-.042.147.042.189a1.292,1.292,0,0,1,.314-.272c-.064.1-.022.147.02.188a1.2,1.2,0,0,1,.4-.251c-.063.063-.125.126-.041.21a1.368,1.368,0,0,1,.48-.189c-.063.063-.188.125-.1.189a2.915,2.915,0,0,1,.459-.1c-.083.063-.146.125-.083.188a1.143,1.143,0,0,1,.543-.063l-.125.125a2.185,2.185,0,0,0,.48.022,1.22,1.22,0,0,0-.188.376c.021.02.125,0,.208,0-.1.208-.271.25-.292.334a.225.225,0,0,0,.23,0c-.063.146-.209.229-.334.355.021.021.083.041.208.021a2.9,2.9,0,0,1-.376.313,1.207,1.207,0,0,0,.209.042,2.233,2.233,0,0,1-.48.292.27.27,0,0,0,.209.042,1.553,1.553,0,0,1-.5.209c.042.063.062.063.146.084-.188.105-.48.063-.564.105.02.062.062.083.146.125-.313.02-1.17-.021-1.337-.669a6.59,6.59,0,0,1,1.922-1.275,6.284,6.284,0,0,0-2.09,1.108c-.73-.334-.25-1.149.105-1.484m-.71,2.362h0c.5,0,1.107.354,1.107.71,0,.313-.438.564-1.107.543-.669,0-1.108-.314-1.108-.606,0-.251.543-.669,1.108-.647m-2.529-.272c.084-.021.105-.021.147-.084a1.543,1.543,0,0,1-.5-.209.27.27,0,0,0,.209-.041,2.31,2.31,0,0,1-.481-.293c.083,0,.188,0,.209-.042a1.343,1.343,0,0,1-.376-.313.278.278,0,0,0,.208-.021,2.74,2.74,0,0,1-.334-.355.291.291,0,0,0,.23,0c-.041-.083-.209-.146-.292-.334.083,0,.187.02.209,0a1.232,1.232,0,0,0-.189-.376,2.182,2.182,0,0,0,.481-.021l-.125-.126a.932.932,0,0,1,.543.063c.062-.041,0-.1-.083-.188a2.98,2.98,0,0,1,.46.1c.062-.063-.042-.125-.105-.189a1.2,1.2,0,0,1,.481.189c.083-.084,0-.147-.042-.209a1.165,1.165,0,0,1,.4.251c.042-.042.084-.084.022-.189a.819.819,0,0,1,.312.272c.084-.063.042-.125.042-.188a1.772,1.772,0,0,1,.335.355.336.336,0,0,0,.063-.146c.334.334.814,1.149.125,1.462a6.663,6.663,0,0,0-2.089-1.107,7.068,7.068,0,0,1,1.922,1.274c-.167.649-1.024.69-1.337.669a.219.219,0,0,0,.146-.125,1.685,1.685,0,0,1-.586-.084m1.234.5c.354.063-1.652,1.777-1.693,1.4a1.355,1.355,0,0,1,1.693-1.4m-2.111,3.824a1.275,1.275,0,0,1,.251-2.027c.543-.125.188,2.235-.251,2.027M28.3,80.1a1.191,1.191,0,0,1-1.421-.564c-.314-.564-.272-1.128-.063-1.3.334-.208.857.064,1.253.523.356.4.523,1.128.231,1.337m-.543-2.465a1.281,1.281,0,1,1,1.608-.46,1.188,1.188,0,0,1-1.608.46m2.089,3.614a1.325,1.325,0,0,1-1.191-.669c0-.25.731-.459,1.211-.459.481-.021,1.15.146,1.15.4.02.229-.585.731-1.17.731m1.212-2.569a1.168,1.168,0,0,1-1.212,1.107,1.154,1.154,0,0,1-1.212-1.107v-.022a1.168,1.168,0,0,1,1.212-1.107,1.185,1.185,0,0,1,1.212,1.129m1.692.877c-.522.71-1.212.731-1.483.543-.272-.25-.063-1.045.313-1.484.439-.48.9-.793,1.211-.542a1.356,1.356,0,0,1-.041,1.483m.459-1.5c-.438.187-.794-2.152-.25-2.026a1.262,1.262,0,0,1,.25,2.026" style="fill:#3d3f38"/><rect x="11.473" y="17.009" width="4.252" height="2.835" style="fill:#ecf6fd"/><path d="M12.946,17.793a.709.709,0,1,1-.709.709.708.708,0,0,1,.709-.709" style="fill:#3c3"/></svg>